<svg width="502" height="502" viewBox="0 0 502 502" fill="none" xmlns="http://www.w3.org/2000/svg">
<rect x="37.1777" y="32.9724" width="431.877" height="311.137" fill="black"/>
<path d="M55.4605 0.46582H446.132C482.988 0.46582 501.563 25.1246 501.563 75.278V427.188C501.563 476.923 482.988 502 446.132 502H55.4605C18.6046 502 0.0292969 476.923 0.0292969 427.188V75.278C0.0292969 25.1246 18.6046 0.46582 55.4605 0.46582ZM250.649 302.78L449.376 170.57C456.452 162.211 462.054 142.985 453.209 125.849C444.658 108.714 436.688 111.949 418.712 118.744L250.649 181.158L82.8812 118.744C64.7195 111.949 56.9347 108.714 48.3842 125.849C39.5388 142.985 45.1408 162.211 52.2172 170.57L250.649 302.78Z" fill="white"/>
</svg>
