<svg width="502" height="502" viewBox="0 0 502 502" fill="none" xmlns="http://www.w3.org/2000/svg">
<rect x="60.8223" y="32.9727" width="380.794" height="436.521" fill="black"/>
<path d="M54.1909 0.46582C24.5242 0.46582 0.455078 24.535 0.455078 54.2016V448.264C0.455078 477.931 24.5242 502 54.1909 502H448.253C477.92 502 501.989 477.931 501.989 448.264V54.2016C501.989 24.535 477.92 0.46582 448.253 0.46582H54.1909ZM164.887 86.9237C186.869 86.9237 206.4 94.524 220.782 105.923C234.082 116.504 240.31 127.089 245.744 136.589L207.768 155.563C205.051 149.333 201.782 142.816 193.387 135.768C184.153 128.434 174.94 126.271 167.052 126.271C136.125 126.271 119.843 155.034 119.843 187.045C119.843 229.108 141.293 249.983 167.052 249.983C192.017 249.983 202.067 232.619 208.563 221.508L246.296 240.772C239.227 251.884 232.444 262.753 217.245 273.314C209.116 279.012 190.403 290.148 163.805 290.148C113.061 290.148 72.1028 253.254 72.1028 188.39C72.1028 131.704 110.63 86.9237 164.887 86.9237ZM249.39 92.8884H300.399L340.009 229.106L379.332 92.8884H430.342L363.867 284.448H315.045L249.39 92.8884Z" fill="white"/>
<path d="M98.1161 430.534V360.348H138.559V367.838H106.996V389.878H133.637V397.474H106.996V422.938H139.629V430.534H98.1161ZM153.681 430.534V378.537H160.957L161.705 386.026H162.026C164.523 383.53 167.162 381.461 169.944 379.821C172.726 378.109 175.9 377.253 179.466 377.253C184.958 377.253 188.952 379 191.449 382.496C194.017 385.919 195.301 390.948 195.301 397.581V430.534H186.527V398.758C186.527 393.908 185.743 390.377 184.174 388.166C182.604 385.955 180.108 384.849 176.684 384.849C174.045 384.849 171.656 385.527 169.516 386.882C167.447 388.237 165.094 390.235 162.454 392.874V430.534H153.681ZM229.738 454.5C223.39 454.5 218.219 453.288 214.225 450.863C210.23 448.438 208.233 444.978 208.233 440.485C208.233 438.273 208.911 436.134 210.266 434.065C211.621 432.068 213.476 430.285 215.829 428.716V428.288C214.546 427.503 213.44 426.397 212.513 424.971C211.657 423.544 211.229 421.832 211.229 419.835C211.229 417.624 211.835 415.698 213.048 414.058C214.26 412.417 215.544 411.133 216.899 410.206V409.778C215.188 408.352 213.618 406.426 212.192 404.001C210.837 401.576 210.159 398.829 210.159 395.762C210.159 391.982 211.051 388.701 212.834 385.919C214.617 383.137 217.006 380.998 220.002 379.5C222.998 378.002 226.243 377.253 229.738 377.253C231.165 377.253 232.52 377.396 233.804 377.681C235.088 377.895 236.193 378.18 237.121 378.537H255.202V385.277H244.503C245.716 386.419 246.714 387.952 247.499 389.878C248.355 391.732 248.783 393.765 248.783 395.976C248.783 399.685 247.927 402.895 246.215 405.606C244.503 408.316 242.221 410.42 239.367 411.918C236.514 413.345 233.305 414.058 229.738 414.058C226.957 414.058 224.353 413.452 221.928 412.239C221.001 413.024 220.216 413.915 219.574 414.914C218.932 415.841 218.611 417.018 218.611 418.444C218.611 420.085 219.253 421.44 220.537 422.51C221.892 423.58 224.317 424.115 227.812 424.115H237.87C243.932 424.115 248.462 425.114 251.457 427.111C254.525 429.037 256.058 432.175 256.058 436.526C256.058 439.736 254.988 442.696 252.848 445.406C250.709 448.117 247.677 450.292 243.754 451.933C239.831 453.644 235.159 454.5 229.738 454.5ZM229.738 408.173C232.734 408.173 235.302 407.068 237.442 404.857C239.653 402.574 240.758 399.543 240.758 395.762C240.758 391.982 239.688 389.022 237.549 386.882C235.409 384.742 232.805 383.672 229.738 383.672C226.671 383.672 224.068 384.742 221.928 386.882C219.788 389.022 218.718 391.982 218.718 395.762C218.718 399.543 219.788 402.574 221.928 404.857C224.139 407.068 226.743 408.173 229.738 408.173ZM231.022 448.402C236.015 448.402 240.009 447.296 243.005 445.085C246.001 442.945 247.499 440.52 247.499 437.81C247.499 435.385 246.572 433.708 244.717 432.781C242.934 431.854 240.366 431.39 237.014 431.39H228.026C227.028 431.39 225.922 431.319 224.71 431.176C223.568 431.034 222.427 430.82 221.286 430.534C219.432 431.89 218.076 433.316 217.22 434.814C216.364 436.312 215.936 437.81 215.936 439.308C215.936 442.089 217.256 444.301 219.895 445.941C222.606 447.582 226.315 448.402 231.022 448.402ZM275.413 431.818C272.132 431.818 269.743 430.82 268.245 428.823C266.818 426.754 266.105 423.83 266.105 420.049V354.357H274.878V420.691C274.878 422.046 275.128 423.045 275.627 423.687C276.127 424.258 276.697 424.543 277.339 424.543C277.625 424.543 277.874 424.543 278.088 424.543C278.373 424.472 278.766 424.4 279.265 424.329L280.442 430.962C279.871 431.248 279.194 431.462 278.409 431.604C277.625 431.747 276.626 431.818 275.413 431.818ZM293.375 430.534V378.537H302.149V430.534H293.375ZM297.869 367.838C296.157 367.838 294.731 367.338 293.589 366.34C292.519 365.27 291.984 363.843 291.984 362.06C291.984 360.348 292.519 358.958 293.589 357.888C294.731 356.818 296.157 356.283 297.869 356.283C299.581 356.283 300.972 356.818 302.042 357.888C303.183 358.958 303.753 360.348 303.753 362.06C303.753 363.843 303.183 365.27 302.042 366.34C300.972 367.338 299.581 367.838 297.869 367.838ZM333.293 431.818C329.584 431.818 326.053 431.141 322.701 429.785C319.348 428.359 316.424 426.647 313.928 424.65L318.314 418.765C320.597 420.549 322.95 422.046 325.376 423.259C327.801 424.4 330.547 424.971 333.614 424.971C337.038 424.971 339.605 424.186 341.317 422.617C343.029 420.977 343.885 419.051 343.885 416.84C343.885 415.056 343.279 413.559 342.066 412.346C340.925 411.133 339.427 410.135 337.573 409.35C335.789 408.494 333.935 407.71 332.009 406.996C329.584 406.069 327.194 405.035 324.841 403.894C322.487 402.681 320.561 401.148 319.063 399.293C317.565 397.367 316.816 394.942 316.816 392.018C316.816 387.809 318.386 384.314 321.524 381.533C324.734 378.679 329.156 377.253 334.791 377.253C338.001 377.253 340.996 377.824 343.778 378.965C346.56 380.106 348.949 381.497 350.946 383.137L346.667 388.701C344.884 387.346 343.029 386.24 341.103 385.384C339.177 384.528 337.073 384.1 334.791 384.1C331.51 384.1 329.085 384.849 327.515 386.347C326.018 387.845 325.269 389.593 325.269 391.59C325.269 393.23 325.804 394.585 326.873 395.655C327.943 396.654 329.334 397.546 331.046 398.33C332.758 399.043 334.577 399.792 336.503 400.577C338.999 401.504 341.46 402.574 343.885 403.787C346.31 404.928 348.307 406.497 349.877 408.494C351.517 410.42 352.337 413.024 352.337 416.305C352.337 419.086 351.588 421.654 350.091 424.008C348.664 426.362 346.524 428.252 343.671 429.678C340.889 431.105 337.43 431.818 333.293 431.818ZM364.528 430.534V354.357H373.302V375.113L372.981 385.812C375.477 383.458 378.081 381.461 380.791 379.821C383.573 378.109 386.747 377.253 390.313 377.253C395.805 377.253 399.8 379 402.296 382.496C404.864 385.919 406.148 390.948 406.148 397.581V430.534H397.375V398.758C397.375 393.908 396.59 390.377 395.021 388.166C393.452 385.955 390.955 384.849 387.531 384.849C384.892 384.849 382.503 385.527 380.363 386.882C378.295 388.237 375.941 390.235 373.302 392.874V430.534H364.528Z" fill="black"/>
</svg>
