<svg width="505" height="484" viewBox="0 0 505 484" fill="none" xmlns="http://www.w3.org/2000/svg">
<path d="M460.892 245.142C457.508 245.142 454.125 246.592 451.466 249.25L427.297 273.419L476.843 322.966L501.012 298.797C506.329 293.721 506.329 285.262 501.012 280.187L470.076 249.25C468.902 247.981 467.483 246.963 465.904 246.257C464.326 245.551 462.621 245.171 460.892 245.142ZM413.279 287.437L266.574 433.901V483.688H316.362L462.825 336.983L413.279 287.437ZM219.445 412.632C215.095 411.182 210.744 411.182 206.152 411.182C169.899 411.182 140.896 440.426 140.896 476.438V483.688H49.0545C36.2345 483.688 23.9397 478.596 14.8746 469.531C5.8095 460.466 0.716797 448.171 0.716797 435.351V343.509H7.96745C43.979 343.509 73.2234 314.506 73.2234 278.253C73.2234 242 43.979 212.997 7.96745 212.997H0.716797V121.156C0.716797 94.5698 22.4688 72.8178 49.0545 72.8178H122.528C128.328 31.7308 163.615 0.311279 206.152 0.311279C248.689 0.311279 283.976 31.7308 289.776 72.8178H363.25C376.07 72.8178 388.364 77.9106 397.43 86.9756C406.495 96.0407 411.587 108.336 411.587 121.156V194.629C420.288 195.837 428.264 198.738 435.756 202.363C429.231 205.747 422.705 209.614 417.388 215.172L390.319 242H363.25V121.156H242.405V84.9023C242.405 64.8421 226.212 48.649 206.152 48.649C186.092 48.649 169.899 64.8421 169.899 84.9023V121.156H49.0545V172.394C91.5917 188.828 121.561 229.915 121.561 278.253C121.561 326.591 91.35 367.678 49.0545 384.113V435.351H100.292C108.574 414.004 123.114 395.658 142.005 382.72C160.895 369.781 183.255 362.853 206.152 362.844C224.52 362.844 242.405 367.195 257.148 374.929L219.445 412.632Z" fill="#2ADE71"/>
</svg>
