<svg width="514" height="515" viewBox="0 0 514 515" fill="none" xmlns="http://www.w3.org/2000/svg">
<path d="M393.568 0.927734H120.954C54.5306 0.927734 0.683594 54.7747 0.683594 121.198V393.812C0.683594 460.235 54.5306 514.082 120.954 514.082H393.568C459.991 514.082 513.838 460.235 513.838 393.812V121.198C513.838 54.7747 459.991 0.927734 393.568 0.927734Z" fill="#242938"/>
<path d="M257.269 295.493C277.924 295.493 294.665 278.749 294.665 258.097C294.665 237.444 277.924 220.701 257.269 220.701C236.617 220.701 219.873 237.444 219.873 258.097C219.873 278.749 236.617 295.493 257.269 295.493Z" fill="#00D8FF"/>
<path d="M257.266 182.067C307.475 182.067 354.118 189.271 389.287 201.38C431.66 215.967 457.713 238.079 457.713 258.102C457.713 278.967 430.102 302.458 384.598 317.534C350.197 328.931 304.927 334.881 257.266 334.881C208.4 334.881 162.126 329.296 127.335 317.407C83.3202 302.364 56.8105 278.57 56.8105 258.102C56.8105 238.241 81.6865 216.3 123.465 201.735C158.764 189.427 206.558 182.067 257.258 182.067H257.266Z" stroke="#00D8FF" stroke-width="17.8622"/>
<path d="M191.07 220.304C216.155 176.81 245.695 140.003 273.754 115.588C307.558 86.1681 339.731 74.6462 357.074 84.6467C375.148 95.0701 381.705 130.726 372.033 177.676C364.727 213.17 347.26 255.357 323.448 296.646C299.035 338.977 271.082 376.273 243.406 400.463C208.385 431.076 174.527 442.155 156.797 431.93C139.592 422.016 133.014 389.501 141.268 346.033C148.242 309.304 165.743 264.225 191.062 220.304H191.07Z" stroke="#00D8FF" stroke-width="17.8622"/>
<path d="M191.134 296.752C165.979 253.306 148.852 209.323 141.704 172.821C133.099 128.84 139.183 95.2143 156.512 85.1837C174.57 74.7282 208.733 86.8555 244.578 118.683C271.679 142.745 299.507 178.941 323.387 220.19C347.87 262.481 366.22 305.327 373.358 341.384C382.39 387.015 375.079 421.879 357.366 432.132C340.179 442.083 308.726 431.549 275.189 402.688C246.853 378.305 216.537 340.631 191.134 296.752Z" stroke="#00D8FF" stroke-width="17.8622"/>
</svg>
