<svg width="554" height="555" viewBox="0 0 554 555" fill="none" xmlns="http://www.w3.org/2000/svg">
<path d="M33.3868 520.496L210.214 343.669M432.887 265.036L379.955 423.83C379.111 426.376 377.664 428.68 375.739 430.547C373.814 432.414 371.467 433.789 368.897 434.556L44.4177 530.999C41.4944 531.867 38.3889 531.917 35.4393 531.143C32.4897 530.369 29.809 528.801 27.6887 526.609C25.5685 524.417 24.0901 521.685 23.4144 518.712C22.7387 515.738 22.8916 512.636 23.8564 509.743L129.219 193.711C129.974 191.442 131.209 189.361 132.839 187.612C134.469 185.862 136.456 184.483 138.666 183.569L288.347 121.941C291.39 120.684 294.737 120.356 297.966 120.999C301.195 121.642 304.161 123.226 306.491 125.553L428.858 247.976C431.047 250.165 432.584 252.92 433.296 255.934C434.007 258.947 433.866 262.099 432.887 265.036Z" stroke="#2ADE71" stroke-width="45.232" stroke-linecap="round" stroke-linejoin="round"/>
<path d="M436.153 255.256L514.731 176.651C525.149 166.23 531.001 152.098 531.001 137.363C531.001 122.627 525.149 108.495 514.731 98.0738L455.826 39.113C450.665 33.9503 444.538 29.855 437.794 27.0609C431.051 24.2667 423.823 22.8286 416.523 22.8286C409.223 22.8286 401.995 24.2667 395.252 27.0609C388.508 29.855 382.381 33.9503 377.22 39.113L298.643 117.718M269.135 284.709C265.263 280.84 260.668 277.77 255.61 275.677C250.552 273.583 245.132 272.506 239.658 272.508C234.185 272.509 228.765 273.588 223.708 275.684C218.652 277.78 214.057 280.852 210.188 284.723C206.318 288.594 203.249 293.19 201.155 298.248C199.062 303.305 197.985 308.726 197.986 314.199C197.988 319.673 199.067 325.093 201.163 330.15C203.259 335.206 206.33 339.8 210.202 343.67C218.02 351.485 228.623 355.874 239.678 355.871C250.733 355.869 261.334 351.475 269.149 343.656C276.964 335.837 281.353 325.234 281.35 314.18C281.347 303.125 276.953 292.524 269.135 284.709Z" stroke="#2ADE71" stroke-width="45.232" stroke-linecap="round" stroke-linejoin="round"/>
</svg>
