<svg width="5722" height="500" viewBox="0 0 5722 500" fill="none" xmlns="http://www.w3.org/2000/svg">
<mask id="mask0_793_84" style="mask-type:alpha" maskUnits="userSpaceOnUse" x="0" y="0" width="5722" height="501">
<rect y="0.00610352" width="5721.85" height="500" fill="#D9D9D9"/>
</mask>
<g mask="url(#mask0_793_84)">
<path fill-rule="evenodd" clip-rule="evenodd" d="M-379.718 500.006C-160 500.006 72 509 607.903 467.261C1020.18 417 1426.31 47.6526 1838.59 9.95647C2250.87 -27.7396 2281.72 4.54236 2694 92.5C3106.28 180.458 3255.32 332.76 3815 350.5C4335.54 367 4442 191.5 4889.5 191.5C5380.5 191.5 5497 459.5 5724 500.006C6046 500.006 6252.39 500.006 6598.26 500.006C6389.05 500.006 5619.78 500.006 5207.5 500.006C4795.22 500.006 4752.24 500.006 4339.96 500.006C3927.68 500.006 3521.55 500.006 3109.27 500.006C2696.99 500.006 2290.87 500.006 1878.59 500.006C1466.31 500.006 1060.18 500.006 647.903 500.006C235.624 500.006 -170.502 500.006 -379.718 500.006Z" fill="#59FB97" fill-opacity="0.9"/>
</g>
</svg>
