<svg width="301" height="516" viewBox="0 0 301 516" fill="none" xmlns="http://www.w3.org/2000/svg">
<path fill-rule="evenodd" clip-rule="evenodd" d="M12.5862 503.328C4.52726 495.266 0 484.334 0 472.935C0 461.537 4.52726 450.604 12.5862 442.543L197.133 257.996L12.5862 73.4495C4.75566 65.3419 0.422744 54.4831 0.520688 43.2118C0.618632 31.9405 5.13962 21.1586 13.1099 13.1883C21.0802 5.21805 31.8621 0.697037 43.1334 0.599092C54.4046 0.501148 65.2634 4.83408 73.371 12.6647L288.31 227.604C296.369 235.665 300.896 246.597 300.896 257.996C300.896 269.395 296.369 280.327 288.31 288.389L73.371 503.328C65.3096 511.387 54.3775 515.914 42.9786 515.914C31.5798 515.914 20.6476 511.387 12.5862 503.328Z" fill="white"/>
</svg>
