<svg width="590" height="606" viewBox="0 0 590 606" fill="none" xmlns="http://www.w3.org/2000/svg">
<path d="M246.081 353.172C246.081 379.242 227.681 387.481 205.076 387.481H145.803V316.025H206.259C230.704 316.161 246.081 326.561 246.081 353.172ZM235.961 242.003C235.961 218.094 217.956 212.421 197.979 212.421H145.934V272.936H202.053C221.899 272.936 235.961 264.021 235.961 242.003ZM409.838 273.341C385.787 273.341 369.753 288.74 368.176 313.459H449.924C447.689 288.47 435.072 273.341 409.838 273.341ZM589.761 65.4572V540.929C589.761 576.725 561.505 605.766 526.677 605.766H64.0554C29.2274 605.766 0.970703 576.725 0.970703 540.929V65.4572C0.970703 29.6617 29.2274 0.620117 64.0554 0.620117H526.677C561.505 0.620117 589.761 29.6617 589.761 65.4572ZM358.056 207.288H460.306V181.759H358.056V207.288ZM301.543 356.278C301.543 323.725 286.56 295.629 255.544 286.579C278.149 275.502 289.977 262.67 289.977 236.6C289.977 185.001 252.521 172.438 209.282 172.438H90.3407V431.787H212.699C258.567 431.516 301.543 408.959 301.543 356.278ZM500.391 336.287C500.391 280.77 468.717 234.439 411.547 234.439C355.822 234.439 318.103 277.393 318.103 333.856C318.103 392.344 353.982 432.462 411.547 432.462C455.181 432.462 483.437 412.335 497.106 369.246H452.815C447.952 385.32 428.37 393.695 413.124 393.695C383.685 393.695 368.308 376 368.308 346.013H499.997C500.128 342.906 500.391 339.529 500.391 336.287Z" fill="white"/>
</svg>
