<svg width="343" height="514" viewBox="0 0 343 514" fill="none" xmlns="http://www.w3.org/2000/svg">
<path d="M85.7465 513.382C132.957 513.382 171.272 475.067 171.272 427.856V342.331H85.7465C38.5362 342.331 0.220703 380.646 0.220703 427.856C0.220703 475.067 38.5362 513.382 85.7465 513.382Z" fill="#0ACF83"/>
<path d="M0.220703 256.805C0.220703 209.594 38.5362 171.279 85.7465 171.279H171.272V342.33H85.7465C38.5362 342.33 0.220703 304.015 0.220703 256.805Z" fill="#A259FF"/>
<path d="M0.220703 85.7528C0.220703 38.5426 38.5362 0.227051 85.7465 0.227051H171.272V171.279H85.7465C38.5362 171.279 0.220703 132.963 0.220703 85.7528Z" fill="#F24E1E"/>
<path d="M171.279 0.227051H256.805C304.015 0.227051 342.331 38.5426 342.331 85.7528C342.331 132.963 304.015 171.279 256.805 171.279H171.279V0.227051Z" fill="#FF7262"/>
<path d="M342.331 256.805C342.331 304.015 304.015 342.33 256.805 342.33C209.595 342.33 171.279 304.015 171.279 256.805C171.279 209.594 209.595 171.279 256.805 171.279C304.015 171.279 342.331 209.594 342.331 256.805Z" fill="#1ABCFE"/>
</svg>
