<svg width="527" height="514" viewBox="0 0 527 514" fill="none" xmlns="http://www.w3.org/2000/svg">
<path d="M439.344 0.154785H87.7843C39.5278 0.154785 0.408203 39.2744 0.408203 87.5309V425.933C0.408203 474.19 39.5278 513.309 87.7843 513.309H439.344C487.601 513.309 526.721 474.19 526.721 425.933V87.5309C526.721 39.2744 487.601 0.154785 439.344 0.154785Z" fill="#49021F"/>
<path d="M191.541 134.398V359.302C191.541 361.659 190.483 362.834 188.363 362.834H145.641C143.756 362.834 142.814 361.656 142.818 359.302V134.398C142.818 132.517 143.877 131.576 145.995 131.574H188.717C189.076 131.523 189.442 131.551 189.789 131.656C190.136 131.761 190.457 131.94 190.728 132.181C190.999 132.422 191.214 132.72 191.358 133.053C191.503 133.386 191.573 133.746 191.564 134.109L191.541 134.398ZM320.212 366.342L317.939 366.365C301.688 366.612 285.587 363.235 270.805 356.48C257.034 350.106 245.523 339.702 237.793 326.644C229.983 313.674 225.984 297.506 225.795 278.145L225.789 276.686C225.656 260.481 229.798 244.528 237.795 230.434C245.811 216.463 257.503 204.956 271.6 197.163L272.748 196.538C288.044 188.066 306.522 183.829 328.179 183.829L328.635 183.831L329.649 183.853L330.796 183.899L332.077 183.964L333.489 184.053L335.033 184.166L338.522 184.452L339.476 184.534V114.982C339.476 113.338 340.183 112.509 341.594 112.509H386.082C386.369 112.468 386.663 112.494 386.938 112.586C387.214 112.678 387.465 112.833 387.67 113.038C387.876 113.244 388.03 113.494 388.122 113.77C388.214 114.046 388.24 114.339 388.199 114.627V323.291C388.214 327.651 388.391 332.008 388.73 336.354L389.063 340.906L389.357 345.143L389.612 349.064C389.655 349.798 389.476 350.527 389.099 351.157C388.721 351.787 388.162 352.289 387.494 352.596C376.017 357.382 364.063 360.932 351.834 363.186C341.4 365.112 330.824 366.168 320.214 366.342M339.478 322.584V226.197C337.57 225.68 335.622 225.326 333.654 225.138C331.249 224.896 328.832 224.778 326.415 224.784C317.846 224.7 309.38 226.635 301.701 230.434C294.221 234.152 287.834 239.749 283.165 246.676C278.338 253.736 275.924 263.035 275.926 274.568C275.754 282.264 277.011 289.925 279.633 297.163C281.767 302.995 285.14 308.296 289.52 312.699C293.713 316.75 298.789 319.771 304.349 321.525C310.221 323.427 316.359 324.381 322.531 324.352C325.825 324.352 328.884 324.233 331.711 323.996C333.966 323.827 336.2 323.455 338.389 322.886L339.478 322.584Z" fill="#FF3366"/>
</svg>
