<svg width="358" height="514" viewBox="0 0 358 514" fill="none" xmlns="http://www.w3.org/2000/svg">
<path d="M23.0207 16.9348L229.38 1.69308C254.728 -0.483412 261.243 0.983674 277.179 12.5713L343.053 58.9766C353.919 66.9584 357.535 69.1349 357.535 77.8241V332.329C357.535 348.28 351.742 357.714 331.468 359.156L91.8289 373.663C76.6123 374.385 69.365 372.209 61.3958 362.053L12.8896 298.976C4.18783 287.365 0.582031 278.676 0.582031 268.52V42.2929C0.582031 29.2529 6.37481 18.3767 23.0207 16.9348Z" fill="black"/>
<path d="M229.38 1.69279L23.0207 16.9345C6.37691 18.3764 0.582031 29.2547 0.582031 42.2926V268.52C0.582031 278.676 4.18783 287.365 12.8896 298.976L61.3958 362.054C69.365 372.213 76.6123 374.387 91.8289 373.665L331.468 359.158C351.73 357.716 357.535 348.282 357.535 332.331V77.8238C357.535 69.5796 354.28 67.2058 344.694 60.1705L343.041 58.9763L277.179 12.5711C261.243 0.985486 254.73 -0.483697 229.38 1.69279ZM97.2481 73.6576C77.6806 74.9757 73.2437 75.2737 62.1304 66.2362L33.8737 43.7597C31.0025 40.8508 32.4444 37.2219 39.6791 36.4999L238.059 22.0053C254.715 20.5508 263.392 26.3562 269.907 31.4291L303.933 56.0799C305.387 56.8145 309.004 61.1528 304.653 61.1528L99.7856 73.4834L97.2481 73.6576ZM74.4358 330.154V114.098C74.4358 104.662 77.3322 100.309 86.0109 99.5761L321.311 85.8036C329.291 85.0816 332.897 90.1545 332.897 99.5761V314.192C332.897 323.627 331.442 331.609 318.415 332.328L93.2456 345.383C80.2181 346.103 74.4358 341.765 74.4358 330.154ZM296.709 125.684C298.151 132.211 296.709 138.736 290.181 139.481L279.33 141.633V301.152C269.907 306.223 261.23 309.12 253.983 309.12C242.397 309.12 239.501 305.489 230.822 294.625L159.852 182.967V290.994L182.303 296.08C182.303 296.08 182.303 309.134 164.19 309.134L114.255 312.031C112.8 309.12 114.255 301.872 119.313 300.43L132.355 296.812V153.976L114.255 152.511C112.8 145.983 116.417 136.56 126.56 135.825L180.139 132.221L253.983 245.321V145.261L235.162 143.1C233.708 135.105 239.501 129.3 246.735 128.593L296.709 125.684Z" fill="white"/>
<path d="M15.7917 512.648V452.617H16.8309L60.1214 512.648H73.7512V424.429H58.5953V484.401H57.5561L14.2656 424.429H0.582031V512.64H15.7994L15.7917 512.648ZM116.587 514C136.585 514 148.75 500.915 148.75 479.21C148.75 457.564 136.523 444.42 116.587 444.42C96.7169 444.42 84.43 457.625 84.43 479.209C84.43 500.915 96.5349 514 116.587 514ZM116.587 501.28C106.014 501.28 99.9651 493.212 99.9651 479.21C99.9651 465.269 106.014 457.14 116.587 457.14C127.105 457.14 133.155 465.267 133.155 479.21C133.155 493.212 127.166 501.28 116.587 501.28ZM162.6 429.384V446.196H152.029V458.301H162.6V494.799C162.6 507.761 168.719 512.959 184.063 512.959C186.993 512.959 189.81 512.656 192.01 512.224V500.361C190.174 500.543 189.011 500.665 186.872 500.665C180.52 500.665 177.704 497.736 177.704 491.132V458.302H192.01V446.197H177.704V429.377H162.602L162.6 429.384ZM201.095 512.648H216.198V445.763H201.095V512.648ZM208.616 434.705C213.625 434.705 217.663 430.659 217.663 425.59C217.663 420.512 213.633 416.415 208.616 416.415C203.668 416.415 199.57 420.512 199.57 425.589C199.57 430.659 203.668 434.697 208.616 434.697V434.705ZM257.628 514C277.618 514 289.785 500.915 289.785 479.21C289.785 457.564 277.558 444.42 257.628 444.42C237.752 444.42 225.465 457.625 225.465 479.209C225.465 500.915 237.57 514 257.628 514ZM257.628 501.28C247.049 501.28 240.992 493.212 240.992 479.21C240.992 465.269 247.049 457.14 257.628 457.14C268.14 457.14 274.196 465.267 274.196 479.21C274.196 493.212 268.2 501.28 257.628 501.28ZM298.808 512.648H313.973V473.708C313.973 463.863 319.665 457.625 328.703 457.625C337.939 457.625 342.213 462.764 342.213 472.971V512.648H357.384V469.366C357.384 453.406 349.247 444.419 334.335 444.419C324.362 444.419 317.639 449.003 314.459 456.463H313.418V445.764H298.808V512.648Z" fill="white"/>
</svg>
