<svg width="527" height="514" viewBox="0 0 527 514" fill="none" xmlns="http://www.w3.org/2000/svg">
<path d="M439.106 0.227051H87.546C39.2895 0.227051 0.169922 39.3466 0.169922 87.6031V426.005C0.169922 474.262 39.2895 513.382 87.546 513.382H439.106C487.363 513.382 526.482 474.262 526.482 426.005V87.6031C526.482 39.3466 487.363 0.227051 439.106 0.227051Z" fill="#001E36"/>
<path d="M118.672 360.083V134.472C118.672 132.827 119.379 132.001 120.792 132.001L123.026 131.995L126.846 131.953L132.155 131.849L149.938 131.472L169.007 131.119C175.713 131.004 182.362 130.942 188.953 130.942C206.84 130.942 221.903 133.179 234.146 137.65C245.19 141.386 255.261 147.537 263.628 155.656C270.72 162.694 276.201 171.187 279.693 180.549C282.995 189.659 284.669 199.279 284.637 208.97C284.637 227.804 280.281 243.338 271.572 255.575C263.054 267.513 251.172 276.643 237.444 281.8L236.266 282.232C221.93 287.579 206.054 289.512 188.643 289.633L185.937 289.642L181.922 289.621L179.897 289.592L177.639 289.539L176.278 289.485L175.452 289.442L173.419 289.368L170.933 289.317L167.191 289.29L166.359 289.288V359.729C166.421 360.161 166.381 360.602 166.243 361.015C166.105 361.429 165.873 361.805 165.565 362.114C165.256 362.422 164.88 362.655 164.466 362.792C164.052 362.93 163.612 362.97 163.18 362.908H121.145C119.494 362.908 118.672 361.97 118.672 360.083ZM166.361 174.369V247.954C169.179 248.181 172.004 248.299 174.831 248.307H186.484C194.518 248.28 202.505 247.084 210.195 244.757L211.728 244.278C218.724 242.2 224.975 238.155 229.736 232.625C234.16 227.407 236.453 220.218 236.611 211.054L236.621 210.029C236.806 203.199 235.03 196.46 231.5 190.61C227.79 184.954 222.428 180.577 216.142 178.076C207.935 174.886 199.169 173.385 190.368 173.664L185.89 173.676L183.065 173.701L180.37 173.736L176.566 173.81L173.791 173.888L172.35 173.941L170.423 174.032L168.783 174.132L167.847 174.206L167.039 174.285L166.684 174.326L166.361 174.369ZM421.149 234.574C414.99 231.409 408.457 229.032 401.705 227.498L400.142 227.16C392.713 225.456 385.129 224.517 377.509 224.358L375.605 224.336C371.138 224.215 366.677 224.75 362.365 225.925C359.62 226.535 357.18 228.098 355.478 230.337C354.327 232.128 353.715 234.211 353.714 236.34C353.778 238.404 354.522 240.39 355.831 241.988C357.705 244.179 359.958 246.016 362.482 247.409L363.247 247.814C368.281 250.525 373.468 252.941 378.781 255.051C390.631 259.018 401.953 264.412 412.498 271.116C419.683 275.65 425.629 281.899 429.801 289.3C433.308 296.307 435.065 304.06 434.92 311.895C435.131 322.242 432.174 332.406 426.445 341.025C420.313 349.773 411.795 356.574 401.906 360.618C391.551 365.169 378.833 367.519 363.755 367.674L362.188 367.682C352.841 367.776 343.507 366.958 334.318 365.239L332.353 364.857C324.616 363.438 317.086 361.066 309.933 357.795C309.214 357.424 308.607 356.868 308.173 356.186C307.738 355.503 307.493 354.718 307.462 353.909V315.427C307.42 315.053 307.479 314.675 307.635 314.333C307.791 313.991 308.036 313.697 308.346 313.484C308.649 313.313 308.997 313.238 309.344 313.269C309.691 313.301 310.019 313.437 310.287 313.661C318.734 318.642 327.905 322.275 337.472 324.43C345.904 326.544 354.554 327.669 363.247 327.785C371.483 327.785 377.544 326.724 381.429 324.606C383.184 323.803 384.668 322.509 385.702 320.879C386.736 319.25 387.276 317.356 387.256 315.427C387.256 312.372 385.49 309.428 381.96 306.601C380.479 305.416 378.356 304.127 375.593 302.736L374.271 302.086L372.86 301.422L372.12 301.085L370.57 300.398C370.301 300.281 370.032 300.164 369.762 300.049L368.076 299.341L367.198 298.982L365.377 298.252L364.431 297.882L362.472 297.127L360.422 296.36C349.336 292.502 338.824 287.157 329.174 280.472C322.273 275.672 316.591 269.324 312.581 261.936C309.109 254.979 307.354 247.291 307.462 239.516C307.442 230.175 310.008 221.01 314.875 213.036C320.426 204.258 328.395 197.268 337.826 192.913C348.181 187.738 361.125 185.148 376.662 185.144C385.761 185.071 394.852 185.72 403.849 187.087C410.364 187.913 416.733 189.636 422.776 192.206C423.748 192.485 424.531 193.203 424.893 194.149C425.134 195.01 425.251 195.9 425.247 196.797V232.456C425.298 233.299 424.893 234.107 424.188 234.574C423.716 234.809 423.196 234.931 422.669 234.931C422.142 234.931 421.622 234.809 421.149 234.574Z" fill="#31A8FF"/>
</svg>
