<svg width="517" height="515" viewBox="0 0 517 515" fill="none" xmlns="http://www.w3.org/2000/svg">
<path d="M256.944 0.927734C125.992 0.927734 134.168 57.7164 134.168 57.7164L134.313 116.551H259.279V134.215H84.6792C84.6792 134.215 0.882812 124.711 0.882812 256.841C0.882812 388.975 74.0223 384.289 74.0223 384.289H117.672V322.974C117.672 322.974 115.319 249.834 189.644 249.834H313.587C313.587 249.834 383.222 250.959 383.222 182.534V69.3973C383.222 69.3973 393.798 0.927734 256.944 0.927734ZM188.038 40.493C190.991 40.4903 193.916 41.07 196.644 42.1988C199.373 43.3277 201.852 44.9835 203.94 47.0716C206.029 49.1597 207.684 51.6391 208.813 54.3678C209.942 57.0965 210.522 60.0211 210.519 62.9741C210.522 65.9271 209.942 68.8517 208.813 71.5804C207.684 74.3092 206.029 76.7885 203.94 78.8766C201.852 80.9647 199.373 82.6206 196.644 83.7494C193.916 84.8783 190.991 85.4579 188.038 85.4553C185.085 85.4579 182.16 84.8783 179.432 83.7494C176.703 82.6206 174.224 80.9647 172.135 78.8766C170.047 76.7885 168.392 74.3092 167.263 71.5804C166.134 68.8517 165.554 65.9271 165.557 62.9741C165.554 60.0211 166.134 57.0965 167.263 54.3678C168.392 51.6391 170.047 49.1597 172.135 47.0716C174.224 44.9835 176.703 43.3277 179.432 42.1988C182.16 41.07 185.085 40.4903 188.038 40.493Z" fill="#3773A5"/>
<path d="M260.667 514.083C391.619 514.083 383.443 457.294 383.443 457.294L383.297 398.461H258.33V380.797H432.93C432.93 380.797 516.726 390.301 516.726 258.167C516.726 126.035 443.586 130.721 443.586 130.721H399.937V192.034C399.937 192.034 402.29 265.174 327.965 265.174H204.022C204.022 265.174 134.387 264.049 134.387 332.476V445.615C134.387 445.615 123.813 514.083 260.665 514.083M329.571 474.521C326.618 474.524 323.693 473.944 320.965 472.816C318.236 471.687 315.756 470.031 313.668 467.943C311.58 465.855 309.924 463.375 308.796 460.647C307.667 457.918 307.087 454.993 307.09 452.04C307.087 449.087 307.666 446.162 308.795 443.433C309.924 440.704 311.579 438.225 313.668 436.136C315.756 434.048 318.235 432.392 320.964 431.263C323.693 430.134 326.618 429.554 329.571 429.557C332.524 429.554 335.448 430.134 338.177 431.263C340.906 432.392 343.385 434.048 345.473 436.136C347.561 438.224 349.217 440.703 350.346 443.432C351.475 446.161 352.055 449.085 352.052 452.038C352.055 454.991 351.475 457.916 350.346 460.644C349.217 463.373 347.561 465.853 345.473 467.941C343.385 470.029 340.906 471.685 338.177 472.813C335.448 473.942 332.524 474.524 329.571 474.521Z" fill="#FFD94A"/>
</svg>
