<svg width="1232" height="1005" viewBox="0 0 1232 1005" fill="none" xmlns="http://www.w3.org/2000/svg">
<mask id="mask0_605_3487" style="mask-type:alpha" maskUnits="userSpaceOnUse" x="0" y="0" width="1232" height="1005">
<rect width="1232" height="1005" fill="#BEBEBE"/>
</mask>
<g mask="url(#mask0_605_3487)">
<g opacity="0.7">
<mask id="path-2-outside-1_605_3487" maskUnits="userSpaceOnUse" x="0.625" y="0.0107422" width="1313" height="178" fill="black">
<rect fill="white" x="0.625" y="0.0107422" width="1313" height="178"/>
<path d="M4.0121 172.011V6.01611H64.7917C76.8795 6.01611 88.0309 7.71862 98.246 11.1236C108.461 14.5287 116.633 20.2321 122.762 28.2339C129.061 36.2356 132.211 47.2168 132.211 61.1774C132.211 74.6272 129.061 85.6935 122.762 94.3763C116.633 102.889 108.461 109.188 98.246 113.274C88.2012 117.36 77.3902 119.403 65.8132 119.403H47.9368V172.011H4.0121ZM47.9368 84.672H63.7702C72.453 84.672 78.8374 82.629 82.9234 78.543C87.1797 74.2867 89.3078 68.4982 89.3078 61.1774C89.3078 53.6864 87.0094 48.4086 82.4126 45.3441C77.8159 42.2796 71.2612 40.7473 62.7487 40.7473H47.9368V84.672ZM229.356 175.075C214.033 175.075 200.583 171.67 189.006 164.86C177.429 157.88 168.406 147.92 161.936 134.981C155.467 122.042 152.232 106.464 152.232 88.2473C152.232 70.0304 155.467 54.6227 161.936 42.0242C168.406 29.2554 177.429 19.5511 189.006 12.9113C200.583 6.27148 214.033 2.95159 229.356 2.95159C244.678 2.95159 258.128 6.27148 269.705 12.9113C281.282 19.5511 290.306 29.2554 296.775 42.0242C303.245 54.6227 306.479 70.0304 306.479 88.2473C306.479 106.464 303.245 122.042 296.775 134.981C290.306 147.92 281.282 157.88 269.705 164.86C258.128 171.67 244.678 175.075 229.356 175.075ZM229.356 137.28C239.401 137.28 247.232 132.853 252.85 124C258.639 115.147 261.533 103.229 261.533 88.2473C261.533 73.095 258.639 61.4328 252.85 53.2607C247.232 44.9184 239.401 40.7473 229.356 40.7473C219.481 40.7473 211.65 44.9184 205.861 53.2607C200.073 61.4328 197.178 73.095 197.178 88.2473C197.178 103.229 200.073 115.147 205.861 124C211.65 132.853 219.481 137.28 229.356 137.28ZM336.201 172.011V6.01611H399.023C410.941 6.01611 421.922 7.63349 431.967 10.8683C442.012 13.9328 450.099 19.3808 456.228 27.2123C462.357 35.0439 465.421 45.8548 465.421 59.6451C465.421 71.5627 462.953 81.4373 458.015 89.2688C453.078 97.1003 446.609 103.229 438.607 107.656L474.615 172.011H425.583L396.98 116.339H380.126V172.011H336.201ZM380.126 81.6075H395.959C413.665 81.6075 422.518 74.2867 422.518 59.6451C422.518 52.4946 420.22 47.5573 415.623 44.8333C411.196 42.1093 404.642 40.7473 395.959 40.7473H380.126V81.6075ZM523.737 172.011V42.7903H479.812V6.01611H611.586V42.7903H567.662V172.011H523.737ZM636.218 172.011V6.01611H744.498V42.7903H680.143V74.457H735.304V111.231H680.143V172.011H636.218ZM840.613 175.075C825.29 175.075 811.841 171.67 800.264 164.86C788.687 157.88 779.663 147.92 773.194 134.981C766.724 122.042 763.489 106.464 763.489 88.2473C763.489 70.0304 766.724 54.6227 773.194 42.0242C779.663 29.2554 788.687 19.5511 800.264 12.9113C811.841 6.27148 825.29 2.95159 840.613 2.95159C855.936 2.95159 869.385 6.27148 880.962 12.9113C892.54 19.5511 901.563 29.2554 908.032 42.0242C914.502 54.6227 917.737 70.0304 917.737 88.2473C917.737 106.464 914.502 122.042 908.032 134.981C901.563 147.92 892.54 157.88 880.962 164.86C869.385 171.67 855.936 175.075 840.613 175.075ZM840.613 137.28C850.658 137.28 858.489 132.853 864.108 124C869.896 115.147 872.79 103.229 872.79 88.2473C872.79 73.095 869.896 61.4328 864.108 53.2607C858.489 44.9184 850.658 40.7473 840.613 40.7473C830.738 40.7473 822.907 44.9184 817.118 53.2607C811.33 61.4328 808.436 73.095 808.436 88.2473C808.436 103.229 811.33 115.147 817.118 124C822.907 132.853 830.738 137.28 840.613 137.28ZM947.458 172.011V6.01611H991.383V135.237H1054.21V172.011H947.458ZM1082.88 172.011V6.01611H1126.8V172.011H1082.88ZM1233.65 175.075C1218.33 175.075 1204.88 171.67 1193.3 164.86C1181.73 157.88 1172.7 147.92 1166.23 134.981C1159.76 122.042 1156.53 106.464 1156.53 88.2473C1156.53 70.0304 1159.76 54.6227 1166.23 42.0242C1172.7 29.2554 1181.73 19.5511 1193.3 12.9113C1204.88 6.27148 1218.33 2.95159 1233.65 2.95159C1248.98 2.95159 1262.43 6.27148 1274 12.9113C1285.58 19.5511 1294.6 29.2554 1301.07 42.0242C1307.54 54.6227 1310.78 70.0304 1310.78 88.2473C1310.78 106.464 1307.54 122.042 1301.07 134.981C1294.6 147.92 1285.58 157.88 1274 164.86C1262.43 171.67 1248.98 175.075 1233.65 175.075ZM1233.65 137.28C1243.7 137.28 1251.53 132.853 1257.15 124C1262.94 115.147 1265.83 103.229 1265.83 88.2473C1265.83 73.095 1262.94 61.4328 1257.15 53.2607C1251.53 44.9184 1243.7 40.7473 1233.65 40.7473C1223.78 40.7473 1215.95 44.9184 1210.16 53.2607C1204.37 61.4328 1201.48 73.095 1201.48 88.2473C1201.48 103.229 1204.37 115.147 1210.16 124C1215.95 132.853 1223.78 137.28 1233.65 137.28Z"/>
</mask>
<path d="M4.0121 172.011H1.32393V174.699H4.0121V172.011ZM4.0121 6.01611V3.32794H1.32393V6.01611H4.0121ZM98.246 11.1236L99.096 8.57341L99.096 8.57341L98.246 11.1236ZM122.762 28.2339L120.628 29.8685L120.639 29.8826L120.65 29.8967L122.762 28.2339ZM122.762 94.3763L120.586 92.7977L120.581 92.8056L122.762 94.3763ZM98.246 113.274L97.2476 110.778L97.2403 110.781L97.2331 110.784L98.246 113.274ZM47.9368 119.403V116.715H45.2487V119.403H47.9368ZM47.9368 172.011V174.699H50.625V172.011H47.9368ZM47.9368 84.672H45.2487V87.3602H47.9368V84.672ZM82.9234 78.543L81.0226 76.6422L81.0226 76.6422L82.9234 78.543ZM82.4126 45.3441L83.9038 43.1074L83.9038 43.1074L82.4126 45.3441ZM47.9368 40.7473V38.0591H45.2487V40.7473H47.9368ZM6.70027 172.011V6.01611H1.32393V172.011H6.70027ZM4.0121 8.70428H64.7917V3.32794H4.0121V8.70428ZM64.7917 8.70428C76.6256 8.70428 87.4863 10.3707 97.3959 13.6739L99.096 8.57341C88.5755 5.06657 77.1334 3.32794 64.7917 3.32794V8.70428ZM97.3959 13.6739C107.138 16.9211 114.849 22.323 120.628 29.8685L124.896 26.5992C118.418 18.1411 109.784 12.1362 99.096 8.57341L97.3959 13.6739ZM120.65 29.8967C126.459 37.2758 129.523 47.5987 129.523 61.1774H134.899C134.899 46.8349 131.664 35.1955 124.874 26.5711L120.65 29.8967ZM129.523 61.1774C129.523 74.2055 126.476 84.6791 120.586 92.7978L124.938 95.9549C131.647 86.708 134.899 75.0489 134.899 61.1774H129.523ZM120.581 92.8056C114.765 100.883 107.013 106.872 97.2476 110.778L99.2443 115.77C109.909 111.504 118.501 104.895 124.944 95.947L120.581 92.8056ZM97.2331 110.784C87.5312 114.731 77.0667 116.715 65.8132 116.715V122.091C77.7138 122.091 88.8711 119.99 99.2589 115.764L97.2331 110.784ZM65.8132 116.715H47.9368V122.091H65.8132V116.715ZM45.2487 119.403V172.011H50.625V119.403H45.2487ZM47.9368 169.323H4.0121V174.699H47.9368V169.323ZM47.9368 87.3602H63.7702V81.9839H47.9368V87.3602ZM63.7702 87.3602C72.8121 87.3602 80.0294 85.2386 84.8242 80.4438L81.0226 76.6422C77.6453 80.0194 72.0939 81.9839 63.7702 81.9839V87.3602ZM84.8242 80.4438C89.69 75.578 91.996 69.0468 91.996 61.1774H86.6196C86.6196 67.9495 84.6693 72.9954 81.0226 76.6422L84.8242 80.4438ZM91.996 61.1774C91.996 53.1399 89.5004 46.8385 83.9038 43.1074L80.9215 47.5808C84.5184 49.9787 86.6196 54.2328 86.6196 61.1774H91.996ZM83.9038 43.1074C78.6863 39.6291 71.5255 38.0591 62.7487 38.0591V43.4355C70.997 43.4355 76.9454 44.93 80.9215 47.5808L83.9038 43.1074ZM62.7487 38.0591H47.9368V43.4355H62.7487V38.0591ZM45.2487 40.7473V84.672H50.625V40.7473H45.2487ZM189.006 164.86L187.618 167.162L187.631 167.17L187.643 167.177L189.006 164.86ZM161.936 134.981L159.532 136.183L159.532 136.183L161.936 134.981ZM161.936 42.0242L164.328 43.2522L164.331 43.2457L164.334 43.2391L161.936 42.0242ZM189.006 12.9113L190.344 15.2431L190.344 15.2431L189.006 12.9113ZM269.705 12.9113L268.368 15.2431L268.368 15.2431L269.705 12.9113ZM296.775 42.0242L294.377 43.2391L294.381 43.2457L294.384 43.2522L296.775 42.0242ZM296.775 134.981L294.371 133.779L296.775 134.981ZM269.705 164.86L271.068 167.177L271.081 167.17L271.093 167.162L269.705 164.86ZM252.85 124L250.601 122.529L250.591 122.544L250.581 122.56L252.85 124ZM252.85 53.2607L250.621 54.7623L250.638 54.7887L250.657 54.8145L252.85 53.2607ZM205.861 53.2607L208.055 54.8145L208.062 54.8039L208.07 54.7932L205.861 53.2607ZM205.861 124L203.611 125.471L203.611 125.471L205.861 124ZM229.356 172.387C214.444 172.387 201.478 169.078 190.369 162.543L187.643 167.177C199.689 174.263 213.623 177.763 229.356 177.763V172.387ZM190.394 162.558C179.284 155.859 170.599 146.296 164.341 133.779L159.532 136.183C166.213 149.545 175.574 159.9 187.618 167.162L190.394 162.558ZM164.341 133.779C158.1 121.297 154.92 106.152 154.92 88.2473H149.544C149.544 106.776 152.834 122.787 159.532 136.183L164.341 133.779ZM154.92 88.2473C154.92 70.339 158.101 55.3777 164.328 43.2522L159.545 40.7962C152.833 53.8677 149.544 69.7219 149.544 88.2473H154.92ZM164.334 43.2391C170.585 30.9026 179.255 21.6029 190.344 15.2431L187.669 10.5794C175.604 17.4992 166.227 27.6082 159.538 40.8092L164.334 43.2391ZM190.344 15.2431C201.457 8.86954 214.432 5.63976 229.356 5.63976V0.263416C213.634 0.263416 199.71 3.67343 187.669 10.5794L190.344 15.2431ZM229.356 5.63976C244.28 5.63976 257.255 8.86954 268.368 15.2431L271.043 10.5794C259.001 3.67343 245.077 0.263416 229.356 0.263416V5.63976ZM268.368 15.2431C279.457 21.6029 288.127 30.9026 294.377 43.2391L299.173 40.8092C292.485 27.6082 283.108 17.4992 271.043 10.5794L268.368 15.2431ZM294.384 43.2522C300.61 55.3777 303.791 70.339 303.791 88.2473H309.168C309.168 69.7219 305.879 53.8677 299.166 40.7962L294.384 43.2522ZM303.791 88.2473C303.791 106.152 300.612 121.297 294.371 133.779L299.18 136.183C305.878 122.787 309.168 106.776 309.168 88.2473H303.791ZM294.371 133.779C288.112 146.296 279.427 155.859 268.317 162.558L271.093 167.162C283.137 159.9 292.499 149.545 299.18 136.183L294.371 133.779ZM268.342 162.543C257.234 169.078 244.268 172.387 229.356 172.387V177.763C245.089 177.763 259.023 174.263 271.068 167.177L268.342 162.543ZM229.356 139.968C240.369 139.968 249.035 135.029 255.12 125.44L250.581 122.56C245.429 130.677 238.433 134.591 229.356 134.591V139.968ZM255.1 125.471C261.271 116.034 264.221 103.544 264.221 88.2473H258.845C258.845 102.915 256.007 114.26 250.601 122.529L255.1 125.471ZM264.221 88.2473C264.221 72.8071 261.281 60.5119 255.044 51.7069L250.657 54.8145C255.997 62.3536 258.845 73.3828 258.845 88.2473H264.221ZM255.08 51.7591C248.963 42.6762 240.296 38.0591 229.356 38.0591V43.4355C238.505 43.4355 245.501 47.1607 250.621 54.7623L255.08 51.7591ZM229.356 38.0591C218.571 38.0591 209.926 42.6865 203.653 51.7283L208.07 54.7932C213.373 47.1504 220.392 43.4355 229.356 43.4355V38.0591ZM203.668 51.7069C197.431 60.5119 194.49 72.8071 194.49 88.2473H199.867C199.867 73.3828 202.715 62.3536 208.055 54.8145L203.668 51.7069ZM194.49 88.2473C194.49 103.544 197.441 116.034 203.611 125.471L208.111 122.529C202.704 114.26 199.867 102.915 199.867 88.2473H194.49ZM203.611 125.471C209.854 135.019 218.499 139.968 229.356 139.968V134.591C220.463 134.591 213.445 130.687 208.111 122.529L203.611 125.471ZM336.201 172.011H333.513V174.699H336.201V172.011ZM336.201 6.01611V3.32794H333.513V6.01611H336.201ZM431.967 10.8683L431.143 13.427L431.163 13.4334L431.183 13.4394L431.967 10.8683ZM456.228 27.2123L458.345 25.5556L458.345 25.5556L456.228 27.2123ZM458.015 89.2688L460.289 90.7024L460.289 90.7024L458.015 89.2688ZM438.607 107.656L437.306 105.304L434.942 106.611L436.261 108.969L438.607 107.656ZM474.615 172.011V174.699H479.199L476.961 170.698L474.615 172.011ZM425.583 172.011L423.192 173.239L423.941 174.699H425.583V172.011ZM396.98 116.339L399.372 115.11L398.622 113.651H396.98V116.339ZM380.126 116.339V113.651H377.437V116.339H380.126ZM380.126 172.011V174.699H382.814V172.011H380.126ZM380.126 81.6075H377.437V84.2957H380.126V81.6075ZM415.623 44.8333L414.214 47.1227L414.233 47.1345L414.252 47.1459L415.623 44.8333ZM380.126 40.7473V38.0591H377.437V40.7473H380.126ZM338.889 172.011V6.01611H333.513V172.011H338.889ZM336.201 8.70428H399.023V3.32794H336.201V8.70428ZM399.023 8.70428C410.697 8.70428 421.396 10.2883 431.143 13.427L432.791 8.30949C422.448 4.9787 411.185 3.32794 399.023 3.32794V8.70428ZM431.183 13.4394C440.731 16.3526 448.341 21.4969 454.111 28.8691L458.345 25.5556C451.856 17.2647 443.292 11.513 432.751 8.29708L431.183 13.4394ZM454.111 28.8691C459.75 36.0746 462.733 46.2268 462.733 59.6451H468.109C468.109 45.4829 464.964 34.0131 458.345 25.5556L454.111 28.8691ZM462.733 59.6451C462.733 71.1991 460.34 80.5401 455.741 87.8352L460.289 90.7024C465.565 82.3344 468.109 71.9263 468.109 59.6451H462.733ZM455.741 87.8352C451.043 95.2884 444.906 101.099 437.306 105.304L439.908 110.008C448.311 105.359 455.114 98.9123 460.289 90.7024L455.741 87.8352ZM436.261 108.969L472.269 173.323L476.961 170.698L440.953 106.343L436.261 108.969ZM474.615 169.323H425.583V174.699H474.615V169.323ZM427.974 170.782L399.372 115.11L394.589 117.567L423.192 173.239L427.974 170.782ZM396.98 113.651H380.126V119.027H396.98V113.651ZM377.437 116.339V172.011H382.814V116.339H377.437ZM380.126 169.323H336.201V174.699H380.126V169.323ZM380.126 84.2957H395.959V78.9193H380.126V84.2957ZM395.959 84.2957C405.115 84.2957 412.482 82.4133 417.591 78.1886C422.798 73.8829 425.206 67.5291 425.206 59.6451H419.83C419.83 66.4028 417.811 71.0301 414.165 74.0453C410.421 77.1414 404.509 78.9193 395.959 78.9193V84.2957ZM425.206 59.6451C425.206 51.9085 422.677 45.8891 416.993 42.5207L414.252 47.1459C417.762 49.2256 419.83 53.0808 419.83 59.6451H425.206ZM417.032 42.5439C411.985 39.4381 404.842 38.0591 395.959 38.0591V43.4355C404.441 43.4355 410.408 44.7805 414.214 47.1227L417.032 42.5439ZM395.959 38.0591H380.126V43.4355H395.959V38.0591ZM377.437 40.7473V81.6075H382.814V40.7473H377.437ZM523.737 172.011H521.049V174.699H523.737V172.011ZM523.737 42.7903H526.425V40.1021H523.737V42.7903ZM479.812 42.7903H477.124V45.4785H479.812V42.7903ZM479.812 6.01611V3.32794H477.124V6.01611H479.812ZM611.586 6.01611H614.275V3.32794H611.586V6.01611ZM611.586 42.7903V45.4785H614.275V42.7903H611.586ZM567.662 42.7903V40.1021H564.973V42.7903H567.662ZM567.662 172.011V174.699H570.35V172.011H567.662ZM526.425 172.011V42.7903H521.049V172.011H526.425ZM523.737 40.1021H479.812V45.4785H523.737V40.1021ZM482.5 42.7903V6.01611H477.124V42.7903H482.5ZM479.812 8.70428H611.586V3.32794H479.812V8.70428ZM608.898 6.01611V42.7903H614.275V6.01611H608.898ZM611.586 40.1021H567.662V45.4785H611.586V40.1021ZM564.973 42.7903V172.011H570.35V42.7903H564.973ZM567.662 169.323H523.737V174.699H567.662V169.323ZM636.218 172.011H633.53V174.699H636.218V172.011ZM636.218 6.01611V3.32794H633.53V6.01611H636.218ZM744.498 6.01611H747.186V3.32794H744.498V6.01611ZM744.498 42.7903V45.4785H747.186V42.7903H744.498ZM680.143 42.7903V40.1021H677.455V42.7903H680.143ZM680.143 74.457H677.455V77.1451H680.143V74.457ZM735.304 74.457H737.992V71.7688H735.304V74.457ZM735.304 111.231V113.919H737.992V111.231H735.304ZM680.143 111.231V108.543H677.455V111.231H680.143ZM680.143 172.011V174.699H682.831V172.011H680.143ZM638.906 172.011V6.01611H633.53V172.011H638.906ZM636.218 8.70428H744.498V3.32794H636.218V8.70428ZM741.81 6.01611V42.7903H747.186V6.01611H741.81ZM744.498 40.1021H680.143V45.4785H744.498V40.1021ZM677.455 42.7903V74.457H682.831V42.7903H677.455ZM680.143 77.1451H735.304V71.7688H680.143V77.1451ZM732.616 74.457V111.231H737.992V74.457H732.616ZM735.304 108.543H680.143V113.919H735.304V108.543ZM677.455 111.231V172.011H682.831V111.231H677.455ZM680.143 169.323H636.218V174.699H680.143V169.323ZM800.264 164.86L798.876 167.162L798.888 167.17L798.901 167.177L800.264 164.86ZM773.194 134.981L770.789 136.183L770.789 136.183L773.194 134.981ZM773.194 42.0242L775.585 43.2522L775.588 43.2457L775.592 43.2391L773.194 42.0242ZM800.264 12.9113L801.601 15.2431L801.601 15.2431L800.264 12.9113ZM880.962 12.9113L879.625 15.2431L879.625 15.2431L880.962 12.9113ZM908.032 42.0242L905.634 43.2391L905.638 43.2457L905.641 43.2522L908.032 42.0242ZM908.032 134.981L905.628 133.779L908.032 134.981ZM880.962 164.86L882.325 167.177L882.338 167.17L882.351 167.162L880.962 164.86ZM864.108 124L861.858 122.529L861.848 122.544L861.838 122.56L864.108 124ZM864.108 53.2607L861.878 54.7623L861.896 54.7887L861.914 54.8145L864.108 53.2607ZM817.118 53.2607L819.312 54.8145L819.32 54.8039L819.327 54.7932L817.118 53.2607ZM817.118 124L814.868 125.471L814.868 125.471L817.118 124ZM840.613 172.387C825.701 172.387 812.735 169.078 801.627 162.543L798.901 167.177C810.946 174.263 824.88 177.763 840.613 177.763V172.387ZM801.652 162.558C790.542 155.859 781.856 146.296 775.598 133.779L770.789 136.183C777.47 149.545 786.831 159.9 798.876 167.162L801.652 162.558ZM775.598 133.779C769.357 121.297 766.178 106.152 766.178 88.2473H760.801C760.801 106.776 764.091 122.787 770.789 136.183L775.598 133.779ZM766.178 88.2473C766.178 70.339 769.358 55.3777 775.585 43.2522L770.802 40.7962C764.09 53.8677 760.801 69.7219 760.801 88.2473H766.178ZM775.592 43.2391C781.842 30.9026 790.512 21.6029 801.601 15.2431L798.926 10.5794C786.861 17.4992 777.484 27.6082 770.796 40.8092L775.592 43.2391ZM801.601 15.2431C812.714 8.86954 825.689 5.63976 840.613 5.63976V0.263416C824.892 0.263416 810.967 3.67343 798.926 10.5794L801.601 15.2431ZM840.613 5.63976C855.537 5.63976 868.512 8.86954 879.625 15.2431L882.3 10.5794C870.259 3.67343 856.334 0.263416 840.613 0.263416V5.63976ZM879.625 15.2431C890.714 21.6029 899.384 30.9026 905.634 43.2391L910.43 40.8092C903.742 27.6082 894.365 17.4992 882.3 10.5794L879.625 15.2431ZM905.641 43.2522C911.868 55.3777 915.049 70.339 915.049 88.2473H920.425C920.425 69.7219 917.136 53.8677 910.424 40.7962L905.641 43.2522ZM915.049 88.2473C915.049 106.152 911.869 121.297 905.628 133.779L910.437 136.183C917.135 122.787 920.425 106.776 920.425 88.2473H915.049ZM905.628 133.779C899.37 146.296 890.685 155.859 879.574 162.558L882.351 167.162C894.395 159.9 903.756 149.545 910.437 136.183L905.628 133.779ZM879.6 162.543C868.491 169.078 855.525 172.387 840.613 172.387V177.763C856.346 177.763 870.28 174.263 882.325 167.177L879.6 162.543ZM840.613 139.968C851.626 139.968 860.292 135.029 866.377 125.44L861.838 122.56C856.687 130.677 849.69 134.591 840.613 134.591V139.968ZM866.358 125.471C872.528 116.034 875.479 103.544 875.479 88.2473H870.102C870.102 102.915 867.264 114.26 861.858 122.529L866.358 125.471ZM875.479 88.2473C875.479 72.8071 872.538 60.5119 866.301 51.7069L861.914 54.8145C867.254 62.3536 870.102 73.3828 870.102 88.2473H875.479ZM866.337 51.7591C860.22 42.6762 851.554 38.0591 840.613 38.0591V43.4355C849.762 43.4355 856.758 47.1607 861.878 54.7623L866.337 51.7591ZM840.613 38.0591C829.828 38.0591 821.184 42.6865 814.91 51.7283L819.327 54.7932C824.63 47.1504 831.649 43.4355 840.613 43.4355V38.0591ZM814.925 51.7069C808.688 60.5119 805.747 72.8071 805.747 88.2473H811.124C811.124 73.3828 813.972 62.3536 819.312 54.8145L814.925 51.7069ZM805.747 88.2473C805.747 103.544 808.698 116.034 814.868 125.471L819.368 122.529C813.962 114.26 811.124 102.915 811.124 88.2473H805.747ZM814.868 125.471C821.111 135.019 829.757 139.968 840.613 139.968V134.591C831.72 134.591 824.702 130.687 819.368 122.529L814.868 125.471ZM947.458 172.011H944.77V174.699H947.458V172.011ZM947.458 6.01611V3.32794H944.77V6.01611H947.458ZM991.383 6.01611H994.071V3.32794H991.383V6.01611ZM991.383 135.237H988.695V137.925H991.383V135.237ZM1054.21 135.237H1056.89V132.548H1054.21V135.237ZM1054.21 172.011V174.699H1056.89V172.011H1054.21ZM950.146 172.011V6.01611H944.77V172.011H950.146ZM947.458 8.70428H991.383V3.32794H947.458V8.70428ZM988.695 6.01611V135.237H994.071V6.01611H988.695ZM991.383 137.925H1054.21V132.548H991.383V137.925ZM1051.52 135.237V172.011H1056.89V135.237H1051.52ZM1054.21 169.323H947.458V174.699H1054.21V169.323ZM1082.88 172.011H1080.19V174.699H1082.88V172.011ZM1082.88 6.01611V3.32794H1080.19V6.01611H1082.88ZM1126.8 6.01611H1129.49V3.32794H1126.8V6.01611ZM1126.8 172.011V174.699H1129.49V172.011H1126.8ZM1085.57 172.011V6.01611H1080.19V172.011H1085.57ZM1082.88 8.70428H1126.8V3.32794H1082.88V8.70428ZM1124.11 6.01611V172.011H1129.49V6.01611H1124.11ZM1126.8 169.323H1082.88V174.699H1126.8V169.323ZM1193.3 164.86L1191.92 167.162L1191.93 167.17L1191.94 167.177L1193.3 164.86ZM1166.23 134.981L1163.83 136.183L1163.83 136.183L1166.23 134.981ZM1166.23 42.0242L1168.63 43.2522L1168.63 43.2457L1168.63 43.2391L1166.23 42.0242ZM1193.3 12.9113L1194.64 15.2431L1194.64 15.2431L1193.3 12.9113ZM1274 12.9113L1272.67 15.2431L1272.67 15.2431L1274 12.9113ZM1301.07 42.0242L1298.67 43.2391L1298.68 43.2457L1298.68 43.2522L1301.07 42.0242ZM1301.07 134.981L1298.67 133.779L1301.07 134.981ZM1274 164.86L1275.37 167.177L1275.38 167.17L1275.39 167.162L1274 164.86ZM1257.15 124L1254.9 122.529L1254.89 122.544L1254.88 122.56L1257.15 124ZM1257.15 53.2607L1254.92 54.7623L1254.94 54.7887L1254.95 54.8145L1257.15 53.2607ZM1210.16 53.2607L1212.35 54.8145L1212.36 54.8039L1212.37 54.7932L1210.16 53.2607ZM1210.16 124L1207.91 125.471L1207.91 125.471L1210.16 124ZM1233.65 172.387C1218.74 172.387 1205.78 169.078 1194.67 162.543L1191.94 167.177C1203.99 174.263 1217.92 177.763 1233.65 177.763V172.387ZM1194.69 162.558C1183.58 155.859 1174.9 146.296 1168.64 133.779L1163.83 136.183C1170.51 149.545 1179.87 159.9 1191.92 167.162L1194.69 162.558ZM1168.64 133.779C1162.4 121.297 1159.22 106.152 1159.22 88.2473H1153.84C1153.84 106.776 1157.13 122.787 1163.83 136.183L1168.64 133.779ZM1159.22 88.2473C1159.22 70.339 1162.4 55.3777 1168.63 43.2522L1163.84 40.7962C1157.13 53.8677 1153.84 69.7219 1153.84 88.2473H1159.22ZM1168.63 43.2391C1174.88 30.9026 1183.55 21.6029 1194.64 15.2431L1191.97 10.5794C1179.9 17.4992 1170.52 27.6082 1163.84 40.8092L1168.63 43.2391ZM1194.64 15.2431C1205.75 8.86954 1218.73 5.63976 1233.65 5.63976V0.263416C1217.93 0.263416 1204.01 3.67343 1191.97 10.5794L1194.64 15.2431ZM1233.65 5.63976C1248.58 5.63976 1261.55 8.86954 1272.67 15.2431L1275.34 10.5794C1263.3 3.67343 1249.37 0.263416 1233.65 0.263416V5.63976ZM1272.67 15.2431C1283.75 21.6029 1292.42 30.9026 1298.67 43.2391L1303.47 40.8092C1296.78 27.6082 1287.41 17.4992 1275.34 10.5794L1272.67 15.2431ZM1298.68 43.2522C1304.91 55.3777 1308.09 70.339 1308.09 88.2473H1313.47C1313.47 69.7219 1310.18 53.8677 1303.46 40.7962L1298.68 43.2522ZM1308.09 88.2473C1308.09 106.152 1304.91 121.297 1298.67 133.779L1303.48 136.183C1310.18 122.787 1313.47 106.776 1313.47 88.2473H1308.09ZM1298.67 133.779C1292.41 146.296 1283.72 155.859 1272.61 162.558L1275.39 167.162C1287.43 159.9 1296.8 149.545 1303.48 136.183L1298.67 133.779ZM1272.64 162.543C1261.53 169.078 1248.57 172.387 1233.65 172.387V177.763C1249.39 177.763 1263.32 174.263 1275.37 167.177L1272.64 162.543ZM1233.65 139.968C1244.67 139.968 1253.33 135.029 1259.42 125.44L1254.88 122.56C1249.73 130.677 1242.73 134.591 1233.65 134.591V139.968ZM1259.4 125.471C1265.57 116.034 1268.52 103.544 1268.52 88.2473H1263.14C1263.14 102.915 1260.3 114.26 1254.9 122.529L1259.4 125.471ZM1268.52 88.2473C1268.52 72.8071 1265.58 60.5119 1259.34 51.7069L1254.95 54.8145C1260.29 62.3536 1263.14 73.3828 1263.14 88.2473H1268.52ZM1259.38 51.7591C1253.26 42.6762 1244.59 38.0591 1233.65 38.0591V43.4355C1242.8 43.4355 1249.8 47.1607 1254.92 54.7623L1259.38 51.7591ZM1233.65 38.0591C1222.87 38.0591 1214.22 42.6865 1207.95 51.7283L1212.37 54.7932C1217.67 47.1504 1224.69 43.4355 1233.65 43.4355V38.0591ZM1207.96 51.7069C1201.73 60.5119 1198.79 72.8071 1198.79 88.2473H1204.16C1204.16 73.3828 1207.01 62.3536 1212.35 54.8145L1207.96 51.7069ZM1198.79 88.2473C1198.79 103.544 1201.74 116.034 1207.91 125.471L1212.41 122.529C1207 114.26 1204.16 102.915 1204.16 88.2473H1198.79ZM1207.91 125.471C1214.15 135.019 1222.8 139.968 1233.65 139.968V134.591C1224.76 134.591 1217.74 130.687 1212.41 122.529L1207.91 125.471Z" fill="white" fill-opacity="0.1" mask="url(#path-2-outside-1_605_3487)"/>
<mask id="path-4-outside-2_605_3487" maskUnits="userSpaceOnUse" x="0.625" y="272.86" width="1313" height="178" fill="black">
<rect fill="white" x="0.625" y="272.86" width="1313" height="178"/>
<path d="M4.0121 444.86V278.866H64.7917C76.8795 278.866 88.0309 280.568 98.246 283.973C108.461 287.378 116.633 293.082 122.762 301.083C129.061 309.085 132.211 320.066 132.211 334.027C132.211 347.477 129.061 358.543 122.762 367.226C116.633 375.738 108.461 382.038 98.246 386.124C88.2012 390.21 77.3902 392.253 65.8132 392.253H47.9368V444.86H4.0121ZM47.9368 357.522H63.7702C72.453 357.522 78.8374 355.479 82.9234 351.392C87.1797 347.136 89.3078 341.348 89.3078 334.027C89.3078 326.536 87.0094 321.258 82.4126 318.194C77.8159 315.129 71.2612 313.597 62.7487 313.597H47.9368V357.522ZM229.356 447.925C214.033 447.925 200.583 444.52 189.006 437.71C177.429 430.729 168.406 420.77 161.936 407.831C155.467 394.892 152.232 379.314 152.232 361.097C152.232 342.88 155.467 327.472 161.936 314.874C168.406 302.105 177.429 292.401 189.006 285.761C200.583 279.121 214.033 275.801 229.356 275.801C244.678 275.801 258.128 279.121 269.705 285.761C281.282 292.401 290.306 302.105 296.775 314.874C303.245 327.472 306.479 342.88 306.479 361.097C306.479 379.314 303.245 394.892 296.775 407.831C290.306 420.77 281.282 430.729 269.705 437.71C258.128 444.52 244.678 447.925 229.356 447.925ZM229.356 410.129C239.401 410.129 247.232 405.703 252.85 396.849C258.639 387.996 261.533 376.079 261.533 361.097C261.533 345.944 258.639 334.282 252.85 326.11C247.232 317.768 239.401 313.597 229.356 313.597C219.481 313.597 211.65 317.768 205.861 326.11C200.073 334.282 197.178 345.944 197.178 361.097C197.178 376.079 200.073 387.996 205.861 396.849C211.65 405.703 219.481 410.129 229.356 410.129ZM336.201 444.86V278.866H399.023C410.941 278.866 421.922 280.483 431.967 283.718C442.012 286.782 450.099 292.23 456.228 300.062C462.357 307.893 465.421 318.704 465.421 332.495C465.421 344.412 462.953 354.287 458.015 362.118C453.078 369.95 446.609 376.079 438.607 380.505L474.615 444.86H425.583L396.98 389.188H380.126V444.86H336.201ZM380.126 354.457H395.959C413.665 354.457 422.518 347.136 422.518 332.495C422.518 325.344 420.22 320.407 415.623 317.683C411.196 314.959 404.642 313.597 395.959 313.597H380.126V354.457ZM523.737 444.86V315.64H479.812V278.866H611.586V315.64H567.662V444.86H523.737ZM636.218 444.86V278.866H744.498V315.64H680.143V347.306H735.304V384.081H680.143V444.86H636.218ZM840.613 447.925C825.29 447.925 811.841 444.52 800.264 437.71C788.687 430.729 779.663 420.77 773.194 407.831C766.724 394.892 763.489 379.314 763.489 361.097C763.489 342.88 766.724 327.472 773.194 314.874C779.663 302.105 788.687 292.401 800.264 285.761C811.841 279.121 825.29 275.801 840.613 275.801C855.936 275.801 869.385 279.121 880.962 285.761C892.54 292.401 901.563 302.105 908.032 314.874C914.502 327.472 917.737 342.88 917.737 361.097C917.737 379.314 914.502 394.892 908.032 407.831C901.563 420.77 892.54 430.729 880.962 437.71C869.385 444.52 855.936 447.925 840.613 447.925ZM840.613 410.129C850.658 410.129 858.489 405.703 864.108 396.849C869.896 387.996 872.79 376.079 872.79 361.097C872.79 345.944 869.896 334.282 864.108 326.11C858.489 317.768 850.658 313.597 840.613 313.597C830.738 313.597 822.907 317.768 817.118 326.11C811.33 334.282 808.436 345.944 808.436 361.097C808.436 376.079 811.33 387.996 817.118 396.849C822.907 405.703 830.738 410.129 840.613 410.129ZM947.458 444.86V278.866H991.383V408.086H1054.21V444.86H947.458ZM1082.88 444.86V278.866H1126.8V444.86H1082.88ZM1233.65 447.925C1218.33 447.925 1204.88 444.52 1193.3 437.71C1181.73 430.729 1172.7 420.77 1166.23 407.831C1159.76 394.892 1156.53 379.314 1156.53 361.097C1156.53 342.88 1159.76 327.472 1166.23 314.874C1172.7 302.105 1181.73 292.401 1193.3 285.761C1204.88 279.121 1218.33 275.801 1233.65 275.801C1248.98 275.801 1262.43 279.121 1274 285.761C1285.58 292.401 1294.6 302.105 1301.07 314.874C1307.54 327.472 1310.78 342.88 1310.78 361.097C1310.78 379.314 1307.54 394.892 1301.07 407.831C1294.6 420.77 1285.58 430.729 1274 437.71C1262.43 444.52 1248.98 447.925 1233.65 447.925ZM1233.65 410.129C1243.7 410.129 1251.53 405.703 1257.15 396.849C1262.94 387.996 1265.83 376.079 1265.83 361.097C1265.83 345.944 1262.94 334.282 1257.15 326.11C1251.53 317.768 1243.7 313.597 1233.65 313.597C1223.78 313.597 1215.95 317.768 1210.16 326.11C1204.37 334.282 1201.48 345.944 1201.48 361.097C1201.48 376.079 1204.37 387.996 1210.16 396.849C1215.95 405.703 1223.78 410.129 1233.65 410.129Z"/>
</mask>
<path d="M4.0121 444.86H1.32393V447.548H4.0121V444.86ZM4.0121 278.866V276.177H1.32393V278.866H4.0121ZM98.246 283.973L99.096 281.423L99.096 281.423L98.246 283.973ZM122.762 301.083L120.628 302.718L120.639 302.732L120.65 302.746L122.762 301.083ZM122.762 367.226L120.586 365.647L120.581 365.655L122.762 367.226ZM98.246 386.124L97.2476 383.628L97.2403 383.631L97.2331 383.634L98.246 386.124ZM47.9368 392.253V389.565H45.2487V392.253H47.9368ZM47.9368 444.86V447.548H50.625V444.86H47.9368ZM47.9368 357.522H45.2487V360.21H47.9368V357.522ZM82.9234 351.392L81.0226 349.492L81.0226 349.492L82.9234 351.392ZM82.4126 318.194L83.9038 315.957L83.9038 315.957L82.4126 318.194ZM47.9368 313.597V310.909H45.2487V313.597H47.9368ZM6.70027 444.86V278.866H1.32393V444.86H6.70027ZM4.0121 281.554H64.7917V276.177H4.0121V281.554ZM64.7917 281.554C76.6256 281.554 87.4863 283.22 97.3959 286.523L99.096 281.423C88.5755 277.916 77.1334 276.177 64.7917 276.177V281.554ZM97.3959 286.523C107.138 289.771 114.849 295.173 120.628 302.718L124.896 299.449C118.418 290.991 109.784 284.986 99.096 281.423L97.3959 286.523ZM120.65 302.746C126.459 310.125 129.523 320.448 129.523 334.027H134.899C134.899 319.684 131.664 308.045 124.874 299.421L120.65 302.746ZM129.523 334.027C129.523 347.055 126.476 357.529 120.586 365.647L124.938 368.804C131.647 359.557 134.899 347.898 134.899 334.027H129.523ZM120.581 365.655C114.765 373.732 107.013 379.722 97.2476 383.628L99.2443 388.62C109.909 384.354 118.501 377.744 124.944 368.797L120.581 365.655ZM97.2331 383.634C87.5312 387.58 77.0667 389.565 65.8132 389.565V394.941C77.7138 394.941 88.8711 392.839 99.2589 388.614L97.2331 383.634ZM65.8132 389.565H47.9368V394.941H65.8132V389.565ZM45.2487 392.253V444.86H50.625V392.253H45.2487ZM47.9368 442.172H4.0121V447.548H47.9368V442.172ZM47.9368 360.21H63.7702V354.833H47.9368V360.21ZM63.7702 360.21C72.8121 360.21 80.0294 358.088 84.8242 353.293L81.0226 349.492C77.6453 352.869 72.0939 354.833 63.7702 354.833V360.21ZM84.8242 353.293C89.69 348.428 91.996 341.896 91.996 334.027H86.6196C86.6196 340.799 84.6693 345.845 81.0226 349.492L84.8242 353.293ZM91.996 334.027C91.996 325.989 89.5004 319.688 83.9038 315.957L80.9215 320.43C84.5184 322.828 86.6196 327.082 86.6196 334.027H91.996ZM83.9038 315.957C78.6863 312.479 71.5255 310.909 62.7487 310.909V316.285C70.997 316.285 76.9454 317.78 80.9215 320.43L83.9038 315.957ZM62.7487 310.909H47.9368V316.285H62.7487V310.909ZM45.2487 313.597V357.522H50.625V313.597H45.2487ZM189.006 437.71L187.618 440.012L187.631 440.019L187.643 440.027L189.006 437.71ZM161.936 407.831L159.532 409.033L159.532 409.033L161.936 407.831ZM161.936 314.874L164.328 316.102L164.331 316.095L164.334 316.089L161.936 314.874ZM189.006 285.761L190.344 288.093L190.344 288.093L189.006 285.761ZM269.705 285.761L268.368 288.093L268.368 288.093L269.705 285.761ZM296.775 314.874L294.377 316.089L294.381 316.095L294.384 316.102L296.775 314.874ZM296.775 407.831L294.371 406.628L296.775 407.831ZM269.705 437.71L271.068 440.027L271.081 440.019L271.093 440.012L269.705 437.71ZM252.85 396.849L250.601 395.378L250.591 395.394L250.581 395.409L252.85 396.849ZM252.85 326.11L250.621 327.612L250.638 327.638L250.657 327.664L252.85 326.11ZM205.861 326.11L208.055 327.664L208.062 327.653L208.07 327.643L205.861 326.11ZM205.861 396.849L203.611 398.321L203.611 398.321L205.861 396.849ZM229.356 445.237C214.444 445.237 201.478 441.927 190.369 435.393L187.643 440.027C199.689 447.112 213.623 450.613 229.356 450.613V445.237ZM190.394 435.408C179.284 428.709 170.599 419.145 164.341 406.628L159.532 409.033C166.213 422.394 175.574 432.75 187.618 440.012L190.394 435.408ZM164.341 406.628C158.1 394.147 154.92 379.002 154.92 361.097H149.544C149.544 379.626 152.834 395.636 159.532 409.033L164.341 406.628ZM154.92 361.097C154.92 343.188 158.101 328.227 164.328 316.102L159.545 313.646C152.833 326.717 149.544 342.571 149.544 361.097H154.92ZM164.334 316.089C170.585 303.752 179.255 294.452 190.344 288.093L187.669 283.429C175.604 290.349 166.227 300.458 159.538 313.659L164.334 316.089ZM190.344 288.093C201.457 281.719 214.432 278.489 229.356 278.489V273.113C213.634 273.113 199.71 276.523 187.669 283.429L190.344 288.093ZM229.356 278.489C244.28 278.489 257.255 281.719 268.368 288.093L271.043 283.429C259.001 276.523 245.077 273.113 229.356 273.113V278.489ZM268.368 288.093C279.457 294.452 288.127 303.752 294.377 316.089L299.173 313.659C292.485 300.458 283.108 290.349 271.043 283.429L268.368 288.093ZM294.384 316.102C300.61 328.227 303.791 343.188 303.791 361.097H309.168C309.168 342.571 305.879 326.717 299.166 313.646L294.384 316.102ZM303.791 361.097C303.791 379.002 300.612 394.147 294.371 406.628L299.18 409.033C305.878 395.636 309.168 379.626 309.168 361.097H303.791ZM294.371 406.628C288.112 419.145 279.427 428.709 268.317 435.408L271.093 440.012C283.137 432.75 292.499 422.394 299.18 409.033L294.371 406.628ZM268.342 435.393C257.234 441.927 244.268 445.237 229.356 445.237V450.613C245.089 450.613 259.023 447.112 271.068 440.027L268.342 435.393ZM229.356 412.817C240.369 412.817 249.035 407.879 255.12 398.29L250.581 395.409C245.429 403.526 238.433 407.441 229.356 407.441V412.817ZM255.1 398.321C261.271 388.884 264.221 376.393 264.221 361.097H258.845C258.845 375.765 256.007 387.109 250.601 395.378L255.1 398.321ZM264.221 361.097C264.221 345.657 261.281 333.361 255.044 324.556L250.657 327.664C255.997 335.203 258.845 346.232 258.845 361.097H264.221ZM255.08 324.609C248.963 315.526 240.296 310.909 229.356 310.909V316.285C238.505 316.285 245.501 320.01 250.621 327.612L255.08 324.609ZM229.356 310.909C218.571 310.909 209.926 315.536 203.653 324.578L208.07 327.643C213.373 320 220.392 316.285 229.356 316.285V310.909ZM203.668 324.556C197.431 333.361 194.49 345.657 194.49 361.097H199.867C199.867 346.232 202.715 335.203 208.055 327.664L203.668 324.556ZM194.49 361.097C194.49 376.393 197.441 388.884 203.611 398.321L208.111 395.378C202.704 387.109 199.867 375.765 199.867 361.097H194.49ZM203.611 398.321C209.854 407.869 218.499 412.817 229.356 412.817V407.441C220.463 407.441 213.445 403.537 208.111 395.378L203.611 398.321ZM336.201 444.86H333.513V447.548H336.201V444.86ZM336.201 278.866V276.177H333.513V278.866H336.201ZM431.967 283.718L431.143 286.277L431.163 286.283L431.183 286.289L431.967 283.718ZM456.228 300.062L458.345 298.405L458.345 298.405L456.228 300.062ZM458.015 362.118L460.289 363.552L460.289 363.552L458.015 362.118ZM438.607 380.505L437.306 378.153L434.942 379.461L436.261 381.818L438.607 380.505ZM474.615 444.86V447.548H479.199L476.961 443.548L474.615 444.86ZM425.583 444.86L423.192 446.089L423.941 447.548H425.583V444.86ZM396.98 389.188L399.372 387.96L398.622 386.5H396.98V389.188ZM380.126 389.188V386.5H377.437V389.188H380.126ZM380.126 444.86V447.548H382.814V444.86H380.126ZM380.126 354.457H377.437V357.145H380.126V354.457ZM415.623 317.683L414.214 319.972L414.233 319.984L414.252 319.995L415.623 317.683ZM380.126 313.597V310.909H377.437V313.597H380.126ZM338.889 444.86V278.866H333.513V444.86H338.889ZM336.201 281.554H399.023V276.177H336.201V281.554ZM399.023 281.554C410.697 281.554 421.396 283.138 431.143 286.277L432.791 281.159C422.448 277.828 411.185 276.177 399.023 276.177V281.554ZM431.183 286.289C440.731 289.202 448.341 294.346 454.111 301.719L458.345 298.405C451.856 290.114 443.292 284.362 432.751 281.147L431.183 286.289ZM454.111 301.719C459.75 308.924 462.733 319.076 462.733 332.495H468.109C468.109 318.332 464.964 306.863 458.345 298.405L454.111 301.719ZM462.733 332.495C462.733 344.049 460.34 353.39 455.741 360.685L460.289 363.552C465.565 355.184 468.109 344.776 468.109 332.495H462.733ZM455.741 360.685C451.043 368.138 444.906 373.949 437.306 378.153L439.908 382.858C448.311 378.209 455.114 371.762 460.289 363.552L455.741 360.685ZM436.261 381.818L472.269 446.173L476.961 443.548L440.953 379.193L436.261 381.818ZM474.615 442.172H425.583V447.548H474.615V442.172ZM427.974 443.632L399.372 387.96L394.589 390.417L423.192 446.089L427.974 443.632ZM396.98 386.5H380.126V391.876H396.98V386.5ZM377.437 389.188V444.86H382.814V389.188H377.437ZM380.126 442.172H336.201V447.548H380.126V442.172ZM380.126 357.145H395.959V351.769H380.126V357.145ZM395.959 357.145C405.115 357.145 412.482 355.263 417.591 351.038C422.798 346.732 425.206 340.379 425.206 332.495H419.83C419.83 339.252 417.811 343.88 414.165 346.895C410.421 349.991 404.509 351.769 395.959 351.769V357.145ZM425.206 332.495C425.206 324.758 422.677 318.739 416.993 315.37L414.252 319.995C417.762 322.075 419.83 325.93 419.83 332.495H425.206ZM417.032 315.393C411.985 312.288 404.842 310.909 395.959 310.909V316.285C404.441 316.285 410.408 317.63 414.214 319.972L417.032 315.393ZM395.959 310.909H380.126V316.285H395.959V310.909ZM377.437 313.597V354.457H382.814V313.597H377.437ZM523.737 444.86H521.049V447.548H523.737V444.86ZM523.737 315.64H526.425V312.952H523.737V315.64ZM479.812 315.64H477.124V318.328H479.812V315.64ZM479.812 278.866V276.177H477.124V278.866H479.812ZM611.586 278.866H614.275V276.177H611.586V278.866ZM611.586 315.64V318.328H614.275V315.64H611.586ZM567.662 315.64V312.952H564.973V315.64H567.662ZM567.662 444.86V447.548H570.35V444.86H567.662ZM526.425 444.86V315.64H521.049V444.86H526.425ZM523.737 312.952H479.812V318.328H523.737V312.952ZM482.5 315.64V278.866H477.124V315.64H482.5ZM479.812 281.554H611.586V276.177H479.812V281.554ZM608.898 278.866V315.64H614.275V278.866H608.898ZM611.586 312.952H567.662V318.328H611.586V312.952ZM564.973 315.64V444.86H570.35V315.64H564.973ZM567.662 442.172H523.737V447.548H567.662V442.172ZM636.218 444.86H633.53V447.548H636.218V444.86ZM636.218 278.866V276.177H633.53V278.866H636.218ZM744.498 278.866H747.186V276.177H744.498V278.866ZM744.498 315.64V318.328H747.186V315.64H744.498ZM680.143 315.64V312.952H677.455V315.64H680.143ZM680.143 347.306H677.455V349.995H680.143V347.306ZM735.304 347.306H737.992V344.618H735.304V347.306ZM735.304 384.081V386.769H737.992V384.081H735.304ZM680.143 384.081V381.392H677.455V384.081H680.143ZM680.143 444.86V447.548H682.831V444.86H680.143ZM638.906 444.86V278.866H633.53V444.86H638.906ZM636.218 281.554H744.498V276.177H636.218V281.554ZM741.81 278.866V315.64H747.186V278.866H741.81ZM744.498 312.952H680.143V318.328H744.498V312.952ZM677.455 315.64V347.306H682.831V315.64H677.455ZM680.143 349.995H735.304V344.618H680.143V349.995ZM732.616 347.306V384.081H737.992V347.306H732.616ZM735.304 381.392H680.143V386.769H735.304V381.392ZM677.455 384.081V444.86H682.831V384.081H677.455ZM680.143 442.172H636.218V447.548H680.143V442.172ZM800.264 437.71L798.876 440.012L798.888 440.019L798.901 440.027L800.264 437.71ZM773.194 407.831L770.789 409.033L770.789 409.033L773.194 407.831ZM773.194 314.874L775.585 316.102L775.588 316.095L775.592 316.089L773.194 314.874ZM800.264 285.761L801.601 288.093L801.601 288.093L800.264 285.761ZM880.962 285.761L879.625 288.093L879.625 288.093L880.962 285.761ZM908.032 314.874L905.634 316.089L905.638 316.095L905.641 316.102L908.032 314.874ZM908.032 407.831L905.628 406.628L908.032 407.831ZM880.962 437.71L882.325 440.027L882.338 440.019L882.351 440.012L880.962 437.71ZM864.108 396.849L861.858 395.378L861.848 395.394L861.838 395.409L864.108 396.849ZM864.108 326.11L861.878 327.612L861.896 327.638L861.914 327.664L864.108 326.11ZM817.118 326.11L819.312 327.664L819.32 327.653L819.327 327.643L817.118 326.11ZM817.118 396.849L814.868 398.321L814.868 398.321L817.118 396.849ZM840.613 445.237C825.701 445.237 812.735 441.927 801.627 435.393L798.901 440.027C810.946 447.112 824.88 450.613 840.613 450.613V445.237ZM801.652 435.408C790.542 428.709 781.856 419.145 775.598 406.628L770.789 409.033C777.47 422.394 786.831 432.75 798.876 440.012L801.652 435.408ZM775.598 406.628C769.357 394.147 766.178 379.002 766.178 361.097H760.801C760.801 379.626 764.091 395.636 770.789 409.033L775.598 406.628ZM766.178 361.097C766.178 343.188 769.358 328.227 775.585 316.102L770.802 313.646C764.09 326.717 760.801 342.571 760.801 361.097H766.178ZM775.592 316.089C781.842 303.752 790.512 294.452 801.601 288.093L798.926 283.429C786.861 290.349 777.484 300.458 770.796 313.659L775.592 316.089ZM801.601 288.093C812.714 281.719 825.689 278.489 840.613 278.489V273.113C824.892 273.113 810.967 276.523 798.926 283.429L801.601 288.093ZM840.613 278.489C855.537 278.489 868.512 281.719 879.625 288.093L882.3 283.429C870.259 276.523 856.334 273.113 840.613 273.113V278.489ZM879.625 288.093C890.714 294.452 899.384 303.752 905.634 316.089L910.43 313.659C903.742 300.458 894.365 290.349 882.3 283.429L879.625 288.093ZM905.641 316.102C911.868 328.227 915.049 343.188 915.049 361.097H920.425C920.425 342.571 917.136 326.717 910.424 313.646L905.641 316.102ZM915.049 361.097C915.049 379.002 911.869 394.147 905.628 406.628L910.437 409.033C917.135 395.636 920.425 379.626 920.425 361.097H915.049ZM905.628 406.628C899.37 419.145 890.685 428.709 879.574 435.408L882.351 440.012C894.395 432.75 903.756 422.394 910.437 409.033L905.628 406.628ZM879.6 435.393C868.491 441.927 855.525 445.237 840.613 445.237V450.613C856.346 450.613 870.28 447.112 882.325 440.027L879.6 435.393ZM840.613 412.817C851.626 412.817 860.292 407.879 866.377 398.29L861.838 395.409C856.687 403.526 849.69 407.441 840.613 407.441V412.817ZM866.358 398.321C872.528 388.884 875.479 376.393 875.479 361.097H870.102C870.102 375.765 867.264 387.109 861.858 395.378L866.358 398.321ZM875.479 361.097C875.479 345.657 872.538 333.361 866.301 324.556L861.914 327.664C867.254 335.203 870.102 346.232 870.102 361.097H875.479ZM866.337 324.609C860.22 315.526 851.554 310.909 840.613 310.909V316.285C849.762 316.285 856.758 320.01 861.878 327.612L866.337 324.609ZM840.613 310.909C829.828 310.909 821.184 315.536 814.91 324.578L819.327 327.643C824.63 320 831.649 316.285 840.613 316.285V310.909ZM814.925 324.556C808.688 333.361 805.747 345.657 805.747 361.097H811.124C811.124 346.232 813.972 335.203 819.312 327.664L814.925 324.556ZM805.747 361.097C805.747 376.393 808.698 388.884 814.868 398.321L819.368 395.378C813.962 387.109 811.124 375.765 811.124 361.097H805.747ZM814.868 398.321C821.111 407.869 829.757 412.817 840.613 412.817V407.441C831.72 407.441 824.702 403.537 819.368 395.378L814.868 398.321ZM947.458 444.86H944.77V447.548H947.458V444.86ZM947.458 278.866V276.177H944.77V278.866H947.458ZM991.383 278.866H994.071V276.177H991.383V278.866ZM991.383 408.086H988.695V410.774H991.383V408.086ZM1054.21 408.086H1056.89V405.398H1054.21V408.086ZM1054.21 444.86V447.548H1056.89V444.86H1054.21ZM950.146 444.86V278.866H944.77V444.86H950.146ZM947.458 281.554H991.383V276.177H947.458V281.554ZM988.695 278.866V408.086H994.071V278.866H988.695ZM991.383 410.774H1054.21V405.398H991.383V410.774ZM1051.52 408.086V444.86H1056.89V408.086H1051.52ZM1054.21 442.172H947.458V447.548H1054.21V442.172ZM1082.88 444.86H1080.19V447.548H1082.88V444.86ZM1082.88 278.866V276.177H1080.19V278.866H1082.88ZM1126.8 278.866H1129.49V276.177H1126.8V278.866ZM1126.8 444.86V447.548H1129.49V444.86H1126.8ZM1085.57 444.86V278.866H1080.19V444.86H1085.57ZM1082.88 281.554H1126.8V276.177H1082.88V281.554ZM1124.11 278.866V444.86H1129.49V278.866H1124.11ZM1126.8 442.172H1082.88V447.548H1126.8V442.172ZM1193.3 437.71L1191.92 440.012L1191.93 440.019L1191.94 440.027L1193.3 437.71ZM1166.23 407.831L1163.83 409.033L1163.83 409.033L1166.23 407.831ZM1166.23 314.874L1168.63 316.102L1168.63 316.095L1168.63 316.089L1166.23 314.874ZM1193.3 285.761L1194.64 288.093L1194.64 288.093L1193.3 285.761ZM1274 285.761L1272.67 288.093L1272.67 288.093L1274 285.761ZM1301.07 314.874L1298.67 316.089L1298.68 316.095L1298.68 316.102L1301.07 314.874ZM1301.07 407.831L1298.67 406.628L1301.07 407.831ZM1274 437.71L1275.37 440.027L1275.38 440.019L1275.39 440.012L1274 437.71ZM1257.15 396.849L1254.9 395.378L1254.89 395.394L1254.88 395.409L1257.15 396.849ZM1257.15 326.11L1254.92 327.612L1254.94 327.638L1254.95 327.664L1257.15 326.11ZM1210.16 326.11L1212.35 327.664L1212.36 327.653L1212.37 327.643L1210.16 326.11ZM1210.16 396.849L1207.91 398.321L1207.91 398.321L1210.16 396.849ZM1233.65 445.237C1218.74 445.237 1205.78 441.927 1194.67 435.393L1191.94 440.027C1203.99 447.112 1217.92 450.613 1233.65 450.613V445.237ZM1194.69 435.408C1183.58 428.709 1174.9 419.145 1168.64 406.628L1163.83 409.033C1170.51 422.394 1179.87 432.75 1191.92 440.012L1194.69 435.408ZM1168.64 406.628C1162.4 394.147 1159.22 379.002 1159.22 361.097H1153.84C1153.84 379.626 1157.13 395.636 1163.83 409.033L1168.64 406.628ZM1159.22 361.097C1159.22 343.188 1162.4 328.227 1168.63 316.102L1163.84 313.646C1157.13 326.717 1153.84 342.571 1153.84 361.097H1159.22ZM1168.63 316.089C1174.88 303.752 1183.55 294.452 1194.64 288.093L1191.97 283.429C1179.9 290.349 1170.52 300.458 1163.84 313.659L1168.63 316.089ZM1194.64 288.093C1205.75 281.719 1218.73 278.489 1233.65 278.489V273.113C1217.93 273.113 1204.01 276.523 1191.97 283.429L1194.64 288.093ZM1233.65 278.489C1248.58 278.489 1261.55 281.719 1272.67 288.093L1275.34 283.429C1263.3 276.523 1249.37 273.113 1233.65 273.113V278.489ZM1272.67 288.093C1283.75 294.452 1292.42 303.752 1298.67 316.089L1303.47 313.659C1296.78 300.458 1287.41 290.349 1275.34 283.429L1272.67 288.093ZM1298.68 316.102C1304.91 328.227 1308.09 343.188 1308.09 361.097H1313.47C1313.47 342.571 1310.18 326.717 1303.46 313.646L1298.68 316.102ZM1308.09 361.097C1308.09 379.002 1304.91 394.147 1298.67 406.628L1303.48 409.033C1310.18 395.636 1313.47 379.626 1313.47 361.097H1308.09ZM1298.67 406.628C1292.41 419.145 1283.72 428.709 1272.61 435.408L1275.39 440.012C1287.43 432.75 1296.8 422.394 1303.48 409.033L1298.67 406.628ZM1272.64 435.393C1261.53 441.927 1248.57 445.237 1233.65 445.237V450.613C1249.39 450.613 1263.32 447.112 1275.37 440.027L1272.64 435.393ZM1233.65 412.817C1244.67 412.817 1253.33 407.879 1259.42 398.29L1254.88 395.409C1249.73 403.526 1242.73 407.441 1233.65 407.441V412.817ZM1259.4 398.321C1265.57 388.884 1268.52 376.393 1268.52 361.097H1263.14C1263.14 375.765 1260.3 387.109 1254.9 395.378L1259.4 398.321ZM1268.52 361.097C1268.52 345.657 1265.58 333.361 1259.34 324.556L1254.95 327.664C1260.29 335.203 1263.14 346.232 1263.14 361.097H1268.52ZM1259.38 324.609C1253.26 315.526 1244.59 310.909 1233.65 310.909V316.285C1242.8 316.285 1249.8 320.01 1254.92 327.612L1259.38 324.609ZM1233.65 310.909C1222.87 310.909 1214.22 315.536 1207.95 324.578L1212.37 327.643C1217.67 320 1224.69 316.285 1233.65 316.285V310.909ZM1207.96 324.556C1201.73 333.361 1198.79 345.657 1198.79 361.097H1204.16C1204.16 346.232 1207.01 335.203 1212.35 327.664L1207.96 324.556ZM1198.79 361.097C1198.79 376.393 1201.74 388.884 1207.91 398.321L1212.41 395.378C1207 387.109 1204.16 375.765 1204.16 361.097H1198.79ZM1207.91 398.321C1214.15 407.869 1222.8 412.817 1233.65 412.817V407.441C1224.76 407.441 1217.74 403.537 1212.41 395.378L1207.91 398.321Z" fill="white" fill-opacity="0.2" mask="url(#path-4-outside-2_605_3487)"/>
<mask id="path-6-outside-3_605_3487" maskUnits="userSpaceOnUse" x="0.625" y="826.624" width="1313" height="178" fill="black">
<rect fill="white" x="0.625" y="826.624" width="1313" height="178"/>
<path d="M4.0121 998.624V832.629H64.7917C76.8795 832.629 88.0309 834.332 98.246 837.737C108.461 841.142 116.633 846.845 122.762 854.847C129.061 862.849 132.211 873.83 132.211 887.79C132.211 901.24 129.061 912.306 122.762 920.989C116.633 929.502 108.461 935.801 98.246 939.887C88.2012 943.973 77.3902 946.016 65.8132 946.016H47.9368V998.624H4.0121ZM47.9368 911.285H63.7702C72.453 911.285 78.8374 909.242 82.9234 905.156C87.1797 900.9 89.3078 895.111 89.3078 887.79C89.3078 880.299 87.0094 875.022 82.4126 871.957C77.8159 868.892 71.2612 867.36 62.7487 867.36H47.9368V911.285ZM229.356 1001.69C214.033 1001.69 200.583 998.283 189.006 991.473C177.429 984.493 168.406 974.533 161.936 961.594C155.467 948.655 152.232 933.077 152.232 914.86C152.232 896.643 155.467 881.236 161.936 868.637C168.406 855.868 177.429 846.164 189.006 839.524C200.583 832.884 214.033 829.565 229.356 829.565C244.678 829.565 258.128 832.884 269.705 839.524C281.282 846.164 290.306 855.868 296.775 868.637C303.245 881.236 306.479 896.643 306.479 914.86C306.479 933.077 303.245 948.655 296.775 961.594C290.306 974.533 281.282 984.493 269.705 991.473C258.128 998.283 244.678 1001.69 229.356 1001.69ZM229.356 963.892C239.401 963.892 247.232 959.466 252.85 950.613C258.639 941.76 261.533 929.842 261.533 914.86C261.533 899.708 258.639 888.046 252.85 879.874C247.232 871.531 239.401 867.36 229.356 867.36C219.481 867.36 211.65 871.531 205.861 879.874C200.073 888.046 197.178 899.708 197.178 914.86C197.178 929.842 200.073 941.76 205.861 950.613C211.65 959.466 219.481 963.892 229.356 963.892ZM336.201 998.624V832.629H399.023C410.941 832.629 421.922 834.246 431.967 837.481C442.012 840.546 450.099 845.994 456.228 853.825C462.357 861.657 465.421 872.468 465.421 886.258C465.421 898.176 462.953 908.05 458.015 915.882C453.078 923.713 446.609 929.842 438.607 934.269L474.615 998.624H425.583L396.98 942.952H380.126V998.624H336.201ZM380.126 908.22H395.959C413.665 908.22 422.518 900.9 422.518 886.258C422.518 879.108 420.22 874.17 415.623 871.446C411.196 868.722 404.642 867.36 395.959 867.36H380.126V908.22ZM523.737 998.624V869.403H479.812V832.629H611.586V869.403H567.662V998.624H523.737ZM636.218 998.624V832.629H744.498V869.403H680.143V901.07H735.304V937.844H680.143V998.624H636.218ZM840.613 1001.69C825.29 1001.69 811.841 998.283 800.264 991.473C788.687 984.493 779.663 974.533 773.194 961.594C766.724 948.655 763.489 933.077 763.489 914.86C763.489 896.643 766.724 881.236 773.194 868.637C779.663 855.868 788.687 846.164 800.264 839.524C811.841 832.884 825.29 829.565 840.613 829.565C855.936 829.565 869.385 832.884 880.962 839.524C892.54 846.164 901.563 855.868 908.032 868.637C914.502 881.236 917.737 896.643 917.737 914.86C917.737 933.077 914.502 948.655 908.032 961.594C901.563 974.533 892.54 984.493 880.962 991.473C869.385 998.283 855.936 1001.69 840.613 1001.69ZM840.613 963.892C850.658 963.892 858.489 959.466 864.108 950.613C869.896 941.76 872.79 929.842 872.79 914.86C872.79 899.708 869.896 888.046 864.108 879.874C858.489 871.531 850.658 867.36 840.613 867.36C830.738 867.36 822.907 871.531 817.118 879.874C811.33 888.046 808.436 899.708 808.436 914.86C808.436 929.842 811.33 941.76 817.118 950.613C822.907 959.466 830.738 963.892 840.613 963.892ZM947.458 998.624V832.629H991.383V961.849H1054.21V998.624H947.458ZM1082.88 998.624V832.629H1126.8V998.624H1082.88ZM1233.65 1001.69C1218.33 1001.69 1204.88 998.283 1193.3 991.473C1181.73 984.493 1172.7 974.533 1166.23 961.594C1159.76 948.655 1156.53 933.077 1156.53 914.86C1156.53 896.643 1159.76 881.236 1166.23 868.637C1172.7 855.868 1181.73 846.164 1193.3 839.524C1204.88 832.884 1218.33 829.565 1233.65 829.565C1248.98 829.565 1262.43 832.884 1274 839.524C1285.58 846.164 1294.6 855.868 1301.07 868.637C1307.54 881.236 1310.78 896.643 1310.78 914.86C1310.78 933.077 1307.54 948.655 1301.07 961.594C1294.6 974.533 1285.58 984.493 1274 991.473C1262.43 998.283 1248.98 1001.69 1233.65 1001.69ZM1233.65 963.892C1243.7 963.892 1251.53 959.466 1257.15 950.613C1262.94 941.76 1265.83 929.842 1265.83 914.86C1265.83 899.708 1262.94 888.046 1257.15 879.874C1251.53 871.531 1243.7 867.36 1233.65 867.36C1223.78 867.36 1215.95 871.531 1210.16 879.874C1204.37 888.046 1201.48 899.708 1201.48 914.86C1201.48 929.842 1204.37 941.76 1210.16 950.613C1215.95 959.466 1223.78 963.892 1233.65 963.892Z"/>
</mask>
<path d="M4.0121 998.624H1.32393V1001.31H4.0121V998.624ZM4.0121 832.629V829.941H1.32393V832.629H4.0121ZM98.246 837.737L99.096 835.186L99.096 835.186L98.246 837.737ZM122.762 854.847L120.628 856.481L120.639 856.496L120.65 856.51L122.762 854.847ZM122.762 920.989L120.586 919.411L120.581 919.419L122.762 920.989ZM98.246 939.887L97.2476 937.391L97.2403 937.394L97.2331 937.397L98.246 939.887ZM47.9368 946.016V943.328H45.2487V946.016H47.9368ZM47.9368 998.624V1001.31H50.625V998.624H47.9368ZM47.9368 911.285H45.2487V913.973H47.9368V911.285ZM82.9234 905.156L81.0226 903.255L81.0226 903.255L82.9234 905.156ZM82.4126 871.957L83.9038 869.72L83.9038 869.72L82.4126 871.957ZM47.9368 867.36V864.672H45.2487V867.36H47.9368ZM6.70027 998.624V832.629H1.32393V998.624H6.70027ZM4.0121 835.317H64.7917V829.941H4.0121V835.317ZM64.7917 835.317C76.6256 835.317 87.4863 836.984 97.3959 840.287L99.096 835.186C88.5755 831.679 77.1334 829.941 64.7917 829.941V835.317ZM97.3959 840.287C107.138 843.534 114.849 848.936 120.628 856.481L124.896 853.212C118.418 844.754 109.784 838.749 99.096 835.186L97.3959 840.287ZM120.65 856.51C126.459 863.889 129.523 874.212 129.523 887.79H134.899C134.899 873.448 131.664 861.808 124.874 853.184L120.65 856.51ZM129.523 887.79C129.523 900.818 126.476 911.292 120.586 919.411L124.938 922.568C131.647 913.321 134.899 901.662 134.899 887.79H129.523ZM120.581 919.419C114.765 927.496 107.013 933.485 97.2476 937.391L99.2443 942.383C109.909 938.117 118.501 931.508 124.944 922.56L120.581 919.419ZM97.2331 937.397C87.5312 941.344 77.0667 943.328 65.8132 943.328V948.704C77.7138 948.704 88.8711 946.603 99.2589 942.377L97.2331 937.397ZM65.8132 943.328H47.9368V948.704H65.8132V943.328ZM45.2487 946.016V998.624H50.625V946.016H45.2487ZM47.9368 995.935H4.0121V1001.31H47.9368V995.935ZM47.9368 913.973H63.7702V908.597H47.9368V913.973ZM63.7702 913.973C72.8121 913.973 80.0294 911.852 84.8242 907.057L81.0226 903.255C77.6453 906.632 72.0939 908.597 63.7702 908.597V913.973ZM84.8242 907.057C89.69 902.191 91.996 895.66 91.996 887.79H86.6196C86.6196 894.562 84.6693 899.608 81.0226 903.255L84.8242 907.057ZM91.996 887.79C91.996 879.753 89.5004 873.451 83.9038 869.72L80.9215 874.194C84.5184 876.592 86.6196 880.846 86.6196 887.79H91.996ZM83.9038 869.72C78.6863 866.242 71.5255 864.672 62.7487 864.672V870.048C70.997 870.048 76.9454 871.543 80.9215 874.194L83.9038 869.72ZM62.7487 864.672H47.9368V870.048H62.7487V864.672ZM45.2487 867.36V911.285H50.625V867.36H45.2487ZM189.006 991.473L187.618 993.775L187.631 993.783L187.643 993.79L189.006 991.473ZM161.936 961.594L159.532 962.796L159.532 962.796L161.936 961.594ZM161.936 868.637L164.328 869.865L164.331 869.859L164.334 869.852L161.936 868.637ZM189.006 839.524L190.344 841.856L190.344 841.856L189.006 839.524ZM269.705 839.524L268.368 841.856L268.368 841.856L269.705 839.524ZM296.775 868.637L294.377 869.852L294.381 869.859L294.384 869.865L296.775 868.637ZM296.775 961.594L294.371 960.392L296.775 961.594ZM269.705 991.473L271.068 993.79L271.081 993.783L271.093 993.775L269.705 991.473ZM252.85 950.613L250.601 949.142L250.591 949.157L250.581 949.173L252.85 950.613ZM252.85 879.874L250.621 881.375L250.638 881.402L250.657 881.427L252.85 879.874ZM205.861 879.874L208.055 881.427L208.062 881.417L208.07 881.406L205.861 879.874ZM205.861 950.613L203.611 952.084L203.611 952.084L205.861 950.613ZM229.356 999C214.444 999 201.478 995.691 190.369 989.156L187.643 993.79C199.689 1000.88 213.623 1004.38 229.356 1004.38V999ZM190.394 989.171C179.284 982.472 170.599 972.909 164.341 960.392L159.532 962.796C166.213 976.158 175.574 986.513 187.618 993.775L190.394 989.171ZM164.341 960.392C158.1 947.91 154.92 932.765 154.92 914.86H149.544C149.544 933.389 152.834 949.4 159.532 962.796L164.341 960.392ZM154.92 914.86C154.92 896.952 158.101 881.991 164.328 869.865L159.545 867.409C152.833 880.481 149.544 896.335 149.544 914.86H154.92ZM164.334 869.852C170.585 857.515 179.255 848.216 190.344 841.856L187.669 837.192C175.604 844.112 166.227 854.221 159.538 867.422L164.334 869.852ZM190.344 841.856C201.457 835.482 214.432 832.253 229.356 832.253V826.876C213.634 826.876 199.71 830.286 187.669 837.192L190.344 841.856ZM229.356 832.253C244.28 832.253 257.255 835.482 268.368 841.856L271.043 837.192C259.001 830.286 245.077 826.876 229.356 826.876V832.253ZM268.368 841.856C279.457 848.216 288.127 857.515 294.377 869.852L299.173 867.422C292.485 854.221 283.108 844.112 271.043 837.192L268.368 841.856ZM294.384 869.865C300.61 881.991 303.791 896.952 303.791 914.86H309.168C309.168 896.335 305.879 880.481 299.166 867.409L294.384 869.865ZM303.791 914.86C303.791 932.765 300.612 947.91 294.371 960.392L299.18 962.796C305.878 949.4 309.168 933.389 309.168 914.86H303.791ZM294.371 960.392C288.112 972.909 279.427 982.472 268.317 989.171L271.093 993.775C283.137 986.513 292.499 976.158 299.18 962.796L294.371 960.392ZM268.342 989.156C257.234 995.691 244.268 999 229.356 999V1004.38C245.089 1004.38 259.023 1000.88 271.068 993.79L268.342 989.156ZM229.356 966.581C240.369 966.581 249.035 961.642 255.12 952.053L250.581 949.173C245.429 957.29 238.433 961.204 229.356 961.204V966.581ZM255.1 952.084C261.271 942.647 264.221 930.157 264.221 914.86H258.845C258.845 929.528 256.007 940.873 250.601 949.142L255.1 952.084ZM264.221 914.86C264.221 899.42 261.281 887.125 255.044 878.32L250.657 881.427C255.997 888.967 258.845 899.996 258.845 914.86H264.221ZM255.08 878.372C248.963 869.289 240.296 864.672 229.356 864.672V870.048C238.505 870.048 245.501 873.774 250.621 881.375L255.08 878.372ZM229.356 864.672C218.571 864.672 209.926 869.299 203.653 878.341L208.07 881.406C213.373 873.763 220.392 870.048 229.356 870.048V864.672ZM203.668 878.32C197.431 887.125 194.49 899.42 194.49 914.86H199.867C199.867 899.996 202.715 888.967 208.055 881.427L203.668 878.32ZM194.49 914.86C194.49 930.157 197.441 942.647 203.611 952.084L208.111 949.142C202.704 940.873 199.867 929.528 199.867 914.86H194.49ZM203.611 952.084C209.854 961.632 218.499 966.581 229.356 966.581V961.204C220.463 961.204 213.445 957.3 208.111 949.142L203.611 952.084ZM336.201 998.624H333.513V1001.31H336.201V998.624ZM336.201 832.629V829.941H333.513V832.629H336.201ZM431.967 837.481L431.143 840.04L431.163 840.046L431.183 840.052L431.967 837.481ZM456.228 853.825L458.345 852.169L458.345 852.169L456.228 853.825ZM458.015 915.882L460.289 917.315L460.289 917.315L458.015 915.882ZM438.607 934.269L437.306 931.917L434.942 933.224L436.261 935.581L438.607 934.269ZM474.615 998.624V1001.31H479.199L476.961 997.311L474.615 998.624ZM425.583 998.624L423.192 999.852L423.941 1001.31H425.583V998.624ZM396.98 942.952L399.372 941.723L398.622 940.263H396.98V942.952ZM380.126 942.952V940.263H377.437V942.952H380.126ZM380.126 998.624V1001.31H382.814V998.624H380.126ZM380.126 908.22H377.437V910.909H380.126V908.22ZM415.623 871.446L414.214 873.736L414.233 873.747L414.252 873.759L415.623 871.446ZM380.126 867.36V864.672H377.437V867.36H380.126ZM338.889 998.624V832.629H333.513V998.624H338.889ZM336.201 835.317H399.023V829.941H336.201V835.317ZM399.023 835.317C410.697 835.317 421.396 836.901 431.143 840.04L432.791 834.922C422.448 831.592 411.185 829.941 399.023 829.941V835.317ZM431.183 840.052C440.731 842.965 448.341 848.11 454.111 855.482L458.345 852.169C451.856 843.878 443.292 838.126 432.751 834.91L431.183 840.052ZM454.111 855.482C459.75 862.688 462.733 872.84 462.733 886.258H468.109C468.109 872.096 464.964 860.626 458.345 852.169L454.111 855.482ZM462.733 886.258C462.733 897.812 460.34 907.153 455.741 914.448L460.289 917.315C465.565 908.947 468.109 898.539 468.109 886.258H462.733ZM455.741 914.448C451.043 921.901 444.906 927.712 437.306 931.917L439.908 936.621C448.311 931.972 455.114 925.525 460.289 917.315L455.741 914.448ZM436.261 935.581L472.269 999.936L476.961 997.311L440.953 932.956L436.261 935.581ZM474.615 995.935H425.583V1001.31H474.615V995.935ZM427.974 997.395L399.372 941.723L394.589 944.18L423.192 999.852L427.974 997.395ZM396.98 940.263H380.126V945.64H396.98V940.263ZM377.437 942.952V998.624H382.814V942.952H377.437ZM380.126 995.935H336.201V1001.31H380.126V995.935ZM380.126 910.909H395.959V905.532H380.126V910.909ZM395.959 910.909C405.115 910.909 412.482 909.026 417.591 904.801C422.798 900.496 425.206 894.142 425.206 886.258H419.83C419.83 893.016 417.811 897.643 414.165 900.658C410.421 903.754 404.509 905.532 395.959 905.532V910.909ZM425.206 886.258C425.206 878.521 422.677 872.502 416.993 869.134L414.252 873.759C417.762 875.839 419.83 879.694 419.83 886.258H425.206ZM417.032 869.157C411.985 866.051 404.842 864.672 395.959 864.672V870.048C404.441 870.048 410.408 871.393 414.214 873.736L417.032 869.157ZM395.959 864.672H380.126V870.048H395.959V864.672ZM377.437 867.36V908.22H382.814V867.36H377.437ZM523.737 998.624H521.049V1001.31H523.737V998.624ZM523.737 869.403H526.425V866.715H523.737V869.403ZM479.812 869.403H477.124V872.091H479.812V869.403ZM479.812 832.629V829.941H477.124V832.629H479.812ZM611.586 832.629H614.275V829.941H611.586V832.629ZM611.586 869.403V872.091H614.275V869.403H611.586ZM567.662 869.403V866.715H564.973V869.403H567.662ZM567.662 998.624V1001.31H570.35V998.624H567.662ZM526.425 998.624V869.403H521.049V998.624H526.425ZM523.737 866.715H479.812V872.091H523.737V866.715ZM482.5 869.403V832.629H477.124V869.403H482.5ZM479.812 835.317H611.586V829.941H479.812V835.317ZM608.898 832.629V869.403H614.275V832.629H608.898ZM611.586 866.715H567.662V872.091H611.586V866.715ZM564.973 869.403V998.624H570.35V869.403H564.973ZM567.662 995.935H523.737V1001.31H567.662V995.935ZM636.218 998.624H633.53V1001.31H636.218V998.624ZM636.218 832.629V829.941H633.53V832.629H636.218ZM744.498 832.629H747.186V829.941H744.498V832.629ZM744.498 869.403V872.091H747.186V869.403H744.498ZM680.143 869.403V866.715H677.455V869.403H680.143ZM680.143 901.07H677.455V903.758H680.143V901.07ZM735.304 901.07H737.992V898.382H735.304V901.07ZM735.304 937.844V940.532H737.992V937.844H735.304ZM680.143 937.844V935.156H677.455V937.844H680.143ZM680.143 998.624V1001.31H682.831V998.624H680.143ZM638.906 998.624V832.629H633.53V998.624H638.906ZM636.218 835.317H744.498V829.941H636.218V835.317ZM741.81 832.629V869.403H747.186V832.629H741.81ZM744.498 866.715H680.143V872.091H744.498V866.715ZM677.455 869.403V901.07H682.831V869.403H677.455ZM680.143 903.758H735.304V898.382H680.143V903.758ZM732.616 901.07V937.844H737.992V901.07H732.616ZM735.304 935.156H680.143V940.532H735.304V935.156ZM677.455 937.844V998.624H682.831V937.844H677.455ZM680.143 995.935H636.218V1001.31H680.143V995.935ZM800.264 991.473L798.876 993.775L798.888 993.783L798.901 993.79L800.264 991.473ZM773.194 961.594L770.789 962.796L770.789 962.796L773.194 961.594ZM773.194 868.637L775.585 869.865L775.588 869.859L775.592 869.852L773.194 868.637ZM800.264 839.524L801.601 841.856L801.601 841.856L800.264 839.524ZM880.962 839.524L879.625 841.856L879.625 841.856L880.962 839.524ZM908.032 868.637L905.634 869.852L905.638 869.859L905.641 869.865L908.032 868.637ZM908.032 961.594L905.628 960.392L908.032 961.594ZM880.962 991.473L882.325 993.79L882.338 993.783L882.351 993.775L880.962 991.473ZM864.108 950.613L861.858 949.142L861.848 949.157L861.838 949.173L864.108 950.613ZM864.108 879.874L861.878 881.375L861.896 881.402L861.914 881.427L864.108 879.874ZM817.118 879.874L819.312 881.427L819.32 881.417L819.327 881.406L817.118 879.874ZM817.118 950.613L814.868 952.084L814.868 952.084L817.118 950.613ZM840.613 999C825.701 999 812.735 995.691 801.627 989.156L798.901 993.79C810.946 1000.88 824.88 1004.38 840.613 1004.38V999ZM801.652 989.171C790.542 982.472 781.856 972.909 775.598 960.392L770.789 962.796C777.47 976.158 786.831 986.513 798.876 993.775L801.652 989.171ZM775.598 960.392C769.357 947.91 766.178 932.765 766.178 914.86H760.801C760.801 933.389 764.091 949.4 770.789 962.796L775.598 960.392ZM766.178 914.86C766.178 896.952 769.358 881.991 775.585 869.865L770.802 867.409C764.09 880.481 760.801 896.335 760.801 914.86H766.178ZM775.592 869.852C781.842 857.515 790.512 848.216 801.601 841.856L798.926 837.192C786.861 844.112 777.484 854.221 770.796 867.422L775.592 869.852ZM801.601 841.856C812.714 835.482 825.689 832.253 840.613 832.253V826.876C824.892 826.876 810.967 830.286 798.926 837.192L801.601 841.856ZM840.613 832.253C855.537 832.253 868.512 835.482 879.625 841.856L882.3 837.192C870.259 830.286 856.334 826.876 840.613 826.876V832.253ZM879.625 841.856C890.714 848.216 899.384 857.515 905.634 869.852L910.43 867.422C903.742 854.221 894.365 844.112 882.3 837.192L879.625 841.856ZM905.641 869.865C911.868 881.991 915.049 896.952 915.049 914.86H920.425C920.425 896.335 917.136 880.481 910.424 867.409L905.641 869.865ZM915.049 914.86C915.049 932.765 911.869 947.91 905.628 960.392L910.437 962.796C917.135 949.4 920.425 933.389 920.425 914.86H915.049ZM905.628 960.392C899.37 972.909 890.685 982.472 879.574 989.171L882.351 993.775C894.395 986.513 903.756 976.158 910.437 962.796L905.628 960.392ZM879.6 989.156C868.491 995.691 855.525 999 840.613 999V1004.38C856.346 1004.38 870.28 1000.88 882.325 993.79L879.6 989.156ZM840.613 966.581C851.626 966.581 860.292 961.642 866.377 952.053L861.838 949.173C856.687 957.29 849.69 961.204 840.613 961.204V966.581ZM866.358 952.084C872.528 942.647 875.479 930.157 875.479 914.86H870.102C870.102 929.528 867.264 940.873 861.858 949.142L866.358 952.084ZM875.479 914.86C875.479 899.42 872.538 887.125 866.301 878.32L861.914 881.427C867.254 888.967 870.102 899.996 870.102 914.86H875.479ZM866.337 878.372C860.22 869.289 851.554 864.672 840.613 864.672V870.048C849.762 870.048 856.758 873.774 861.878 881.375L866.337 878.372ZM840.613 864.672C829.828 864.672 821.184 869.299 814.91 878.341L819.327 881.406C824.63 873.763 831.649 870.048 840.613 870.048V864.672ZM814.925 878.32C808.688 887.125 805.747 899.42 805.747 914.86H811.124C811.124 899.996 813.972 888.967 819.312 881.427L814.925 878.32ZM805.747 914.86C805.747 930.157 808.698 942.647 814.868 952.084L819.368 949.142C813.962 940.873 811.124 929.528 811.124 914.86H805.747ZM814.868 952.084C821.111 961.632 829.757 966.581 840.613 966.581V961.204C831.72 961.204 824.702 957.3 819.368 949.142L814.868 952.084ZM947.458 998.624H944.77V1001.31H947.458V998.624ZM947.458 832.629V829.941H944.77V832.629H947.458ZM991.383 832.629H994.071V829.941H991.383V832.629ZM991.383 961.849H988.695V964.538H991.383V961.849ZM1054.21 961.849H1056.89V959.161H1054.21V961.849ZM1054.21 998.624V1001.31H1056.89V998.624H1054.21ZM950.146 998.624V832.629H944.77V998.624H950.146ZM947.458 835.317H991.383V829.941H947.458V835.317ZM988.695 832.629V961.849H994.071V832.629H988.695ZM991.383 964.538H1054.21V959.161H991.383V964.538ZM1051.52 961.849V998.624H1056.89V961.849H1051.52ZM1054.21 995.935H947.458V1001.31H1054.21V995.935ZM1082.88 998.624H1080.19V1001.31H1082.88V998.624ZM1082.88 832.629V829.941H1080.19V832.629H1082.88ZM1126.8 832.629H1129.49V829.941H1126.8V832.629ZM1126.8 998.624V1001.31H1129.49V998.624H1126.8ZM1085.57 998.624V832.629H1080.19V998.624H1085.57ZM1082.88 835.317H1126.8V829.941H1082.88V835.317ZM1124.11 832.629V998.624H1129.49V832.629H1124.11ZM1126.8 995.935H1082.88V1001.31H1126.8V995.935ZM1193.3 991.473L1191.92 993.775L1191.93 993.783L1191.94 993.79L1193.3 991.473ZM1166.23 961.594L1163.83 962.796L1163.83 962.796L1166.23 961.594ZM1166.23 868.637L1168.63 869.865L1168.63 869.859L1168.63 869.852L1166.23 868.637ZM1193.3 839.524L1194.64 841.856L1194.64 841.856L1193.3 839.524ZM1274 839.524L1272.67 841.856L1272.67 841.856L1274 839.524ZM1301.07 868.637L1298.67 869.852L1298.68 869.859L1298.68 869.865L1301.07 868.637ZM1301.07 961.594L1298.67 960.392L1301.07 961.594ZM1274 991.473L1275.37 993.79L1275.38 993.783L1275.39 993.775L1274 991.473ZM1257.15 950.613L1254.9 949.142L1254.89 949.157L1254.88 949.173L1257.15 950.613ZM1257.15 879.874L1254.92 881.375L1254.94 881.402L1254.95 881.427L1257.15 879.874ZM1210.16 879.874L1212.35 881.427L1212.36 881.417L1212.37 881.406L1210.16 879.874ZM1210.16 950.613L1207.91 952.084L1207.91 952.084L1210.16 950.613ZM1233.65 999C1218.74 999 1205.78 995.691 1194.67 989.156L1191.94 993.79C1203.99 1000.88 1217.92 1004.38 1233.65 1004.38V999ZM1194.69 989.171C1183.58 982.472 1174.9 972.909 1168.64 960.392L1163.83 962.796C1170.51 976.158 1179.87 986.513 1191.92 993.775L1194.69 989.171ZM1168.64 960.392C1162.4 947.91 1159.22 932.765 1159.22 914.86H1153.84C1153.84 933.389 1157.13 949.4 1163.83 962.796L1168.64 960.392ZM1159.22 914.86C1159.22 896.952 1162.4 881.991 1168.63 869.865L1163.84 867.409C1157.13 880.481 1153.84 896.335 1153.84 914.86H1159.22ZM1168.63 869.852C1174.88 857.515 1183.55 848.216 1194.64 841.856L1191.97 837.192C1179.9 844.112 1170.52 854.221 1163.84 867.422L1168.63 869.852ZM1194.64 841.856C1205.75 835.482 1218.73 832.253 1233.65 832.253V826.876C1217.93 826.876 1204.01 830.286 1191.97 837.192L1194.64 841.856ZM1233.65 832.253C1248.58 832.253 1261.55 835.482 1272.67 841.856L1275.34 837.192C1263.3 830.286 1249.37 826.876 1233.65 826.876V832.253ZM1272.67 841.856C1283.75 848.216 1292.42 857.515 1298.67 869.852L1303.47 867.422C1296.78 854.221 1287.41 844.112 1275.34 837.192L1272.67 841.856ZM1298.68 869.865C1304.91 881.991 1308.09 896.952 1308.09 914.86H1313.47C1313.47 896.335 1310.18 880.481 1303.46 867.409L1298.68 869.865ZM1308.09 914.86C1308.09 932.765 1304.91 947.91 1298.67 960.392L1303.48 962.796C1310.18 949.4 1313.47 933.389 1313.47 914.86H1308.09ZM1298.67 960.392C1292.41 972.909 1283.72 982.472 1272.61 989.171L1275.39 993.775C1287.43 986.513 1296.8 976.158 1303.48 962.796L1298.67 960.392ZM1272.64 989.156C1261.53 995.691 1248.57 999 1233.65 999V1004.38C1249.39 1004.38 1263.32 1000.88 1275.37 993.79L1272.64 989.156ZM1233.65 966.581C1244.67 966.581 1253.33 961.642 1259.42 952.053L1254.88 949.173C1249.73 957.29 1242.73 961.204 1233.65 961.204V966.581ZM1259.4 952.084C1265.57 942.647 1268.52 930.157 1268.52 914.86H1263.14C1263.14 929.528 1260.3 940.873 1254.9 949.142L1259.4 952.084ZM1268.52 914.86C1268.52 899.42 1265.58 887.125 1259.34 878.32L1254.95 881.427C1260.29 888.967 1263.14 899.996 1263.14 914.86H1268.52ZM1259.38 878.372C1253.26 869.289 1244.59 864.672 1233.65 864.672V870.048C1242.8 870.048 1249.8 873.774 1254.92 881.375L1259.38 878.372ZM1233.65 864.672C1222.87 864.672 1214.22 869.299 1207.95 878.341L1212.37 881.406C1217.67 873.763 1224.69 870.048 1233.65 870.048V864.672ZM1207.96 878.32C1201.73 887.125 1198.79 899.42 1198.79 914.86H1204.16C1204.16 899.996 1207.01 888.967 1212.35 881.427L1207.96 878.32ZM1198.79 914.86C1198.79 930.157 1201.74 942.647 1207.91 952.084L1212.41 949.142C1207 940.873 1204.16 929.528 1204.16 914.86H1198.79ZM1207.91 952.084C1214.15 961.632 1222.8 966.581 1233.65 966.581V961.204C1224.76 961.204 1217.74 957.3 1212.41 949.142L1207.91 952.084Z" fill="#2ADE71" mask="url(#path-6-outside-3_605_3487)"/>
<mask id="path-8-outside-4_605_3487" maskUnits="userSpaceOnUse" x="0.625" y="553.774" width="1313" height="178" fill="black">
<rect fill="white" x="0.625" y="553.774" width="1313" height="178"/>
<path d="M4.0121 725.774V559.78H64.7917C76.8795 559.78 88.0309 561.482 98.246 564.887C108.461 568.292 116.633 573.996 122.762 581.997C129.061 589.999 132.211 600.98 132.211 614.941C132.211 628.391 129.061 639.457 122.762 648.14C116.633 656.652 108.461 662.952 98.246 667.038C88.2012 671.124 77.3902 673.167 65.8132 673.167H47.9368V725.774H4.0121ZM47.9368 638.436H63.7702C72.453 638.436 78.8374 636.393 82.9234 632.306C87.1797 628.05 89.3078 622.262 89.3078 614.941C89.3078 607.45 87.0094 602.172 82.4126 599.108C77.8159 596.043 71.2612 594.511 62.7487 594.511H47.9368V638.436ZM229.356 728.839C214.033 728.839 200.583 725.434 189.006 718.624C177.429 711.643 168.406 701.684 161.936 688.745C155.467 675.806 152.232 660.228 152.232 642.011C152.232 623.794 155.467 608.386 161.936 595.788C168.406 583.019 177.429 573.315 189.006 566.675C200.583 560.035 214.033 556.715 229.356 556.715C244.678 556.715 258.128 560.035 269.705 566.675C281.282 573.315 290.306 583.019 296.775 595.788C303.245 608.386 306.479 623.794 306.479 642.011C306.479 660.228 303.245 675.806 296.775 688.745C290.306 701.684 281.282 711.643 269.705 718.624C258.128 725.434 244.678 728.839 229.356 728.839ZM229.356 691.043C239.401 691.043 247.232 686.617 252.85 677.763C258.639 668.91 261.533 656.993 261.533 642.011C261.533 626.858 258.639 615.196 252.85 607.024C247.232 598.682 239.401 594.511 229.356 594.511C219.481 594.511 211.65 598.682 205.861 607.024C200.073 615.196 197.178 626.858 197.178 642.011C197.178 656.993 200.073 668.91 205.861 677.763C211.65 686.617 219.481 691.043 229.356 691.043ZM336.201 725.774V559.78H399.023C410.941 559.78 421.922 561.397 431.967 564.632C442.012 567.696 450.099 573.144 456.228 580.976C462.357 588.807 465.421 599.618 465.421 613.409C465.421 625.326 462.953 635.201 458.015 643.032C453.078 650.864 446.609 656.993 438.607 661.419L474.615 725.774H425.583L396.98 670.102H380.126V725.774H336.201ZM380.126 635.371H395.959C413.665 635.371 422.518 628.05 422.518 613.409C422.518 606.258 420.22 601.321 415.623 598.597C411.196 595.873 404.642 594.511 395.959 594.511H380.126V635.371ZM523.737 725.774V596.554H479.812V559.78H611.586V596.554H567.662V725.774H523.737ZM636.218 725.774V559.78H744.498V596.554H680.143V628.22H735.304V664.995H680.143V725.774H636.218ZM840.613 728.839C825.29 728.839 811.841 725.434 800.264 718.624C788.687 711.643 779.663 701.684 773.194 688.745C766.724 675.806 763.489 660.228 763.489 642.011C763.489 623.794 766.724 608.386 773.194 595.788C779.663 583.019 788.687 573.315 800.264 566.675C811.841 560.035 825.29 556.715 840.613 556.715C855.936 556.715 869.385 560.035 880.962 566.675C892.54 573.315 901.563 583.019 908.032 595.788C914.502 608.386 917.737 623.794 917.737 642.011C917.737 660.228 914.502 675.806 908.032 688.745C901.563 701.684 892.54 711.643 880.962 718.624C869.385 725.434 855.936 728.839 840.613 728.839ZM840.613 691.043C850.658 691.043 858.489 686.617 864.108 677.763C869.896 668.91 872.79 656.993 872.79 642.011C872.79 626.858 869.896 615.196 864.108 607.024C858.489 598.682 850.658 594.511 840.613 594.511C830.738 594.511 822.907 598.682 817.118 607.024C811.33 615.196 808.436 626.858 808.436 642.011C808.436 656.993 811.33 668.91 817.118 677.763C822.907 686.617 830.738 691.043 840.613 691.043ZM947.458 725.774V559.78H991.383V689H1054.21V725.774H947.458ZM1082.88 725.774V559.78H1126.8V725.774H1082.88ZM1233.65 728.839C1218.33 728.839 1204.88 725.434 1193.3 718.624C1181.73 711.643 1172.7 701.684 1166.23 688.745C1159.76 675.806 1156.53 660.228 1156.53 642.011C1156.53 623.794 1159.76 608.386 1166.23 595.788C1172.7 583.019 1181.73 573.315 1193.3 566.675C1204.88 560.035 1218.33 556.715 1233.65 556.715C1248.98 556.715 1262.43 560.035 1274 566.675C1285.58 573.315 1294.6 583.019 1301.07 595.788C1307.54 608.386 1310.78 623.794 1310.78 642.011C1310.78 660.228 1307.54 675.806 1301.07 688.745C1294.6 701.684 1285.58 711.643 1274 718.624C1262.43 725.434 1248.98 728.839 1233.65 728.839ZM1233.65 691.043C1243.7 691.043 1251.53 686.617 1257.15 677.763C1262.94 668.91 1265.83 656.993 1265.83 642.011C1265.83 626.858 1262.94 615.196 1257.15 607.024C1251.53 598.682 1243.7 594.511 1233.65 594.511C1223.78 594.511 1215.95 598.682 1210.16 607.024C1204.37 615.196 1201.48 626.858 1201.48 642.011C1201.48 656.993 1204.37 668.91 1210.16 677.763C1215.95 686.617 1223.78 691.043 1233.65 691.043Z"/>
</mask>
<path d="M4.0121 725.774H1.32393V728.462H4.0121V725.774ZM4.0121 559.78V557.091H1.32393V559.78H4.0121ZM98.246 564.887L99.096 562.337L99.096 562.337L98.246 564.887ZM122.762 581.997L120.628 583.632L120.639 583.646L120.65 583.66L122.762 581.997ZM122.762 648.14L120.586 646.561L120.581 646.569L122.762 648.14ZM98.246 667.038L97.2476 664.542L97.2403 664.545L97.2331 664.548L98.246 667.038ZM47.9368 673.167V670.479H45.2487V673.167H47.9368ZM47.9368 725.774V728.462H50.625V725.774H47.9368ZM47.9368 638.436H45.2487V641.124H47.9368V638.436ZM82.9234 632.306L81.0226 630.406L81.0226 630.406L82.9234 632.306ZM82.4126 599.108L83.9038 596.871L83.9038 596.871L82.4126 599.108ZM47.9368 594.511V591.823H45.2487V594.511H47.9368ZM6.70027 725.774V559.78H1.32393V725.774H6.70027ZM4.0121 562.468H64.7917V557.091H4.0121V562.468ZM64.7917 562.468C76.6256 562.468 87.4863 564.134 97.3959 567.437L99.096 562.337C88.5755 558.83 77.1334 557.091 64.7917 557.091V562.468ZM97.3959 567.437C107.138 570.685 114.849 576.087 120.628 583.632L124.896 580.363C118.418 571.905 109.784 565.9 99.096 562.337L97.3959 567.437ZM120.65 583.66C126.459 591.039 129.523 601.362 129.523 614.941H134.899C134.899 600.598 131.664 588.959 124.874 580.335L120.65 583.66ZM129.523 614.941C129.523 627.969 126.476 638.443 120.586 646.561L124.938 649.718C131.647 640.471 134.899 628.812 134.899 614.941H129.523ZM120.581 646.569C114.765 654.646 107.013 660.636 97.2476 664.542L99.2443 669.534C109.909 665.268 118.501 658.658 124.944 649.711L120.581 646.569ZM97.2331 664.548C87.5312 668.494 77.0667 670.479 65.8132 670.479V675.855C77.7138 675.855 88.8711 673.753 99.2589 669.528L97.2331 664.548ZM65.8132 670.479H47.9368V675.855H65.8132V670.479ZM45.2487 673.167V725.774H50.625V673.167H45.2487ZM47.9368 723.086H4.0121V728.462H47.9368V723.086ZM47.9368 641.124H63.7702V635.747H47.9368V641.124ZM63.7702 641.124C72.8121 641.124 80.0294 639.002 84.8242 634.207L81.0226 630.406C77.6453 633.783 72.0939 635.747 63.7702 635.747V641.124ZM84.8242 634.207C89.69 629.342 91.996 622.81 91.996 614.941H86.6196C86.6196 621.713 84.6693 626.759 81.0226 630.406L84.8242 634.207ZM91.996 614.941C91.996 606.903 89.5004 600.602 83.9038 596.871L80.9215 601.344C84.5184 603.742 86.6196 607.996 86.6196 614.941H91.996ZM83.9038 596.871C78.6863 593.393 71.5255 591.823 62.7487 591.823V597.199C70.997 597.199 76.9454 598.694 80.9215 601.344L83.9038 596.871ZM62.7487 591.823H47.9368V597.199H62.7487V591.823ZM45.2487 594.511V638.436H50.625V594.511H45.2487ZM189.006 718.624L187.618 720.926L187.631 720.933L187.643 720.941L189.006 718.624ZM161.936 688.745L159.532 689.947L159.532 689.947L161.936 688.745ZM161.936 595.788L164.328 597.016L164.331 597.009L164.334 597.003L161.936 595.788ZM189.006 566.675L190.344 569.007L190.344 569.007L189.006 566.675ZM269.705 566.675L268.368 569.007L268.368 569.007L269.705 566.675ZM296.775 595.788L294.377 597.003L294.381 597.009L294.384 597.016L296.775 595.788ZM296.775 688.745L294.371 687.542L296.775 688.745ZM269.705 718.624L271.068 720.941L271.081 720.933L271.093 720.926L269.705 718.624ZM252.85 677.763L250.601 676.292L250.591 676.308L250.581 676.323L252.85 677.763ZM252.85 607.024L250.621 608.526L250.638 608.552L250.657 608.578L252.85 607.024ZM205.861 607.024L208.055 608.578L208.062 608.567L208.07 608.557L205.861 607.024ZM205.861 677.763L203.611 679.235L203.611 679.235L205.861 677.763ZM229.356 726.151C214.444 726.151 201.478 722.841 190.369 716.307L187.643 720.941C199.689 728.026 213.623 731.527 229.356 731.527V726.151ZM190.394 716.322C179.284 709.623 170.599 700.059 164.341 687.542L159.532 689.947C166.213 703.308 175.574 713.664 187.618 720.926L190.394 716.322ZM164.341 687.542C158.1 675.061 154.92 659.916 154.92 642.011H149.544C149.544 660.54 152.834 676.55 159.532 689.947L164.341 687.542ZM154.92 642.011C154.92 624.102 158.101 609.141 164.328 597.016L159.545 594.56C152.833 607.631 149.544 623.485 149.544 642.011H154.92ZM164.334 597.003C170.585 584.666 179.255 575.366 190.344 569.007L187.669 564.343C175.604 571.263 166.227 581.372 159.538 594.573L164.334 597.003ZM190.344 569.007C201.457 562.633 214.432 559.403 229.356 559.403V554.027C213.634 554.027 199.71 557.437 187.669 564.343L190.344 569.007ZM229.356 559.403C244.28 559.403 257.255 562.633 268.368 569.007L271.043 564.343C259.001 557.437 245.077 554.027 229.356 554.027V559.403ZM268.368 569.007C279.457 575.366 288.127 584.666 294.377 597.003L299.173 594.573C292.485 581.372 283.108 571.263 271.043 564.343L268.368 569.007ZM294.384 597.016C300.61 609.141 303.791 624.102 303.791 642.011H309.168C309.168 623.485 305.879 607.631 299.166 594.56L294.384 597.016ZM303.791 642.011C303.791 659.916 300.612 675.061 294.371 687.542L299.18 689.947C305.878 676.55 309.168 660.54 309.168 642.011H303.791ZM294.371 687.542C288.112 700.059 279.427 709.623 268.317 716.322L271.093 720.926C283.137 713.664 292.499 703.308 299.18 689.947L294.371 687.542ZM268.342 716.307C257.234 722.841 244.268 726.151 229.356 726.151V731.527C245.089 731.527 259.023 728.026 271.068 720.941L268.342 716.307ZM229.356 693.731C240.369 693.731 249.035 688.793 255.12 679.204L250.581 676.323C245.429 684.44 238.433 688.355 229.356 688.355V693.731ZM255.1 679.235C261.271 669.798 264.221 657.307 264.221 642.011H258.845C258.845 656.679 256.007 668.023 250.601 676.292L255.1 679.235ZM264.221 642.011C264.221 626.571 261.281 614.275 255.044 605.47L250.657 608.578C255.997 616.117 258.845 627.146 258.845 642.011H264.221ZM255.08 605.523C248.963 596.44 240.296 591.823 229.356 591.823V597.199C238.505 597.199 245.501 600.924 250.621 608.526L255.08 605.523ZM229.356 591.823C218.571 591.823 209.926 596.45 203.653 605.492L208.07 608.557C213.373 600.914 220.392 597.199 229.356 597.199V591.823ZM203.668 605.47C197.431 614.275 194.49 626.571 194.49 642.011H199.867C199.867 627.146 202.715 616.117 208.055 608.578L203.668 605.47ZM194.49 642.011C194.49 657.307 197.441 669.798 203.611 679.235L208.111 676.292C202.704 668.023 199.867 656.679 199.867 642.011H194.49ZM203.611 679.235C209.854 688.783 218.499 693.731 229.356 693.731V688.355C220.463 688.355 213.445 684.451 208.111 676.292L203.611 679.235ZM336.201 725.774H333.513V728.462H336.201V725.774ZM336.201 559.78V557.091H333.513V559.78H336.201ZM431.967 564.632L431.143 567.191L431.163 567.197L431.183 567.203L431.967 564.632ZM456.228 580.976L458.345 579.319L458.345 579.319L456.228 580.976ZM458.015 643.032L460.289 644.466L460.289 644.466L458.015 643.032ZM438.607 661.419L437.306 659.067L434.942 660.375L436.261 662.732L438.607 661.419ZM474.615 725.774V728.462H479.199L476.961 724.462L474.615 725.774ZM425.583 725.774L423.192 727.003L423.941 728.462H425.583V725.774ZM396.98 670.102L399.372 668.874L398.622 667.414H396.98V670.102ZM380.126 670.102V667.414H377.437V670.102H380.126ZM380.126 725.774V728.462H382.814V725.774H380.126ZM380.126 635.371H377.437V638.059H380.126V635.371ZM415.623 598.597L414.214 600.886L414.233 600.898L414.252 600.909L415.623 598.597ZM380.126 594.511V591.823H377.437V594.511H380.126ZM338.889 725.774V559.78H333.513V725.774H338.889ZM336.201 562.468H399.023V557.091H336.201V562.468ZM399.023 562.468C410.697 562.468 421.396 564.052 431.143 567.191L432.791 562.073C422.448 558.742 411.185 557.091 399.023 557.091V562.468ZM431.183 567.203C440.731 570.116 448.341 575.26 454.111 582.633L458.345 579.319C451.856 571.028 443.292 565.276 432.751 562.061L431.183 567.203ZM454.111 582.633C459.75 589.838 462.733 599.99 462.733 613.409H468.109C468.109 599.246 464.964 587.777 458.345 579.319L454.111 582.633ZM462.733 613.409C462.733 624.963 460.34 634.304 455.741 641.599L460.289 644.466C465.565 636.098 468.109 625.69 468.109 613.409H462.733ZM455.741 641.599C451.043 649.052 444.906 654.863 437.306 659.067L439.908 663.772C448.311 659.123 455.114 652.676 460.289 644.466L455.741 641.599ZM436.261 662.732L472.269 727.087L476.961 724.462L440.953 660.107L436.261 662.732ZM474.615 723.086H425.583V728.462H474.615V723.086ZM427.974 724.546L399.372 668.874L394.589 671.331L423.192 727.003L427.974 724.546ZM396.98 667.414H380.126V672.79H396.98V667.414ZM377.437 670.102V725.774H382.814V670.102H377.437ZM380.126 723.086H336.201V728.462H380.126V723.086ZM380.126 638.059H395.959V632.683H380.126V638.059ZM395.959 638.059C405.115 638.059 412.482 636.177 417.591 631.952C422.798 627.646 425.206 621.293 425.206 613.409H419.83C419.83 620.166 417.811 624.794 414.165 627.809C410.421 630.905 404.509 632.683 395.959 632.683V638.059ZM425.206 613.409C425.206 605.672 422.677 599.653 416.993 596.284L414.252 600.909C417.762 602.989 419.83 606.844 419.83 613.409H425.206ZM417.032 596.307C411.985 593.202 404.842 591.823 395.959 591.823V597.199C404.441 597.199 410.408 598.544 414.214 600.886L417.032 596.307ZM395.959 591.823H380.126V597.199H395.959V591.823ZM377.437 594.511V635.371H382.814V594.511H377.437ZM523.737 725.774H521.049V728.462H523.737V725.774ZM523.737 596.554H526.425V593.866H523.737V596.554ZM479.812 596.554H477.124V599.242H479.812V596.554ZM479.812 559.78V557.091H477.124V559.78H479.812ZM611.586 559.78H614.275V557.091H611.586V559.78ZM611.586 596.554V599.242H614.275V596.554H611.586ZM567.662 596.554V593.866H564.973V596.554H567.662ZM567.662 725.774V728.462H570.35V725.774H567.662ZM526.425 725.774V596.554H521.049V725.774H526.425ZM523.737 593.866H479.812V599.242H523.737V593.866ZM482.5 596.554V559.78H477.124V596.554H482.5ZM479.812 562.468H611.586V557.091H479.812V562.468ZM608.898 559.78V596.554H614.275V559.78H608.898ZM611.586 593.866H567.662V599.242H611.586V593.866ZM564.973 596.554V725.774H570.35V596.554H564.973ZM567.662 723.086H523.737V728.462H567.662V723.086ZM636.218 725.774H633.53V728.462H636.218V725.774ZM636.218 559.78V557.091H633.53V559.78H636.218ZM744.498 559.78H747.186V557.091H744.498V559.78ZM744.498 596.554V599.242H747.186V596.554H744.498ZM680.143 596.554V593.866H677.455V596.554H680.143ZM680.143 628.22H677.455V630.909H680.143V628.22ZM735.304 628.22H737.992V625.532H735.304V628.22ZM735.304 664.995V667.683H737.992V664.995H735.304ZM680.143 664.995V662.306H677.455V664.995H680.143ZM680.143 725.774V728.462H682.831V725.774H680.143ZM638.906 725.774V559.78H633.53V725.774H638.906ZM636.218 562.468H744.498V557.091H636.218V562.468ZM741.81 559.78V596.554H747.186V559.78H741.81ZM744.498 593.866H680.143V599.242H744.498V593.866ZM677.455 596.554V628.22H682.831V596.554H677.455ZM680.143 630.909H735.304V625.532H680.143V630.909ZM732.616 628.22V664.995H737.992V628.22H732.616ZM735.304 662.306H680.143V667.683H735.304V662.306ZM677.455 664.995V725.774H682.831V664.995H677.455ZM680.143 723.086H636.218V728.462H680.143V723.086ZM800.264 718.624L798.876 720.926L798.888 720.933L798.901 720.941L800.264 718.624ZM773.194 688.745L770.789 689.947L770.789 689.947L773.194 688.745ZM773.194 595.788L775.585 597.016L775.588 597.009L775.592 597.003L773.194 595.788ZM800.264 566.675L801.601 569.007L801.601 569.007L800.264 566.675ZM880.962 566.675L879.625 569.007L879.625 569.007L880.962 566.675ZM908.032 595.788L905.634 597.003L905.638 597.009L905.641 597.016L908.032 595.788ZM908.032 688.745L905.628 687.542L908.032 688.745ZM880.962 718.624L882.325 720.941L882.338 720.933L882.351 720.926L880.962 718.624ZM864.108 677.763L861.858 676.292L861.848 676.308L861.838 676.323L864.108 677.763ZM864.108 607.024L861.878 608.526L861.896 608.552L861.914 608.578L864.108 607.024ZM817.118 607.024L819.312 608.578L819.32 608.567L819.327 608.557L817.118 607.024ZM817.118 677.763L814.868 679.235L814.868 679.235L817.118 677.763ZM840.613 726.151C825.701 726.151 812.735 722.841 801.627 716.307L798.901 720.941C810.946 728.026 824.88 731.527 840.613 731.527V726.151ZM801.652 716.322C790.542 709.623 781.856 700.059 775.598 687.542L770.789 689.947C777.47 703.308 786.831 713.664 798.876 720.926L801.652 716.322ZM775.598 687.542C769.357 675.061 766.178 659.916 766.178 642.011H760.801C760.801 660.54 764.091 676.55 770.789 689.947L775.598 687.542ZM766.178 642.011C766.178 624.102 769.358 609.141 775.585 597.016L770.802 594.56C764.09 607.631 760.801 623.485 760.801 642.011H766.178ZM775.592 597.003C781.842 584.666 790.512 575.366 801.601 569.007L798.926 564.343C786.861 571.263 777.484 581.372 770.796 594.573L775.592 597.003ZM801.601 569.007C812.714 562.633 825.689 559.403 840.613 559.403V554.027C824.892 554.027 810.967 557.437 798.926 564.343L801.601 569.007ZM840.613 559.403C855.537 559.403 868.512 562.633 879.625 569.007L882.3 564.343C870.259 557.437 856.334 554.027 840.613 554.027V559.403ZM879.625 569.007C890.714 575.366 899.384 584.666 905.634 597.003L910.43 594.573C903.742 581.372 894.365 571.263 882.3 564.343L879.625 569.007ZM905.641 597.016C911.868 609.141 915.049 624.102 915.049 642.011H920.425C920.425 623.485 917.136 607.631 910.424 594.56L905.641 597.016ZM915.049 642.011C915.049 659.916 911.869 675.061 905.628 687.542L910.437 689.947C917.135 676.55 920.425 660.54 920.425 642.011H915.049ZM905.628 687.542C899.37 700.059 890.685 709.623 879.574 716.322L882.351 720.926C894.395 713.664 903.756 703.308 910.437 689.947L905.628 687.542ZM879.6 716.307C868.491 722.841 855.525 726.151 840.613 726.151V731.527C856.346 731.527 870.28 728.026 882.325 720.941L879.6 716.307ZM840.613 693.731C851.626 693.731 860.292 688.793 866.377 679.204L861.838 676.323C856.687 684.44 849.69 688.355 840.613 688.355V693.731ZM866.358 679.235C872.528 669.798 875.479 657.307 875.479 642.011H870.102C870.102 656.679 867.264 668.023 861.858 676.292L866.358 679.235ZM875.479 642.011C875.479 626.571 872.538 614.275 866.301 605.47L861.914 608.578C867.254 616.117 870.102 627.146 870.102 642.011H875.479ZM866.337 605.523C860.22 596.44 851.554 591.823 840.613 591.823V597.199C849.762 597.199 856.758 600.924 861.878 608.526L866.337 605.523ZM840.613 591.823C829.828 591.823 821.184 596.45 814.91 605.492L819.327 608.557C824.63 600.914 831.649 597.199 840.613 597.199V591.823ZM814.925 605.47C808.688 614.275 805.747 626.571 805.747 642.011H811.124C811.124 627.146 813.972 616.117 819.312 608.578L814.925 605.47ZM805.747 642.011C805.747 657.307 808.698 669.798 814.868 679.235L819.368 676.292C813.962 668.023 811.124 656.679 811.124 642.011H805.747ZM814.868 679.235C821.111 688.783 829.757 693.731 840.613 693.731V688.355C831.72 688.355 824.702 684.451 819.368 676.292L814.868 679.235ZM947.458 725.774H944.77V728.462H947.458V725.774ZM947.458 559.78V557.091H944.77V559.78H947.458ZM991.383 559.78H994.071V557.091H991.383V559.78ZM991.383 689H988.695V691.688H991.383V689ZM1054.21 689H1056.89V686.312H1054.21V689ZM1054.21 725.774V728.462H1056.89V725.774H1054.21ZM950.146 725.774V559.78H944.77V725.774H950.146ZM947.458 562.468H991.383V557.091H947.458V562.468ZM988.695 559.78V689H994.071V559.78H988.695ZM991.383 691.688H1054.21V686.312H991.383V691.688ZM1051.52 689V725.774H1056.89V689H1051.52ZM1054.21 723.086H947.458V728.462H1054.21V723.086ZM1082.88 725.774H1080.19V728.462H1082.88V725.774ZM1082.88 559.78V557.091H1080.19V559.78H1082.88ZM1126.8 559.78H1129.49V557.091H1126.8V559.78ZM1126.8 725.774V728.462H1129.49V725.774H1126.8ZM1085.57 725.774V559.78H1080.19V725.774H1085.57ZM1082.88 562.468H1126.8V557.091H1082.88V562.468ZM1124.11 559.78V725.774H1129.49V559.78H1124.11ZM1126.8 723.086H1082.88V728.462H1126.8V723.086ZM1193.3 718.624L1191.92 720.926L1191.93 720.933L1191.94 720.941L1193.3 718.624ZM1166.23 688.745L1163.83 689.947L1163.83 689.947L1166.23 688.745ZM1166.23 595.788L1168.63 597.016L1168.63 597.009L1168.63 597.003L1166.23 595.788ZM1193.3 566.675L1194.64 569.007L1194.64 569.007L1193.3 566.675ZM1274 566.675L1272.67 569.007L1272.67 569.007L1274 566.675ZM1301.07 595.788L1298.67 597.003L1298.68 597.009L1298.68 597.016L1301.07 595.788ZM1301.07 688.745L1298.67 687.542L1301.07 688.745ZM1274 718.624L1275.37 720.941L1275.38 720.933L1275.39 720.926L1274 718.624ZM1257.15 677.763L1254.9 676.292L1254.89 676.308L1254.88 676.323L1257.15 677.763ZM1257.15 607.024L1254.92 608.526L1254.94 608.552L1254.95 608.578L1257.15 607.024ZM1210.16 607.024L1212.35 608.578L1212.36 608.567L1212.37 608.557L1210.16 607.024ZM1210.16 677.763L1207.91 679.235L1207.91 679.235L1210.16 677.763ZM1233.65 726.151C1218.74 726.151 1205.78 722.841 1194.67 716.307L1191.94 720.941C1203.99 728.026 1217.92 731.527 1233.65 731.527V726.151ZM1194.69 716.322C1183.58 709.623 1174.9 700.059 1168.64 687.542L1163.83 689.947C1170.51 703.308 1179.87 713.664 1191.92 720.926L1194.69 716.322ZM1168.64 687.542C1162.4 675.061 1159.22 659.916 1159.22 642.011H1153.84C1153.84 660.54 1157.13 676.55 1163.83 689.947L1168.64 687.542ZM1159.22 642.011C1159.22 624.102 1162.4 609.141 1168.63 597.016L1163.84 594.56C1157.13 607.631 1153.84 623.485 1153.84 642.011H1159.22ZM1168.63 597.003C1174.88 584.666 1183.55 575.366 1194.64 569.007L1191.97 564.343C1179.9 571.263 1170.52 581.372 1163.84 594.573L1168.63 597.003ZM1194.64 569.007C1205.75 562.633 1218.73 559.403 1233.65 559.403V554.027C1217.93 554.027 1204.01 557.437 1191.97 564.343L1194.64 569.007ZM1233.65 559.403C1248.58 559.403 1261.55 562.633 1272.67 569.007L1275.34 564.343C1263.3 557.437 1249.37 554.027 1233.65 554.027V559.403ZM1272.67 569.007C1283.75 575.366 1292.42 584.666 1298.67 597.003L1303.47 594.573C1296.78 581.372 1287.41 571.263 1275.34 564.343L1272.67 569.007ZM1298.68 597.016C1304.91 609.141 1308.09 624.102 1308.09 642.011H1313.47C1313.47 623.485 1310.18 607.631 1303.46 594.56L1298.68 597.016ZM1308.09 642.011C1308.09 659.916 1304.91 675.061 1298.67 687.542L1303.48 689.947C1310.18 676.55 1313.47 660.54 1313.47 642.011H1308.09ZM1298.67 687.542C1292.41 700.059 1283.72 709.623 1272.61 716.322L1275.39 720.926C1287.43 713.664 1296.8 703.308 1303.48 689.947L1298.67 687.542ZM1272.64 716.307C1261.53 722.841 1248.57 726.151 1233.65 726.151V731.527C1249.39 731.527 1263.32 728.026 1275.37 720.941L1272.64 716.307ZM1233.65 693.731C1244.67 693.731 1253.33 688.793 1259.42 679.204L1254.88 676.323C1249.73 684.44 1242.73 688.355 1233.65 688.355V693.731ZM1259.4 679.235C1265.57 669.798 1268.52 657.307 1268.52 642.011H1263.14C1263.14 656.679 1260.3 668.023 1254.9 676.292L1259.4 679.235ZM1268.52 642.011C1268.52 626.571 1265.58 614.275 1259.34 605.47L1254.95 608.578C1260.29 616.117 1263.14 627.146 1263.14 642.011H1268.52ZM1259.38 605.523C1253.26 596.44 1244.59 591.823 1233.65 591.823V597.199C1242.8 597.199 1249.8 600.924 1254.92 608.526L1259.38 605.523ZM1233.65 591.823C1222.87 591.823 1214.22 596.45 1207.95 605.492L1212.37 608.557C1217.67 600.914 1224.69 597.199 1233.65 597.199V591.823ZM1207.96 605.47C1201.73 614.275 1198.79 626.571 1198.79 642.011H1204.16C1204.16 627.146 1207.01 616.117 1212.35 608.578L1207.96 605.47ZM1198.79 642.011C1198.79 657.307 1201.74 669.798 1207.91 679.235L1212.41 676.292C1207 668.023 1204.16 656.679 1204.16 642.011H1198.79ZM1207.91 679.235C1214.15 688.783 1222.8 693.731 1233.65 693.731V688.355C1224.76 688.355 1217.74 684.451 1212.41 676.292L1207.91 679.235Z" fill="white" fill-opacity="0.3" mask="url(#path-8-outside-4_605_3487)"/>
</g>
</g>
</svg>
