<svg width="1173" height="1173" viewBox="0 0 1173 1173" fill="none" xmlns="http://www.w3.org/2000/svg">
<rect width="1173" height="1173" rx="200" fill="black"/>
<path d="M794.345 294.616C827.406 294.616 849.819 272.148 849.819 239.143C849.819 205.468 827.35 183 794.345 183C760.67 183 738.258 205.468 738.258 239.087C738.202 272.148 760.67 294.616 794.345 294.616Z" fill="#2ADE71"/>
<path d="M890.971 619.374C883.5 619.374 849.825 600.028 849.825 553.921V349.421C849.825 326.339 836.11 318.255 814.311 318.255C782.532 318.255 707.099 353.156 707.099 378.133C707.099 389.953 715.796 395.584 725.776 395.584C746.962 395.584 758.837 417.383 758.837 437.342C758.837 437.342 758.837 553.865 758.837 553.921C758.837 567.859 755.381 582.02 748.244 594.062C742.167 604.321 733.247 614.412 721.427 617.869C703.698 622.998 682.624 614.022 669.355 602.481C659.375 593.784 651.179 583.135 644.043 572.04C614.104 522.142 586.674 478.488 542.406 454.18C609.142 437.956 658.371 396.81 658.371 338.828C658.371 264.677 586.674 214.166 479.462 214.166H283.102C275.631 214.166 270 219.183 270 229.776C270 240.369 274.962 247.227 282.489 247.227C300.552 247.227 326.143 275.27 326.143 317.029V887.097C326.143 928.856 300.608 956.899 282.489 956.899C275.018 956.899 270 963.757 270 974.35C270 984.943 275.631 989.905 283.102 989.905H463.851C471.322 989.905 476.953 984.943 476.953 974.35C476.953 963.757 471.991 956.899 464.464 956.899C446.401 956.899 420.81 928.856 420.81 887.097V461.037H439.487C524.9 461.037 519.882 555.147 548.595 621.27C554.839 635.598 569.781 650.54 594.702 650.54H702.639C705.817 650.54 715.295 650.54 718.25 650.54H890.302C897.159 650.54 902.121 645.578 902.121 635.598C902.177 625.618 897.772 619.374 890.971 619.374ZM479.462 432.38H420.866V242.265L479.462 242.878C550.546 243.491 561.139 296.512 561.139 338.884C561.139 381.255 539.284 432.38 479.462 432.38Z" fill="white"/>
<path d="M610.73 824.456C610.73 811.885 602.187 803.363 589.637 803.363C576.832 803.363 568.289 811.906 568.289 824.456C568.289 837.261 576.832 845.783 589.616 845.783C602.187 845.804 610.73 837.261 610.73 824.456Z" fill="white"/>
<path d="M725.195 824.456C725.195 811.885 716.652 803.363 704.102 803.363C691.297 803.363 682.754 811.906 682.754 824.456C682.754 837.261 691.297 845.783 704.081 845.783C716.652 845.804 725.195 837.261 725.195 824.456Z" fill="#2ADE71"/>
<path d="M902.267 824.211C902.267 793.094 881.12 772 850.056 772C818.362 772 797.215 793.147 797.215 824.211C797.215 855.905 818.362 877 850.003 877C881.12 877.052 902.267 855.905 902.267 824.211Z" fill="white"/>
<path d="M870.875 824.456C870.875 811.885 862.332 803.363 849.781 803.363C836.977 803.363 828.434 811.906 828.434 824.456C828.434 837.261 836.977 845.783 849.76 845.783C862.332 845.804 870.875 837.261 870.875 824.456Z" fill="black"/>
</svg>
