<svg width="503" height="502" viewBox="0 0 503 502" fill="none" xmlns="http://www.w3.org/2000/svg">
<rect x="61.248" y="32.9727" width="380.794" height="436.521" fill="black"/>
<path d="M54.6167 0.46582C24.95 0.46582 0.880859 24.535 0.880859 54.2016V448.264C0.880859 477.931 24.95 502 54.6167 502H448.679C478.346 502 502.415 477.931 502.415 448.264V54.2016C502.415 24.535 478.346 0.46582 448.679 0.46582H54.6167ZM165.312 86.9237C187.295 86.9237 206.826 94.524 221.208 105.923C234.507 116.504 240.736 127.089 246.17 136.589L208.194 155.563C205.477 149.333 202.208 142.816 193.813 135.768C184.579 128.434 175.366 126.271 167.478 126.271C136.55 126.271 120.268 155.034 120.268 187.045C120.268 229.108 141.719 249.983 167.478 249.983C192.442 249.983 202.493 232.619 208.988 221.508L246.722 240.772C239.653 251.884 232.87 262.753 217.671 273.314C209.541 279.012 190.829 290.148 164.231 290.148C113.486 290.148 72.5286 253.254 72.5286 188.39C72.5286 131.704 111.056 86.9237 165.312 86.9237ZM249.815 92.8884H300.825L340.435 229.106L379.757 92.8884H430.767L364.293 284.448H315.47L249.815 92.8884Z" fill="white"/>
<path d="M103.406 430.465C98.4847 430.465 93.9197 429.538 89.7114 427.683C85.5031 425.757 81.8654 423.225 78.7983 420.087L84.1479 413.881C86.6443 416.52 89.5688 418.66 92.9211 420.301C96.3448 421.87 99.8755 422.654 103.513 422.654C108.15 422.654 111.752 421.62 114.319 419.552C116.887 417.412 118.171 414.63 118.171 411.206C118.171 408.781 117.636 406.855 116.566 405.429C115.568 404.002 114.177 402.79 112.393 401.791C110.682 400.793 108.72 399.794 106.509 398.795L96.4518 394.409C94.2407 393.482 92.0295 392.269 89.8184 390.771C87.6786 389.273 85.8597 387.347 84.3619 384.994C82.9353 382.64 82.222 379.751 82.222 376.327C82.222 372.761 83.1493 369.587 85.0038 366.805C86.9296 363.952 89.5688 361.741 92.9211 360.172C96.2735 358.531 100.054 357.711 104.262 357.711C108.47 357.711 112.358 358.531 115.924 360.172C119.491 361.741 122.522 363.809 125.018 366.377L120.204 372.155C118.064 370.086 115.675 368.481 113.035 367.34C110.468 366.128 107.543 365.521 104.262 365.521C100.339 365.521 97.1651 366.449 94.74 368.303C92.3862 370.158 91.2093 372.654 91.2093 375.792C91.2093 378.004 91.7799 379.858 92.9211 381.356C94.1337 382.783 95.6316 383.959 97.4148 384.887C99.1979 385.814 101.017 386.67 102.871 387.454L112.821 391.734C115.532 392.875 117.957 394.266 120.097 395.907C122.308 397.476 124.055 399.437 125.339 401.791C126.623 404.074 127.265 406.962 127.265 410.457C127.265 414.167 126.302 417.555 124.376 420.622C122.451 423.617 119.705 426.007 116.138 427.79C112.572 429.573 108.328 430.465 103.406 430.465ZM140.23 451.114V377.183H147.506L148.255 383.175H148.576C150.929 381.178 153.497 379.466 156.279 378.039C159.132 376.613 162.092 375.899 165.159 375.899C171.864 375.899 176.964 378.325 180.459 383.175C183.954 387.954 185.701 394.373 185.701 402.433C185.701 408.282 184.632 413.311 182.492 417.519C180.423 421.727 177.677 424.937 174.253 427.148C170.901 429.359 167.228 430.465 163.233 430.465C160.808 430.465 158.383 429.93 155.958 428.86C153.604 427.79 151.215 426.328 148.79 424.473L149.004 433.568V451.114H140.23ZM161.736 423.082C166.015 423.082 169.546 421.264 172.328 417.626C175.181 413.917 176.607 408.853 176.607 402.433C176.607 396.727 175.537 392.126 173.398 388.631C171.329 385.065 167.834 383.282 162.912 383.282C160.701 383.282 158.454 383.888 156.172 385.101C153.961 386.313 151.571 388.061 149.004 390.343V417.626C151.357 419.623 153.64 421.05 155.851 421.906C158.062 422.69 160.024 423.082 161.736 423.082ZM210.097 430.465C205.746 430.465 202.108 429.181 199.184 426.613C196.331 423.974 194.904 420.336 194.904 415.7C194.904 409.994 197.436 405.643 202.501 402.647C207.636 399.58 215.732 397.44 226.788 396.228C226.788 394.017 226.467 391.912 225.825 389.915C225.254 387.918 224.184 386.313 222.615 385.101C221.117 383.817 218.942 383.175 216.089 383.175C213.093 383.175 210.275 383.745 207.636 384.887C204.997 386.028 202.643 387.312 200.575 388.738L197.151 382.64C199.576 381.071 202.536 379.573 206.031 378.146C209.598 376.648 213.449 375.899 217.586 375.899C223.935 375.899 228.535 377.861 231.388 381.784C234.241 385.636 235.668 390.807 235.668 397.298V429.181H228.393L227.644 422.975H227.323C224.897 424.973 222.223 426.72 219.298 428.218C216.445 429.716 213.378 430.465 210.097 430.465ZM212.665 423.403C215.161 423.403 217.515 422.797 219.726 421.585C221.937 420.372 224.291 418.66 226.788 416.449V402.005C218.157 403.075 212.094 404.68 208.599 406.82C205.175 408.96 203.464 411.706 203.464 415.058C203.464 417.983 204.355 420.122 206.138 421.478C207.922 422.761 210.097 423.403 212.665 423.403ZM252.027 429.181V377.183H259.303L260.052 384.673H260.373C262.869 382.176 265.508 380.108 268.29 378.467C271.072 376.755 274.246 375.899 277.812 375.899C283.304 375.899 287.299 377.647 289.795 381.142C292.363 384.566 293.647 389.594 293.647 396.228V429.181H284.874V397.405C284.874 392.554 284.089 389.024 282.52 386.813C280.951 384.601 278.454 383.496 275.031 383.496C272.391 383.496 270.002 384.173 267.862 385.529C265.794 386.884 263.44 388.881 260.801 391.52V429.181H252.027ZM310.538 429.181V377.183H319.311V429.181H310.538ZM315.032 366.484C313.32 366.484 311.893 365.985 310.752 364.986C309.682 363.916 309.147 362.49 309.147 360.707C309.147 358.995 309.682 357.604 310.752 356.534C311.893 355.464 313.32 354.929 315.032 354.929C316.744 354.929 318.134 355.464 319.204 356.534C320.346 357.604 320.916 358.995 320.916 360.707C320.916 362.49 320.346 363.916 319.204 364.986C318.134 365.985 316.744 366.484 315.032 366.484ZM350.456 430.465C346.747 430.465 343.216 429.787 339.864 428.432C336.511 427.005 333.587 425.294 331.09 423.296L335.477 417.412C337.76 419.195 340.113 420.693 342.538 421.906C344.964 423.047 347.71 423.617 350.777 423.617C354.2 423.617 356.768 422.833 358.48 421.264C360.192 419.623 361.048 417.697 361.048 415.486C361.048 413.703 360.442 412.205 359.229 410.992C358.088 409.78 356.59 408.781 354.735 407.997C352.952 407.141 351.098 406.356 349.172 405.643C346.747 404.716 344.357 403.681 342.003 402.54C339.65 401.328 337.724 399.794 336.226 397.94C334.728 396.014 333.979 393.589 333.979 390.664C333.979 386.456 335.548 382.961 338.687 380.179C341.896 377.326 346.319 375.899 351.954 375.899C355.163 375.899 358.159 376.47 360.941 377.611C363.723 378.753 366.112 380.143 368.109 381.784L363.83 387.347C362.046 385.992 360.192 384.887 358.266 384.031C356.34 383.175 354.236 382.747 351.954 382.747C348.673 382.747 346.247 383.496 344.678 384.994C343.18 386.492 342.431 388.239 342.431 390.236C342.431 391.877 342.966 393.232 344.036 394.302C345.106 395.3 346.497 396.192 348.209 396.977C349.921 397.69 351.74 398.439 353.665 399.223C356.162 400.151 358.623 401.221 361.048 402.433C363.473 403.574 365.47 405.144 367.039 407.141C368.68 409.067 369.5 411.67 369.5 414.951C369.5 417.733 368.751 420.301 367.253 422.654C365.827 425.008 363.687 426.898 360.834 428.325C358.052 429.752 354.593 430.465 350.456 430.465ZM381.691 429.181V353.003H390.465V373.76L390.144 384.459C392.64 382.105 395.243 380.108 397.954 378.467C400.736 376.755 403.91 375.899 407.476 375.899C412.968 375.899 416.963 377.647 419.459 381.142C422.027 384.566 423.311 389.594 423.311 396.228V429.181H414.537V397.405C414.537 392.554 413.753 389.024 412.184 386.813C410.614 384.601 408.118 383.496 404.694 383.496C402.055 383.496 399.666 384.173 397.526 385.529C395.457 386.884 393.104 388.881 390.465 391.52V429.181H381.691Z" fill="black"/>
</svg>
