<svg width="527" height="514" viewBox="0 0 527 514" fill="none" xmlns="http://www.w3.org/2000/svg">
<path d="M439.598 0.154785H88.0382C39.7817 0.154785 0.662109 39.2744 0.662109 87.5309V425.933C0.662109 474.19 39.7817 513.309 88.0382 513.309H439.598C487.855 513.309 526.974 474.19 526.974 425.933V87.5309C526.974 39.2744 487.855 0.154785 439.598 0.154785Z" fill="#00005B"/>
<path d="M212.11 307.169H130.55L113.955 358.816C113.742 359.701 113.245 360.492 112.538 361.066C111.832 361.641 110.957 361.968 110.047 361.996L68.4106 361.994C66.0545 361.994 65.2301 360.699 65.9394 358.108L136.554 155.583L137.259 153.455L137.493 152.727L137.966 151.206C138.2 150.421 138.435 149.588 138.671 148.685C139.596 143.975 140.069 139.187 140.084 134.387C140.036 134.051 140.067 133.709 140.174 133.387C140.282 133.066 140.462 132.773 140.702 132.534C140.942 132.294 141.234 132.113 141.556 132.006C141.877 131.899 142.219 131.868 142.555 131.915H198.693C200.338 131.915 201.278 132.503 201.518 133.681L281.664 358.464C282.369 360.818 281.664 361.996 279.546 361.994H233.646C232.858 362.082 232.065 361.879 231.415 361.424C230.765 360.969 230.304 360.293 230.116 359.523L212.11 307.169ZM143.262 263.623H199.047L198.251 260.998L196.975 256.841L195.106 250.887L191.518 239.647L188.101 228.845L181.745 208.72C179.988 203.164 178.302 197.587 176.687 191.989L174.882 185.624L172.933 178.648L171.153 172.178H170.799C169.033 180.653 166.882 189.043 164.352 197.322L161.967 204.976L156.231 223.479L153.324 232.906C152.797 234.608 152.275 236.292 151.751 237.955L150.188 242.885L148.634 247.7L147.088 252.396L145.55 256.974C144.786 259.236 144.021 261.45 143.262 263.623ZM411.595 287.069H342.042C342.894 293.95 345.179 300.576 348.75 306.519C352.698 312.405 358.282 317.008 364.813 319.76C373.665 323.59 383.239 325.467 392.882 325.261C400.533 325.115 408.155 324.278 415.655 322.761C422.364 321.856 428.937 320.143 435.234 317.658C436.41 316.721 437.002 317.305 437.002 319.422V352.964C437.06 353.879 436.877 354.792 436.469 355.612C436.067 356.254 435.524 356.797 434.882 357.202C427.898 360.296 420.547 362.486 413.007 363.719C402.766 365.642 392.356 366.528 381.937 366.365C365.744 366.365 352.095 363.935 340.989 359.077L339.92 358.598C329.244 353.894 319.814 346.761 312.383 337.767C305.441 329.293 300.278 319.506 297.2 308.993C294.155 298.615 292.61 287.855 292.614 277.04C292.581 265.23 294.429 253.491 298.086 242.262C301.609 231.309 307.18 221.126 314.503 212.252C321.726 203.481 330.759 196.375 340.983 191.419C351.338 186.362 363.579 184.547 377.701 184.547C389.414 184.25 401.048 186.541 411.774 191.255C420.792 195.101 428.732 201.098 434.899 208.72C440.683 216.184 445.105 224.61 447.962 233.611C450.744 242.285 452.173 251.335 452.199 260.445C452.199 265.625 452.022 270.333 451.671 274.569L451.356 278.195L451.027 281.637L450.832 283.38C450.817 283.503 450.802 283.626 450.787 283.748C450.695 284.526 450.321 285.244 449.736 285.765C449.15 286.285 448.394 286.573 447.61 286.573L446.642 286.594L445.435 286.655L444.496 286.723L442.3 286.91L440.372 287.101C439.847 287.157 439.303 287.208 438.737 287.256L436.988 287.393L435.119 287.517L433.135 287.62L431.034 287.708L429.938 287.745L427.662 287.807C425.411 287.862 423.104 287.722 420.738 287.55L417.148 287.286C415.301 287.151 413.447 287.078 411.595 287.069ZM342.044 254.904H390.123L394.219 254.877L397.002 254.838L398.805 254.797L400.828 254.727C402.639 254.546 404.387 253.967 405.947 253.031V250.913C405.877 248.152 405.402 245.416 404.537 242.792C402.632 236.769 398.803 231.537 393.636 227.901C388.47 224.265 382.253 222.425 375.939 222.665C369.997 222.306 364.079 223.684 358.906 226.63C353.734 229.577 349.53 233.966 346.809 239.26C344.391 244.186 342.781 249.467 342.044 254.904Z" fill="#9999FF"/>
</svg>
