<svg width="503" height="502" viewBox="0 0 503 502" fill="none" xmlns="http://www.w3.org/2000/svg">
<rect x="47.3203" y="88.2332" width="408.658" height="329.712" fill="black"/>
<path d="M209.667 292.188C209.667 313.795 193.994 320.624 174.739 320.624H124.249V261.402H175.746C196.569 261.514 209.667 270.134 209.667 292.188ZM201.047 200.054C201.047 180.239 185.71 175.537 168.693 175.537H124.361V225.69H172.164C189.068 225.69 201.047 218.302 201.047 200.054ZM349.156 226.026C328.669 226.026 315.011 238.789 313.668 259.275H383.301C381.398 238.565 370.65 226.026 349.156 226.026ZM502.415 53.7358V447.798C502.415 477.465 478.346 501.534 448.679 501.534H54.6167C24.95 501.534 0.880859 477.465 0.880859 447.798V53.7358C0.880859 24.0692 24.95 0 54.6167 0H448.679C478.346 0 502.415 24.0692 502.415 53.7358ZM305.048 171.283H392.145V150.124H305.048V171.283ZM256.91 294.763C256.91 267.783 244.147 244.498 217.727 236.997C236.983 227.817 247.058 217.182 247.058 195.576C247.058 152.811 215.152 142.4 178.321 142.4H77.0066V357.343H181.232C220.302 357.119 256.91 338.424 256.91 294.763ZM426.289 278.195C426.289 232.183 399.309 193.785 350.611 193.785C303.145 193.785 271.015 229.385 271.015 276.18C271.015 324.654 301.577 357.903 350.611 357.903C387.779 357.903 411.848 341.222 423.491 305.51H385.764C381.621 318.832 364.941 325.773 351.955 325.773C326.878 325.773 313.78 311.108 313.78 286.255H425.954C426.065 283.68 426.289 280.882 426.289 278.195Z" fill="white"/>
</svg>
