<svg width="363" height="512" viewBox="0 0 363 512" fill="none" xmlns="http://www.w3.org/2000/svg">
<path d="M181.549 511.035L33.6953 469.989L0.746094 100.434H362.794L329.811 469.932L181.549 511.035Z" fill="#264DE4"/>
<path d="M301.569 446.403L329.754 130.649H181.766V479.616L301.569 446.403Z" fill="#2965F1"/>
<path d="M76.2842 267.714L80.3459 313.039H181.774V267.714H76.2842ZM68.1211 175.977L72.241 221.301H181.774V175.977H68.1211ZM181.774 385.427L181.575 385.48L131.097 371.85L127.87 335.702H82.3711L88.7206 406.868L181.565 432.641L181.774 432.584V385.427Z" fill="#EBEBEB"/>
<path d="M85.957 0H140.851V22.9567H108.914V45.9135H140.854V68.8688H85.957V0ZM151.831 0H206.727V19.9623H174.788V23.9544H206.727V69.8679H151.833V48.9051H183.772V44.9129H151.83L151.831 0ZM217.707 0H272.603V19.9623H240.664V23.9544H272.603V69.8679H217.707V48.9051H249.646V44.9129H217.708L217.707 0Z" fill="white"/>
<path d="M286.969 267.714L295.15 175.977H181.613V221.301H245.479L241.355 267.714H181.613V313.039H237.425L232.163 371.821L181.611 385.465V432.619L274.53 406.868L275.211 399.21L285.863 279.885L286.969 267.714Z" fill="white"/>
</svg>
