<svg width="513" height="554" viewBox="0 0 513 554" fill="none" xmlns="http://www.w3.org/2000/svg">
<path fill-rule="evenodd" clip-rule="evenodd" d="M13.3797 12.9979C21.3638 5.01617 32.1912 0.532275 43.4808 0.532275C54.7704 0.532275 65.5978 5.01617 73.5819 12.9979L256.36 195.776L439.138 12.9979C443.066 8.93148 447.764 5.68796 452.958 3.4566C458.152 1.22524 463.739 0.0507322 469.392 0.00160754C475.046 -0.0475172 480.652 1.02972 485.884 3.17047C491.117 5.31122 495.87 8.47261 499.868 12.4702C503.866 16.4677 507.027 21.2214 509.168 26.4538C511.308 31.6862 512.386 37.2926 512.337 42.9458C512.287 48.599 511.113 54.1858 508.882 59.3802C506.65 64.5746 503.407 69.2726 499.34 73.2001L286.461 286.079C278.477 294.061 267.65 298.545 256.36 298.545C245.07 298.545 234.243 294.061 226.259 286.079L13.3797 73.2001C5.39796 65.216 0.914062 54.3886 0.914062 43.099C0.914062 31.8094 5.39796 20.9821 13.3797 12.9979ZM13.3797 268.453C21.3638 260.471 32.1912 255.987 43.4808 255.987C54.7704 255.987 65.5978 260.471 73.5819 268.453L256.36 451.231L439.138 268.453C447.168 260.697 457.923 256.406 469.086 256.503C480.249 256.6 490.928 261.078 498.822 268.972C506.716 276.865 511.193 287.544 511.29 298.707C511.387 309.871 507.096 320.625 499.34 328.655L286.461 541.534C278.477 549.516 267.65 554 256.36 554C245.07 554 234.243 549.516 226.259 541.534L13.3797 328.655C5.39796 320.671 0.914062 309.844 0.914062 298.554C0.914062 287.264 5.39796 276.437 13.3797 268.453Z" fill="white"/>
</svg>
