<svg width="502" height="502" viewBox="0 0 502 502" fill="none" xmlns="http://www.w3.org/2000/svg">
<rect x="65.043" y="60.3699" width="366.863" height="436.521" fill="black"/>
<path d="M473.975 27.5883C455.575 9.18772 433.434 0 407.527 0H94.0654C68.159 0 46.0181 9.18772 27.6176 27.5883C9.21702 45.9888 0.0292969 68.1297 0.0292969 94.0361V407.498C0.0292969 433.404 9.21702 455.545 27.6176 473.946C46.0181 492.346 68.159 501.534 94.0654 501.534H167.216C171.985 501.534 175.575 501.358 177.985 501.032C180.789 500.47 183.319 498.975 185.164 496.79C187.549 494.279 188.754 490.639 188.754 485.87L188.578 463.654C188.478 449.496 188.428 438.3 188.428 430.016L180.897 431.321C176.127 432.2 170.103 432.576 162.798 432.476C155.184 432.335 147.594 431.571 140.104 430.191C132.132 428.719 124.627 425.363 118.215 420.401C111.499 415.321 106.491 408.316 103.856 400.319L100.592 392.788C97.8416 386.847 94.386 381.259 90.2999 376.144C85.6308 370.044 80.8863 365.927 76.0916 363.743L73.8323 362.112C72.2569 360.983 70.824 359.669 69.5648 358.196C68.3622 356.829 67.3721 355.289 66.6277 353.627C65.9751 352.096 66.5273 350.841 68.2594 349.861C70.0167 348.857 73.1545 348.38 77.7484 348.38L84.2752 349.385C88.618 350.238 94.0152 352.849 100.416 357.192C106.895 361.608 112.306 367.414 116.257 374.186C121.277 383.098 127.302 389.901 134.381 394.595C141.46 399.264 148.589 401.624 155.769 401.624C162.948 401.624 169.149 401.072 174.395 399.992C179.469 398.943 184.399 397.291 189.081 395.072C191.039 380.512 196.36 369.266 205.071 361.434C193.784 360.327 182.598 358.364 171.609 355.56C160.885 352.614 150.571 348.338 140.908 342.833C130.797 337.328 121.867 329.891 114.625 320.943C107.671 312.232 101.948 300.81 97.4794 286.677C93.0362 272.519 90.802 256.177 90.802 237.676C90.802 211.343 99.3872 188.926 116.583 170.4C108.55 150.618 109.303 128.402 118.867 103.826C125.193 101.843 134.557 103.324 146.958 108.219C159.358 113.114 168.446 117.307 174.219 120.771C179.993 124.285 184.612 127.222 188.101 129.607C208.51 123.928 229.6 121.073 250.784 121.122C272.347 121.122 293.233 123.959 313.491 129.607L325.892 121.775C335.431 116.048 345.492 111.24 355.941 107.416C367.488 103.048 376.274 101.868 382.399 103.826C392.189 128.427 393.043 150.618 384.985 170.425C402.18 188.926 410.791 211.343 410.791 237.701C410.791 256.202 408.557 272.594 404.088 286.828C399.645 301.086 393.871 312.508 386.792 321.118C379.422 329.952 370.455 337.318 360.359 342.833C349.815 348.707 339.573 352.949 329.658 355.56C318.669 358.373 307.483 360.345 296.195 361.459C307.492 371.249 313.165 386.688 313.165 407.799V485.87C313.165 489.56 313.692 492.547 314.797 494.832C315.304 495.932 316.028 496.919 316.925 497.735C317.822 498.55 318.874 499.176 320.018 499.576C322.428 500.43 324.537 500.982 326.394 501.183C328.252 501.434 330.913 501.509 334.377 501.509H407.527C433.434 501.509 455.575 492.321 473.975 473.921C492.351 455.545 501.564 433.379 501.564 407.473V94.0361C501.564 68.1297 492.376 45.9888 473.975 27.5883Z" fill="white"/>
</svg>
