<svg width="363" height="512" viewBox="0 0 363 512" fill="none" xmlns="http://www.w3.org/2000/svg">
<path d="M362.197 100.429L329.214 469.928L180.951 511.03L33.0977 469.984L0.148438 100.429H362.197Z" fill="#E44D26"/>
<path d="M181.17 479.619L300.973 446.405L329.158 130.651H181.17V479.619Z" fill="#F16529"/>
<path d="M117.057 221.294H181.176V175.97H67.5234L68.6077 188.129L79.7483 313.032H181.176V267.707H121.2L117.057 221.294ZM127.273 335.695H81.7735L88.1229 406.861L180.967 432.634L181.176 432.577V385.42L180.977 385.473L130.5 371.843L127.273 335.695Z" fill="#EBEBEB"/>
<path d="M33.8438 0H56.8771V22.7566H77.9478V0H100.983V68.9128H77.9492V45.8368H56.8785V68.9128H33.8452L33.8438 0ZM131.271 22.8531H110.996V0H174.596V22.8531H154.308V68.9128H131.275V22.8531H131.271ZM184.689 0H208.706L223.48 24.2141L238.239 0H262.266V68.9128H239.326V34.7558L223.48 59.2581H223.082L207.226 34.7558V68.9128H184.689V0ZM273.729 0H296.769V46.1349H329.161V68.9128H273.727L273.729 0Z" fill="white"/>
<path d="M181.015 313.032H236.827L231.565 371.815L181.014 385.459V432.612L273.932 406.861L274.613 399.203L285.266 279.878L286.371 267.707H181.015V313.032ZM181.015 221.184V221.294H290.495L291.404 211.107L293.47 188.129L294.553 175.97H181.015V221.184Z" fill="white"/>
</svg>
