<svg width="527" height="514" viewBox="0 0 527 514" fill="none" xmlns="http://www.w3.org/2000/svg">
<path d="M439.344 0.227051H87.7843C39.5278 0.227051 0.408203 39.3466 0.408203 87.6031V426.005C0.408203 474.262 39.5278 513.382 87.7843 513.382H439.344C487.601 513.382 526.721 474.262 526.721 426.005V87.6031C526.721 39.3466 487.601 0.227051 439.344 0.227051Z" fill="#330000"/>
<path d="M255.461 308.181H173.903L157.308 359.729C157.082 360.669 156.535 361.501 155.762 362.081C154.988 362.662 154.036 362.954 153.07 362.907H111.761C109.407 362.907 108.583 361.612 109.29 359.022L179.904 155.655C180.609 153.538 181.317 151.126 182.022 148.419C182.947 143.707 183.42 138.92 183.434 134.12C183.386 133.784 183.417 133.442 183.524 133.12C183.631 132.798 183.812 132.505 184.052 132.266C184.291 132.026 184.584 131.845 184.905 131.737C185.227 131.63 185.57 131.599 185.905 131.647H242.044C243.689 131.647 244.63 132.237 244.869 133.415L325.014 359.375C325.721 361.731 325.014 362.91 322.897 362.907H276.996C276.208 362.995 275.415 362.792 274.765 362.337C274.116 361.883 273.654 361.207 273.466 360.436L255.461 308.181ZM186.613 263.695H242.398L241.602 261.07L240.325 256.913L239.414 253.994L237.961 249.397L234.871 239.72L232.153 231.14L225.095 208.792C223.338 203.237 221.652 197.66 220.038 192.061L218.746 187.518L217.237 182.146L214.935 173.819L214.503 172.251H214.151C212.385 180.725 210.234 189.115 207.704 197.395L202.466 214.245L199.583 223.554L196.674 232.978C196.148 234.68 195.626 236.364 195.101 238.027L193.539 242.958L191.985 247.772L190.439 252.468L188.901 257.047C188.391 258.554 187.881 260.04 187.373 261.508L186.613 263.695ZM372.674 169.072C369.073 169.217 365.482 168.6 362.136 167.261C358.79 165.923 355.764 163.893 353.256 161.305C350.755 158.605 348.812 155.436 347.54 151.983C346.267 148.529 345.69 144.858 345.841 141.18C345.713 137.539 346.354 133.912 347.723 130.536C349.092 127.16 351.157 124.111 353.785 121.587C358.853 116.722 365.602 113.999 372.627 113.986L373.379 113.995C381.854 113.995 388.505 116.523 393.33 121.585C395.765 124.215 397.658 127.299 398.9 130.662C400.142 134.024 400.708 137.598 400.567 141.18C400.715 144.872 400.119 148.557 398.815 152.014C397.511 155.472 395.526 158.632 392.976 161.307C390.403 163.844 387.347 165.84 383.99 167.179C380.633 168.517 377.042 169.17 373.429 169.099L372.674 169.072ZM348.312 359.375V190.61C348.312 188.492 349.249 187.432 351.137 187.432H394.566C396.447 187.432 397.388 188.49 397.39 190.61V359.375C397.39 361.731 396.449 362.91 394.566 362.907H351.49C349.484 362.907 348.427 361.851 348.322 359.737L348.312 359.375Z" fill="#FF9A00"/>
</svg>
