<svg width="512" height="512" viewBox="0 0 512 512" fill="none" xmlns="http://www.w3.org/2000/svg">
<path d="M0.427734 0H511.459V511.031H0.427734V0Z" fill="#F5DE19"/>
<path d="M343.711 399.249C348.065 408.094 354.83 415.528 363.225 420.694C371.621 425.861 381.306 428.55 391.164 428.451C411.057 428.451 423.778 418.504 423.778 404.725C423.778 388.299 410.711 382.422 388.809 372.84L376.8 367.693C342.123 352.928 319.126 334.44 319.126 295.346C319.126 259.336 346.503 231.905 389.448 231.905C403.35 230.901 417.24 234.012 429.385 240.851C441.53 247.689 451.393 257.953 457.744 270.36L420.201 294.36C417.756 288.208 413.498 282.945 407.993 279.268C402.488 275.591 395.995 273.675 389.375 273.773C386.487 273.484 383.57 273.799 380.811 274.7C378.052 275.6 375.51 277.065 373.349 279.002C371.187 280.939 369.452 283.305 368.255 285.949C367.058 288.593 366.426 291.458 366.397 294.36C366.397 308.76 375.322 314.601 395.927 323.562L407.936 328.709C448.746 346.212 471.815 364.043 471.815 404.141C471.815 447.378 437.85 471.067 392.241 471.067C374.469 472.2 356.75 468.165 341.222 459.45C325.693 450.735 313.018 437.713 304.726 421.954L343.711 399.249ZM174.067 403.411C181.604 416.789 188.467 428.104 204.966 428.104C220.735 428.104 230.7 421.935 230.7 397.935V234.643H278.718V398.574C278.718 448.29 249.517 470.921 207.01 470.921C191.985 471.743 177.063 467.998 164.205 460.18C151.348 452.362 141.157 440.837 134.973 427.119L174.067 403.411Z" fill="#1F1F1F"/>
</svg>
