<svg width="589" height="606" viewBox="0 0 589 606" fill="none" xmlns="http://www.w3.org/2000/svg">
<path d="M523.582 0.620117C540.933 0.620117 557.573 7.70414 569.842 20.3138C582.111 32.9235 589.003 50.0258 589.003 67.8586V538.528C589.003 556.36 582.111 573.463 569.842 586.072C557.573 598.682 540.933 605.766 523.582 605.766H65.6341C48.2833 605.766 31.6432 598.682 19.3743 586.072C7.10546 573.463 0.212891 556.36 0.212891 538.528V67.8586C0.212891 50.0258 7.10546 32.9235 19.3743 20.3138C31.6432 7.70414 48.2833 0.620117 65.6341 0.620117H523.582ZM507.227 521.718V343.536C507.227 314.469 495.992 286.592 475.994 266.038C455.996 245.484 428.872 233.937 400.59 233.937C372.786 233.937 340.403 251.419 324.702 277.642V240.325H233.439V521.718H324.702V355.975C324.702 330.088 344.982 308.908 370.17 308.908C382.315 308.908 393.963 313.867 402.551 322.694C411.14 331.521 415.964 343.492 415.964 355.975V521.718H507.227ZM127.13 187.543C141.705 187.543 155.682 181.592 165.988 171C176.294 160.408 182.084 146.042 182.084 131.063C182.084 99.7968 157.551 74.2462 127.13 74.2462C112.469 74.2462 98.4076 80.2322 88.0405 90.8874C77.6733 101.543 71.8491 115.994 71.8491 131.063C71.8491 162.329 96.7091 187.543 127.13 187.543ZM172.598 521.718V240.325H81.9894V521.718H172.598Z" fill="white"/>
</svg>
