<svg width="502" height="502" viewBox="0 0 502 502" fill="none" xmlns="http://www.w3.org/2000/svg">
<rect x="46.8945" y="32.5068" width="408.658" height="436.521" fill="black"/>
<path d="M446.263 0C461.043 0 475.217 5.87112 485.668 16.3218C496.118 26.7724 501.989 40.9466 501.989 55.726V445.808C501.989 460.588 496.118 474.762 485.668 485.212C475.217 495.663 461.043 501.534 446.263 501.534H56.1811C41.4016 501.534 27.2275 495.663 16.7769 485.212C6.32619 474.762 0.455078 460.588 0.455078 445.808V55.726C0.455078 40.9466 6.32619 26.7724 16.7769 16.3218C27.2275 5.87112 41.4016 0 56.1811 0H446.263ZM432.332 431.877V284.203C432.332 260.112 422.762 237.008 405.727 219.974C388.693 202.939 365.589 193.369 341.498 193.369C317.815 193.369 290.23 207.858 276.856 229.591V198.663H199.118V431.877H276.856V294.512C276.856 273.058 294.131 255.504 315.586 255.504C325.931 255.504 335.853 259.614 343.169 266.929C350.484 274.245 354.594 284.166 354.594 294.512V431.877H432.332ZM108.564 154.918C120.978 154.918 132.885 149.987 141.663 141.208C150.442 132.43 155.373 120.523 155.373 108.108C155.373 82.1959 134.476 61.02 108.564 61.02C96.0749 61.02 84.0978 65.9811 75.267 74.8119C66.4362 83.6427 61.4751 95.6198 61.4751 108.108C61.4751 134.021 82.651 154.918 108.564 154.918ZM147.293 431.877V198.663H70.1126V431.877H147.293Z" fill="white"/>
</svg>
