<svg width="608" height="513" viewBox="0 0 608 513" fill="none" xmlns="http://www.w3.org/2000/svg">
<path d="M286.29 72.3794L214.811 0.844727L0.207031 215.421L71.7417 286.956L286.29 72.3794ZM392.558 0.844727L607.134 215.421L536.068 286.487L392.558 142.976L249.047 286.487L177.981 215.421L392.558 0.844727Z" fill="#225CFC"/>
<mask id="path-2-outside-1_705_86" maskUnits="userSpaceOnUse" x="18.207" y="352.956" width="576" height="113" fill="black">
<rect fill="white" x="18.207" y="352.956" width="576" height="113"/>
<path d="M19.9385 460.956V357.552H45.0827V369.973C49.8624 364.654 54.8777 360.716 60.1287 358.158C65.447 355.6 71.2702 354.321 77.5983 354.321C85.7441 354.321 92.981 356.172 99.3091 359.875C105.705 363.577 110.215 368.559 112.84 374.82C117.486 368.222 122.77 363.173 128.694 359.673C134.619 356.105 141.485 354.321 149.294 354.321C156.7 354.321 163.263 355.869 168.986 358.966C174.775 361.995 179.319 366.371 182.618 372.093C185.984 377.748 187.667 384.581 187.667 392.592V460.956H162.523V399.459C162.523 391.785 160.503 385.726 156.464 381.283C152.492 376.772 147.14 374.517 140.408 374.517C135.83 374.517 131.724 375.493 128.089 377.445C124.453 379.398 121.592 381.989 119.505 385.221C117.418 388.452 116.375 391.919 116.375 395.622V460.956H91.2307V398.449C91.2307 391.179 89.2784 385.389 85.3738 381.081C81.4692 376.705 76.1509 374.517 69.4189 374.517C64.7738 374.517 60.6 375.493 56.8974 377.445C53.2621 379.398 50.3673 381.989 48.213 385.221C46.1261 388.385 45.0827 391.818 45.0827 395.521V460.956H19.9385ZM268.38 464.187C258.821 464.187 250.136 461.831 242.327 457.119C234.585 452.339 228.426 445.809 223.848 437.529C219.337 429.248 217.082 419.79 217.082 409.153C217.082 398.651 219.27 389.294 223.646 381.081C228.089 372.8 234.181 366.27 241.923 361.49C249.665 356.711 258.484 354.321 268.38 354.321C276.459 354.321 283.897 356.004 290.697 359.37C297.496 362.736 302.882 367.415 306.854 373.406V357.552H331.998V460.956H306.854V444.395C302.276 450.656 296.655 455.537 289.99 459.037C283.393 462.471 276.189 464.187 268.38 464.187ZM275.55 442.679C281.811 442.679 287.331 441.265 292.111 438.437C296.89 435.543 300.66 431.571 303.42 426.522C306.18 421.473 307.561 415.717 307.561 409.254C307.561 402.724 306.18 396.968 303.42 391.986C300.66 386.937 296.89 382.999 292.111 380.172C287.331 377.277 281.811 375.83 275.55 375.83C269.356 375.83 263.836 377.277 258.989 380.172C254.142 382.999 250.338 386.937 247.578 391.986C244.818 397.035 243.438 402.791 243.438 409.254C243.438 415.717 244.818 421.473 247.578 426.522C250.338 431.571 254.142 435.543 258.989 438.437C263.836 441.265 269.356 442.679 275.55 442.679ZM357.169 460.956L421.19 377.041H365.348V357.552H464.309L400.186 441.467H461.279V460.956H357.169ZM540.59 464.187C529.55 464.187 519.653 461.798 510.902 457.018C502.218 452.238 495.317 445.708 490.201 437.428C485.152 429.147 482.627 419.823 482.627 409.456C482.627 401.782 484.075 394.612 486.97 387.947C489.864 381.283 493.87 375.426 498.986 370.377C504.103 365.328 510.06 361.389 516.86 358.562C523.659 355.735 530.997 354.321 538.873 354.321C549.645 354.321 559.069 356.542 567.148 360.986C575.294 365.429 581.622 371.622 586.132 379.566C590.71 387.51 592.999 396.766 592.999 407.335C592.999 408.211 592.965 408.951 592.898 409.557C592.831 410.096 592.696 411.038 592.494 412.385H508.276C508.276 418.645 509.69 424.166 512.518 428.945C515.345 433.658 519.283 437.36 524.332 440.053C529.449 442.679 535.305 443.991 541.903 443.991C548.164 443.991 553.718 442.746 558.565 440.255C563.479 437.697 567.922 433.826 571.894 428.642L590.171 438.034C585.257 446.247 578.424 452.676 569.672 457.321C560.988 461.899 551.294 464.187 540.59 464.187ZM509.387 396.632H568.057C567.182 391.919 565.398 387.846 562.705 384.413C560.012 380.98 556.612 378.32 552.506 376.436C548.399 374.483 543.821 373.507 538.772 373.507C533.454 373.507 528.708 374.45 524.534 376.335C520.36 378.219 516.961 380.879 514.335 384.312C511.71 387.745 510.06 391.852 509.387 396.632Z"/>
</mask>
<path d="M19.9385 460.956V357.552H45.0827V369.973C49.8624 364.654 54.8777 360.716 60.1287 358.158C65.447 355.6 71.2702 354.321 77.5983 354.321C85.7441 354.321 92.981 356.172 99.3091 359.875C105.705 363.577 110.215 368.559 112.84 374.82C117.486 368.222 122.77 363.173 128.694 359.673C134.619 356.105 141.485 354.321 149.294 354.321C156.7 354.321 163.263 355.869 168.986 358.966C174.775 361.995 179.319 366.371 182.618 372.093C185.984 377.748 187.667 384.581 187.667 392.592V460.956H162.523V399.459C162.523 391.785 160.503 385.726 156.464 381.283C152.492 376.772 147.14 374.517 140.408 374.517C135.83 374.517 131.724 375.493 128.089 377.445C124.453 379.398 121.592 381.989 119.505 385.221C117.418 388.452 116.375 391.919 116.375 395.622V460.956H91.2307V398.449C91.2307 391.179 89.2784 385.389 85.3738 381.081C81.4692 376.705 76.1509 374.517 69.4189 374.517C64.7738 374.517 60.6 375.493 56.8974 377.445C53.2621 379.398 50.3673 381.989 48.213 385.221C46.1261 388.385 45.0827 391.818 45.0827 395.521V460.956H19.9385ZM268.38 464.187C258.821 464.187 250.136 461.831 242.327 457.119C234.585 452.339 228.426 445.809 223.848 437.529C219.337 429.248 217.082 419.79 217.082 409.153C217.082 398.651 219.27 389.294 223.646 381.081C228.089 372.8 234.181 366.27 241.923 361.49C249.665 356.711 258.484 354.321 268.38 354.321C276.459 354.321 283.897 356.004 290.697 359.37C297.496 362.736 302.882 367.415 306.854 373.406V357.552H331.998V460.956H306.854V444.395C302.276 450.656 296.655 455.537 289.99 459.037C283.393 462.471 276.189 464.187 268.38 464.187ZM275.55 442.679C281.811 442.679 287.331 441.265 292.111 438.437C296.89 435.543 300.66 431.571 303.42 426.522C306.18 421.473 307.561 415.717 307.561 409.254C307.561 402.724 306.18 396.968 303.42 391.986C300.66 386.937 296.89 382.999 292.111 380.172C287.331 377.277 281.811 375.83 275.55 375.83C269.356 375.83 263.836 377.277 258.989 380.172C254.142 382.999 250.338 386.937 247.578 391.986C244.818 397.035 243.438 402.791 243.438 409.254C243.438 415.717 244.818 421.473 247.578 426.522C250.338 431.571 254.142 435.543 258.989 438.437C263.836 441.265 269.356 442.679 275.55 442.679ZM357.169 460.956L421.19 377.041H365.348V357.552H464.309L400.186 441.467H461.279V460.956H357.169ZM540.59 464.187C529.55 464.187 519.653 461.798 510.902 457.018C502.218 452.238 495.317 445.708 490.201 437.428C485.152 429.147 482.627 419.823 482.627 409.456C482.627 401.782 484.075 394.612 486.97 387.947C489.864 381.283 493.87 375.426 498.986 370.377C504.103 365.328 510.06 361.389 516.86 358.562C523.659 355.735 530.997 354.321 538.873 354.321C549.645 354.321 559.069 356.542 567.148 360.986C575.294 365.429 581.622 371.622 586.132 379.566C590.71 387.51 592.999 396.766 592.999 407.335C592.999 408.211 592.965 408.951 592.898 409.557C592.831 410.096 592.696 411.038 592.494 412.385H508.276C508.276 418.645 509.69 424.166 512.518 428.945C515.345 433.658 519.283 437.36 524.332 440.053C529.449 442.679 535.305 443.991 541.903 443.991C548.164 443.991 553.718 442.746 558.565 440.255C563.479 437.697 567.922 433.826 571.894 428.642L590.171 438.034C585.257 446.247 578.424 452.676 569.672 457.321C560.988 461.899 551.294 464.187 540.59 464.187ZM509.387 396.632H568.057C567.182 391.919 565.398 387.846 562.705 384.413C560.012 380.98 556.612 378.32 552.506 376.436C548.399 374.483 543.821 373.507 538.772 373.507C533.454 373.507 528.708 374.45 524.534 376.335C520.36 378.219 516.961 380.879 514.335 384.312C511.71 387.745 510.06 391.852 509.387 396.632Z" fill="white"/>
<path d="M19.9385 460.956H18.8066V462.088H19.9385V460.956ZM19.9385 357.552V356.42H18.8066V357.552H19.9385ZM45.0827 357.552H46.2146V356.42H45.0827V357.552ZM45.0827 369.973H43.9507V372.926L45.9246 370.729L45.0827 369.973ZM60.1287 358.158L59.638 357.138L59.633 357.14L60.1287 358.158ZM99.3091 359.875L98.7374 360.852L98.742 360.854L99.3091 359.875ZM112.84 374.82L111.797 375.258L112.588 377.145L113.766 375.471L112.84 374.82ZM128.694 359.673L129.27 360.647L129.278 360.642L128.694 359.673ZM168.986 358.966L168.447 359.961L168.454 359.965L168.461 359.969L168.986 358.966ZM182.618 372.093L181.637 372.659L181.641 372.666L181.645 372.672L182.618 372.093ZM187.667 460.956V462.088H188.799V460.956H187.667ZM162.523 460.956H161.391V462.088H162.523V460.956ZM156.464 381.283L155.614 382.031L155.62 382.037L155.626 382.044L156.464 381.283ZM128.089 377.445L128.624 378.443L128.624 378.443L128.089 377.445ZM119.505 385.221L118.554 384.607L118.554 384.607L119.505 385.221ZM116.375 460.956V462.088H117.507V460.956H116.375ZM91.2307 460.956H90.0987V462.088H91.2307V460.956ZM85.3738 381.081L84.5292 381.834L84.535 381.841L85.3738 381.081ZM56.8974 377.445L56.3694 376.444L56.3618 376.448L56.8974 377.445ZM48.213 385.221L47.2712 384.593L47.2681 384.598L48.213 385.221ZM45.0827 460.956V462.088H46.2146V460.956H45.0827ZM21.0705 460.956V357.552H18.8066V460.956H21.0705ZM19.9385 358.684H45.0827V356.42H19.9385V358.684ZM43.9507 357.552V369.973H46.2146V357.552H43.9507ZM45.9246 370.729C50.628 365.496 55.5304 361.657 60.6245 359.176L59.633 357.14C54.2251 359.775 49.0967 363.813 44.2407 369.216L45.9246 370.729ZM60.6194 359.178C65.7737 356.699 71.4276 355.453 77.5983 355.453V353.189C71.1129 353.189 65.1203 354.501 59.6381 357.138L60.6194 359.178ZM77.5983 355.453C85.566 355.453 92.6015 357.262 98.7375 360.852L99.8808 358.898C93.3605 355.083 85.9221 353.189 77.5983 353.189V355.453ZM98.742 360.854C104.944 364.445 109.275 369.245 111.797 375.258L113.884 374.382C111.155 367.873 106.465 362.71 99.8763 358.895L98.742 360.854ZM113.766 375.471C118.335 368.983 123.506 364.053 129.27 360.647L128.119 358.698C122.034 362.293 116.637 367.462 111.915 374.168L113.766 375.471ZM129.278 360.642C135.004 357.194 141.664 355.453 149.294 355.453V353.189C141.307 353.189 134.233 355.016 128.11 358.703L129.278 360.642ZM149.294 355.453C156.538 355.453 162.912 356.966 168.447 359.961L169.524 357.97C163.615 354.772 156.861 353.189 149.294 353.189V355.453ZM168.461 359.969C174.058 362.897 178.445 367.121 181.637 372.659L183.599 371.528C180.194 365.622 175.492 361.093 169.51 357.963L168.461 359.969ZM181.645 372.672C184.886 378.118 186.535 384.741 186.535 392.592H188.799C188.799 384.422 187.081 377.379 183.591 371.514L181.645 372.672ZM186.535 392.592V460.956H188.799V392.592H186.535ZM187.667 459.824H162.523V462.088H187.667V459.824ZM163.655 460.956V399.459H161.391V460.956H163.655ZM163.655 399.459C163.655 391.584 161.578 385.226 157.302 380.521L155.626 382.044C159.428 386.226 161.391 391.985 161.391 399.459H163.655ZM157.314 380.534C153.099 375.749 147.422 373.385 140.408 373.385V375.649C146.859 375.649 151.885 377.795 155.614 382.031L157.314 380.534ZM140.408 373.385C135.664 373.385 131.37 374.398 127.553 376.448L128.624 378.443C132.077 376.588 135.996 375.649 140.408 375.649V373.385ZM127.553 376.448C123.762 378.484 120.753 381.203 118.554 384.607L120.456 385.835C122.432 382.776 125.145 380.311 128.624 378.443L127.553 376.448ZM118.554 384.607C116.354 388.014 115.243 391.693 115.243 395.622H117.507C117.507 392.146 118.482 388.891 120.456 385.835L118.554 384.607ZM115.243 395.622V460.956H117.507V395.622H115.243ZM116.375 459.824H91.2307V462.088H116.375V459.824ZM92.3626 460.956V398.449H90.0987V460.956H92.3626ZM92.3626 398.449C92.3626 390.971 90.3498 384.886 86.2126 380.32L84.535 381.841C88.2069 385.892 90.0987 391.386 90.0987 398.449H92.3626ZM86.2184 380.327C82.0663 375.674 76.4208 373.385 69.4189 373.385V375.649C75.8811 375.649 80.8722 377.736 84.5292 381.834L86.2184 380.327ZM69.4189 373.385C64.6104 373.385 60.252 374.397 56.3694 376.444L57.4253 378.447C60.9479 376.589 64.9373 375.649 69.4189 375.649V373.385ZM56.3618 376.448C52.5734 378.483 49.5349 381.197 47.2712 384.593L49.1549 385.849C51.1996 382.782 53.9508 380.313 57.4329 378.443L56.3618 376.448ZM47.2681 384.598C45.0623 387.942 43.9507 391.591 43.9507 395.521H46.2146C46.2146 392.045 47.19 388.828 49.158 385.844L47.2681 384.598ZM43.9507 395.521V460.956H46.2146V395.521H43.9507ZM45.0827 459.824H19.9385V462.088H45.0827V459.824ZM242.327 457.119L241.733 458.082L241.742 458.088L242.327 457.119ZM223.848 437.529L222.854 438.07L222.857 438.076L223.848 437.529ZM223.646 381.081L222.648 380.545L222.647 380.548L223.646 381.081ZM241.923 361.49L241.329 360.527L241.329 360.527L241.923 361.49ZM290.697 359.37L291.199 358.355L291.199 358.355L290.697 359.37ZM306.854 373.406L305.91 374.032L307.986 377.162V373.406H306.854ZM306.854 357.552V356.42H305.722V357.552H306.854ZM331.998 357.552H333.13V356.42H331.998V357.552ZM331.998 460.956V462.088H333.13V460.956H331.998ZM306.854 460.956H305.722V462.088H306.854V460.956ZM306.854 444.395H307.986V440.929L305.94 443.727L306.854 444.395ZM289.99 459.037L290.513 460.042L290.516 460.04L289.99 459.037ZM292.111 438.437L292.687 439.412L292.697 439.406L292.111 438.437ZM303.42 426.522L302.427 425.979L302.427 425.979L303.42 426.522ZM303.42 391.986L302.427 392.529L302.43 392.535L303.42 391.986ZM292.111 380.172L291.524 381.14L291.534 381.146L292.111 380.172ZM258.989 380.172L259.559 381.15L259.569 381.144L258.989 380.172ZM247.578 391.986L246.585 391.444L247.578 391.986ZM247.578 426.522L248.571 425.979L248.571 425.979L247.578 426.522ZM258.989 438.437L258.409 439.409L258.419 439.415L258.989 438.437ZM268.38 463.055C259.016 463.055 250.536 460.75 242.912 456.15L241.742 458.088C249.737 462.912 258.625 465.319 268.38 465.319V463.055ZM242.922 456.156C235.352 451.482 229.326 445.098 224.838 436.981L222.857 438.076C227.525 446.52 233.819 453.196 241.733 458.082L242.922 456.156ZM224.842 436.987C220.433 428.893 218.214 419.625 218.214 409.153H215.95C215.95 419.954 218.242 429.603 222.854 438.07L224.842 436.987ZM218.214 409.153C218.214 398.813 220.367 389.642 224.645 381.613L222.647 380.548C218.173 388.945 215.95 398.49 215.95 409.153H218.214ZM224.643 381.616C228.995 373.505 234.951 367.125 242.518 362.454L241.329 360.527C233.412 365.415 227.183 372.095 222.648 380.545L224.643 381.616ZM242.518 362.454C250.066 357.794 258.675 355.453 268.38 355.453V353.189C258.293 353.189 249.265 355.628 241.329 360.527L242.518 362.454ZM268.38 355.453C276.296 355.453 283.561 357.101 290.195 360.384L291.199 358.355C284.234 354.907 276.621 353.189 268.38 353.189V355.453ZM290.195 360.384C296.825 363.667 302.055 368.216 305.91 374.032L307.797 372.781C303.709 366.614 298.167 361.805 291.199 358.355L290.195 360.384ZM307.986 373.406V357.552H305.722V373.406H307.986ZM306.854 358.684H331.998V356.42H306.854V358.684ZM330.866 357.552V460.956H333.13V357.552H330.866ZM331.998 459.824H306.854V462.088H331.998V459.824ZM307.986 460.956V444.395H305.722V460.956H307.986ZM305.94 443.727C301.461 449.853 295.971 454.617 289.464 458.035L290.516 460.04C297.339 456.456 303.091 451.459 307.767 445.063L305.94 443.727ZM289.467 458.033C283.04 461.378 276.017 463.055 268.38 463.055V465.319C276.362 465.319 283.746 463.563 290.513 460.042L289.467 458.033ZM275.55 443.811C281.987 443.811 287.711 442.355 292.687 439.412L291.534 437.463C286.95 440.175 281.634 441.547 275.55 441.547V443.811ZM292.697 439.406C297.653 436.404 301.561 432.283 304.414 427.065L302.427 425.979C299.76 430.858 296.128 434.681 291.524 437.469L292.697 439.406ZM304.414 427.065C307.275 421.83 308.693 415.883 308.693 409.254H306.429C306.429 415.551 305.085 421.116 302.427 425.979L304.414 427.065ZM308.693 409.254C308.693 402.561 307.277 396.611 304.411 391.438L302.43 392.535C305.084 397.326 306.429 402.888 306.429 409.254H308.693ZM304.414 391.444C301.56 386.223 297.648 382.132 292.687 379.198L291.534 381.146C296.132 383.866 299.761 387.652 302.427 392.529L304.414 391.444ZM292.697 379.204C287.72 376.189 281.992 374.698 275.55 374.698V376.962C281.629 376.962 286.942 378.365 291.524 381.14L292.697 379.204ZM275.55 374.698C269.172 374.698 263.448 376.19 258.409 379.2L259.569 381.144C264.224 378.364 269.54 376.962 275.55 376.962V374.698ZM258.419 379.194C253.389 382.128 249.441 386.219 246.585 391.444L248.571 392.529C251.235 387.656 254.895 383.87 259.559 381.15L258.419 379.194ZM246.585 391.444C243.723 396.679 242.306 402.625 242.306 409.254H244.57C244.57 402.957 245.913 397.392 248.571 392.529L246.585 391.444ZM242.306 409.254C242.306 415.883 243.723 421.83 246.585 427.065L248.571 425.979C245.913 421.116 244.57 415.551 244.57 409.254H242.306ZM246.585 427.065C249.44 432.287 253.385 436.409 258.409 439.409L259.569 437.466C254.899 434.676 251.237 430.854 248.571 425.979L246.585 427.065ZM258.419 439.415C263.456 442.354 269.177 443.811 275.55 443.811V441.547C269.535 441.547 264.216 440.176 259.559 437.46L258.419 439.415ZM357.169 460.956L356.269 460.269L354.881 462.088H357.169V460.956ZM421.19 377.041L422.09 377.728L423.478 375.909H421.19V377.041ZM365.348 377.041H364.216V378.173H365.348V377.041ZM365.348 357.552V356.42H364.216V357.552H365.348ZM464.309 357.552L465.208 358.239L466.598 356.42H464.309V357.552ZM400.186 441.467L399.287 440.78L397.897 442.599H400.186V441.467ZM461.279 441.467H462.411V440.335H461.279V441.467ZM461.279 460.956V462.088H462.411V460.956H461.279ZM358.069 461.643L422.09 377.728L420.29 376.355L356.269 460.269L358.069 461.643ZM421.19 375.909H365.348V378.173H421.19V375.909ZM366.48 377.041V357.552H364.216V377.041H366.48ZM365.348 358.684H464.309V356.42H365.348V358.684ZM463.409 356.865L399.287 440.78L401.086 442.154L465.208 358.239L463.409 356.865ZM400.186 442.599H461.279V440.335H400.186V442.599ZM460.148 441.467V460.956H462.411V441.467H460.148ZM461.279 459.824H357.169V462.088H461.279V459.824ZM510.902 457.018L510.356 458.01L510.359 458.011L510.902 457.018ZM490.201 437.428L489.234 438.017L489.238 438.023L490.201 437.428ZM486.97 387.947L485.931 387.496L485.931 387.496L486.97 387.947ZM498.986 370.377L499.781 371.182L499.781 371.182L498.986 370.377ZM516.86 358.562L516.425 357.517L516.425 357.517L516.86 358.562ZM567.148 360.986L566.602 361.977L566.606 361.979L567.148 360.986ZM586.132 379.566L585.148 380.125L585.151 380.131L586.132 379.566ZM592.898 409.557L594.021 409.697L594.022 409.69L594.023 409.682L592.898 409.557ZM592.494 412.385V413.516H593.469L593.613 412.552L592.494 412.385ZM508.276 412.385V411.253H507.144V412.385H508.276ZM512.518 428.945L511.543 429.522L511.547 429.528L512.518 428.945ZM524.332 440.053L523.8 441.052L523.807 441.056L523.815 441.06L524.332 440.053ZM558.565 440.255L559.082 441.262L559.087 441.259L558.565 440.255ZM571.894 428.642L572.411 427.636L571.57 427.203L570.995 427.954L571.894 428.642ZM590.171 438.034L591.143 438.615L591.763 437.579L590.689 437.027L590.171 438.034ZM569.672 457.321L570.2 458.322L570.203 458.321L569.672 457.321ZM509.387 396.632L508.266 396.474L508.085 397.764H509.387V396.632ZM568.057 396.632V397.764H569.418L569.17 396.425L568.057 396.632ZM552.506 376.436L552.02 377.458L552.027 377.461L552.034 377.464L552.506 376.436ZM524.534 376.335L524.068 375.303L524.068 375.303L524.534 376.335ZM514.335 384.312L513.436 383.624L513.436 383.624L514.335 384.312ZM540.59 463.055C529.718 463.055 520.012 460.704 511.444 456.024L510.359 458.011C519.295 462.891 529.381 465.319 540.59 465.319V463.055ZM511.448 456.026C502.931 451.339 496.176 444.944 491.164 436.833L489.238 438.023C494.459 446.472 501.504 453.138 510.356 458.009L511.448 456.026ZM491.167 436.838C486.234 428.748 483.759 419.63 483.759 409.456H481.495C481.495 420.016 484.07 429.547 489.234 438.017L491.167 436.838ZM483.759 409.456C483.759 401.928 485.178 394.913 488.008 388.398L485.931 387.496C482.971 394.311 481.495 401.635 481.495 409.456H483.759ZM488.008 388.398C490.846 381.865 494.769 376.129 499.781 371.182L498.191 369.571C492.971 374.723 488.883 380.7 485.931 387.496L488.008 388.398ZM499.781 371.182C504.791 366.238 510.626 362.38 517.294 359.607L516.425 357.517C509.495 360.399 503.414 364.417 498.191 369.571L499.781 371.182ZM517.294 359.607C523.947 356.841 531.136 355.453 538.873 355.453V353.189C530.858 353.189 523.372 354.628 516.425 357.517L517.294 359.607ZM538.873 355.453C549.486 355.453 558.717 357.641 566.602 361.977L567.693 359.994C559.422 355.444 549.803 353.189 538.873 353.189V355.453ZM566.606 361.979C574.57 366.323 580.743 372.367 585.148 380.125L587.117 379.007C582.5 370.877 576.018 364.534 567.69 359.992L566.606 361.979ZM585.151 380.131C589.616 387.878 591.867 396.934 591.867 407.335H594.131C594.131 396.599 591.804 387.141 587.113 379.001L585.151 380.131ZM591.867 407.335C591.867 408.185 591.834 408.881 591.773 409.432L594.023 409.682C594.096 409.021 594.131 408.236 594.131 407.335H591.867ZM591.775 409.417C591.709 409.94 591.577 410.87 591.375 412.217L593.613 412.552C593.815 411.206 593.952 410.251 594.021 409.697L591.775 409.417ZM592.494 411.253H508.276V413.516H592.494V411.253ZM507.144 412.385C507.144 418.822 508.6 424.546 511.543 429.522L513.492 428.369C510.78 423.785 509.408 418.469 509.408 412.385H507.144ZM511.547 429.528C514.484 434.423 518.577 438.267 523.8 441.052L524.865 439.054C519.989 436.454 516.206 432.892 513.488 428.363L511.547 429.528ZM523.815 441.06C529.114 443.779 535.152 445.123 541.903 445.123V442.859C535.459 442.859 529.783 441.578 524.849 439.046L523.815 441.06ZM541.903 445.123C548.317 445.123 554.052 443.846 559.082 441.262L558.047 439.248C553.383 441.645 548.011 442.859 541.903 442.859V445.123ZM559.087 441.259C564.172 438.612 568.738 434.623 572.792 429.331L570.995 427.954C567.106 433.029 562.785 436.782 558.042 439.251L559.087 441.259ZM571.377 429.649L589.654 439.04L590.689 437.027L572.411 427.636L571.377 429.649ZM589.2 437.452C584.396 445.482 577.718 451.769 569.142 456.321L570.203 458.321C579.13 453.582 586.119 447.011 591.143 438.615L589.2 437.452ZM569.145 456.319C560.637 460.804 551.127 463.055 540.59 463.055V465.319C551.461 465.319 561.339 462.993 570.2 458.322L569.145 456.319ZM509.387 397.764H568.057V395.5H509.387V397.764ZM569.17 396.425C568.265 391.551 566.412 387.305 563.595 383.714L561.814 385.112C564.383 388.387 566.099 392.287 566.944 396.838L569.17 396.425ZM563.595 383.714C560.787 380.134 557.242 377.364 552.978 375.407L552.034 377.464C555.982 379.277 559.237 381.825 561.814 385.112L563.595 383.714ZM552.992 375.413C548.717 373.381 543.971 372.375 538.772 372.375V374.639C543.672 374.639 548.081 375.585 552.02 377.458L552.992 375.413ZM538.772 372.375C533.319 372.375 528.41 373.342 524.068 375.303L525 377.366C529.006 375.557 533.589 374.639 538.772 374.639V372.375ZM524.068 375.303C519.734 377.26 516.182 380.033 513.436 383.624L515.234 385C517.739 381.724 520.986 379.179 525 377.366L524.068 375.303ZM513.436 383.624C510.679 387.23 508.963 391.524 508.266 396.474L510.508 396.789C511.157 392.179 512.74 388.261 515.234 385L513.436 383.624Z" fill="#43556D" mask="url(#path-2-outside-1_705_86)"/>
</svg>
