<svg width="675" height="606" viewBox="0 0 675 606" fill="none" xmlns="http://www.w3.org/2000/svg">
<path d="M393.248 83.7101C418.043 83.7101 434.852 66.8593 434.852 42.1059C434.852 16.8507 418.001 0 393.248 0C367.993 0 351.184 16.8507 351.184 42.0641C351.142 66.8593 367.993 83.7101 393.248 83.7101Z" fill="white"/>
<path d="M605.163 29.5892C613.928 29.5892 619.869 23.6329 619.869 14.8833C619.869 5.95626 613.913 0 605.163 0C596.236 0 590.295 5.95626 590.295 14.8685C590.28 23.6329 596.236 29.5892 605.163 29.5892Z" fill="white"/>
<path d="M605.163 192.329C613.928 192.329 619.869 186.373 619.869 177.623C619.869 168.696 613.913 162.74 605.163 162.74C596.236 162.74 590.295 168.696 590.295 177.608C590.28 186.373 596.236 192.329 605.163 192.329Z" fill="white"/>
<path d="M604.832 408.767C629.627 408.767 646.436 391.917 646.436 367.163C646.436 341.908 629.585 325.057 604.832 325.057C579.577 325.057 562.768 341.908 562.768 367.121C562.726 391.917 579.577 408.767 604.832 408.767Z" fill="white"/>
<path d="M465.716 327.271C460.113 327.271 434.857 312.762 434.857 278.183V124.812C434.857 107.501 424.571 101.438 408.222 101.438C384.389 101.438 327.816 127.613 327.816 146.346C327.816 155.21 334.339 159.433 341.823 159.433C357.712 159.433 366.618 175.782 366.618 190.751C366.618 190.751 366.618 278.141 366.618 278.183C366.618 288.636 364.026 299.257 358.674 308.288C354.116 315.982 347.426 323.55 338.562 326.142C325.265 329.989 309.46 323.257 299.508 314.602C292.024 308.079 285.877 300.093 280.525 291.772C258.071 254.349 237.499 221.609 204.299 203.379C254.35 191.211 291.271 160.353 291.271 116.867C291.271 61.2558 237.499 23.373 157.092 23.373H9.82611C4.22313 23.373 0 27.1362 0 35.0807C0 43.0253 3.72138 48.1683 9.36616 48.1683C22.9136 48.1683 42.1059 69.2003 42.1059 100.518V528.058C42.1059 559.376 22.9555 580.408 9.36616 580.408C3.76319 580.408 0 585.552 0 593.496C0 601.441 4.22313 605.162 9.82611 605.162H145.385C150.988 605.162 155.211 601.441 155.211 593.496C155.211 585.552 151.489 580.408 145.845 580.408C132.297 580.408 113.105 559.376 113.105 528.058V208.522H127.112C191.17 208.522 187.407 279.103 208.941 328.693C213.624 339.439 224.83 350.645 243.52 350.645H324.471C326.854 350.645 333.962 350.645 336.178 350.645H465.214C470.357 350.645 474.078 346.924 474.078 339.439C474.12 331.954 470.817 327.271 465.716 327.271ZM157.092 187.03H113.147V44.4469L157.092 44.9068C210.404 45.3668 218.349 85.1311 218.349 116.909C218.349 148.687 201.958 187.03 157.092 187.03Z" fill="white"/>
<path d="M337.73 556.199C336.057 556.199 334.719 556.868 333.381 558.206C315.36 577.9 292.028 585.218 276.348 585.218C244.654 585.218 218.311 568.534 218.311 508.198C218.311 458.189 237.964 437.491 264.348 437.491C277.686 437.491 291.694 443.805 291.694 459.485C291.694 468.141 287.345 470.817 288.014 479.848C289.017 491.514 297.673 497.87 312.015 497.87C326.691 497.87 338.692 489.883 338.692 474.203C338.692 444.851 304.656 424.195 262.006 424.195C205.642 424.195 168.303 459.862 168.303 514.219C168.303 568.91 205.642 605.246 262.006 605.246C298.676 605.246 327.36 589.901 342.706 563.893C344.713 560.171 341.409 556.199 337.73 556.199Z" fill="white"/>
<path d="M668.253 588.521C664.239 588.521 646.259 578.193 646.259 553.524V444.14C646.259 431.805 638.942 427.457 627.234 427.457C610.216 427.457 569.867 446.147 569.867 459.486C569.867 465.841 574.55 468.81 579.86 468.81C591.191 468.81 597.547 480.476 597.547 491.138V553.482C597.547 578.152 579.525 588.479 575.553 588.479C573.504 588.479 568.236 588.479 566.187 588.479C562.173 588.479 544.193 578.152 544.193 553.482V483.11C544.193 454.092 527.175 427.415 482.142 427.415C451.452 427.415 431.465 441.422 417.123 456.433V385.1C417.123 372.765 409.806 368.417 398.14 368.417C381.122 368.417 340.772 387.107 340.772 400.445C340.772 406.801 345.455 409.77 350.765 409.77C362.097 409.77 368.452 421.436 368.452 432.098V553.482C368.452 578.152 350.431 588.479 346.459 588.479C342.779 588.479 340.438 591.824 340.438 597.135C340.438 602.445 343.114 605.121 346.793 605.121H438.824C442.504 605.121 445.18 602.445 445.18 597.135C445.18 591.824 442.838 588.479 439.158 588.479C435.144 588.479 417.165 578.152 417.165 553.482V474.455C429.834 459.778 445.849 453.13 457.514 453.13C490.84 453.13 495.523 480.476 495.523 491.807V553.482C495.523 578.152 477.501 588.479 473.529 588.479C469.849 588.479 467.508 591.824 467.508 597.135C467.508 602.487 470.184 605.121 473.863 605.121H565.894C568.069 605.121 573.755 605.121 575.93 605.121H667.96C671.64 605.121 674.274 602.445 674.274 597.135C674.274 591.824 671.891 588.521 668.253 588.521Z" fill="white"/>
<path d="M605.163 381.7C613.928 381.7 619.869 375.744 619.869 366.995C619.869 358.068 613.913 352.111 605.163 352.111C596.236 352.111 590.295 358.068 590.295 366.98C590.28 375.744 596.236 381.7 605.163 381.7Z" fill="black"/>
</svg>
