<svg width="1115" height="1000" viewBox="0 0 1115 1000" fill="none" xmlns="http://www.w3.org/2000/svg">
<path d="M650.218 138.307C691.185 138.307 718.957 110.466 718.957 69.5682C718.957 27.8411 691.116 0 650.218 0C608.491 0 580.719 27.8411 580.719 69.4991C580.65 110.466 608.491 138.307 650.218 138.307Z" fill="white"/>
<path d="M1000.35 48.8878C1014.83 48.8878 1024.65 39.0467 1024.65 24.5904C1024.65 9.84105 1014.81 0 1000.35 0C985.604 0 975.787 9.84105 975.787 24.566C975.763 39.0467 985.604 48.8878 1000.35 48.8878Z" fill="white"/>
<path d="M1000.35 317.771C1014.83 317.771 1024.65 307.93 1024.65 293.473C1024.65 278.724 1014.81 268.883 1000.35 268.883C985.604 268.883 975.787 278.724 975.787 293.449C975.763 307.93 985.604 317.771 1000.35 317.771Z" fill="#2ADE71"/>
<path d="M999.804 675.374C1040.77 675.374 1068.54 647.533 1068.54 606.635C1068.54 564.907 1040.7 537.066 999.804 537.066C958.077 537.066 930.305 564.907 930.305 606.565C930.236 647.533 958.077 675.374 999.804 675.374Z" fill="white"/>
<path d="M769.941 540.725C760.684 540.725 718.957 516.753 718.957 459.62V206.218C718.957 177.617 701.962 167.599 674.95 167.599C635.572 167.599 542.1 210.846 542.1 241.796C542.1 256.442 552.877 263.42 565.243 263.42C591.496 263.42 606.211 290.432 606.211 315.164C606.211 315.164 606.211 459.551 606.211 459.62C606.211 476.891 601.927 494.439 593.085 509.361C585.554 522.072 574.501 534.577 559.855 538.86C537.886 545.216 511.772 534.093 495.33 519.793C482.964 509.015 472.808 495.82 463.965 482.072C426.867 420.242 392.877 366.148 338.024 336.028C420.718 315.924 481.72 264.94 481.72 193.092C481.72 101.209 392.877 38.6183 260.028 38.6183H16.7114C7.45411 38.6183 0.476562 44.836 0.476562 57.962C0.476562 71.0881 6.62509 79.5855 15.9515 79.5855C38.3349 79.5855 70.0448 114.335 70.0448 166.079V872.469C70.0448 924.214 38.404 958.963 15.9515 958.963C6.69418 958.963 0.476562 967.461 0.476562 980.587C0.476562 993.713 7.45411 999.861 16.7114 999.861H240.684C249.941 999.861 256.919 993.713 256.919 980.587C256.919 967.461 250.77 958.963 241.444 958.963C219.06 958.963 187.35 924.214 187.35 872.469V344.525H210.494C316.331 344.525 310.114 461.14 345.692 543.074C353.43 560.829 371.945 579.344 402.825 579.344H536.573C540.511 579.344 552.256 579.344 555.917 579.344H769.112C777.61 579.344 783.758 573.195 783.758 560.829C783.827 548.463 778.369 540.725 769.941 540.725ZM260.028 309.015H187.42V73.437L260.028 74.1969C348.11 74.9568 361.237 140.656 361.237 193.161C361.237 245.665 334.155 309.015 260.028 309.015Z" fill="white"/>
<path d="M558.47 918.964C555.707 918.964 553.496 920.069 551.285 922.28C521.51 954.819 482.96 966.908 457.054 966.908C404.688 966.908 361.164 939.344 361.164 839.655C361.164 757.029 393.634 722.832 437.226 722.832C459.264 722.832 482.408 733.264 482.408 759.171C482.408 773.471 475.223 777.893 476.328 792.815C477.986 812.09 492.287 822.591 515.983 822.591C540.232 822.591 560.059 809.396 560.059 783.489C560.059 734.991 503.824 700.864 433.358 700.864C340.232 700.864 278.539 759.793 278.539 849.603C278.539 939.965 340.232 1000 433.358 1000C493.945 1000 541.337 974.646 566.691 931.675C570.007 925.527 564.549 918.964 558.47 918.964Z" fill="#2ADE71"/>
<path d="M1104.59 972.366C1097.95 972.366 1068.25 955.302 1068.25 914.542V733.817C1068.25 713.437 1056.16 706.252 1036.81 706.252C1008.7 706.252 942.03 737.133 942.03 759.171C942.03 769.672 949.768 774.577 958.541 774.577C977.263 774.577 987.764 793.851 987.764 811.468V914.473C987.764 955.233 957.989 972.297 951.426 972.297C948.041 972.297 939.336 972.297 935.951 972.297C929.319 972.297 899.612 955.233 899.612 914.473V798.204C899.612 750.259 871.495 706.183 797.091 706.183C746.383 706.183 713.36 729.326 689.664 754.128V636.269C689.664 615.889 677.574 608.705 658.3 608.705C630.182 608.705 563.516 639.586 563.516 661.624C563.516 672.124 571.253 677.029 580.027 677.029C598.749 677.029 609.25 696.304 609.25 713.921V914.473C609.25 955.233 579.474 972.297 572.911 972.297C566.832 972.297 562.963 977.824 562.963 986.598C562.963 995.371 567.384 999.793 573.464 999.793H725.519C731.598 999.793 736.02 995.371 736.02 986.598C736.02 977.824 732.151 972.297 726.072 972.297C719.44 972.297 689.733 955.233 689.733 914.473V783.903C710.666 759.655 737.125 748.67 756.4 748.67C811.46 748.67 819.198 793.851 819.198 812.573V914.473C819.198 955.233 789.422 972.297 782.859 972.297C776.78 972.297 772.911 977.824 772.911 986.598C772.911 995.44 777.333 999.793 783.412 999.793H935.467C939.06 999.793 948.455 999.793 952.048 999.793H1104.1C1110.18 999.793 1114.53 995.371 1114.53 986.598C1114.53 977.824 1110.6 972.366 1104.59 972.366Z" fill="#2ADE71"/>
<path d="M1000.35 630.653C1014.83 630.653 1024.65 620.812 1024.65 606.355C1024.65 591.606 1014.81 581.765 1000.35 581.765C985.604 581.765 975.787 591.606 975.787 606.331C975.763 620.812 985.604 630.653 1000.35 630.653Z" fill="black"/>
</svg>
