<svg width="514" height="515" viewBox="0 0 514 515" fill="none" xmlns="http://www.w3.org/2000/svg">
<path d="M87.1797 188.084H496.349V490.517H87.1797V188.084Z" fill="white"/>
<path d="M0.279297 257.505V514.082H513.434V0.927734H0.279297V257.505ZM413.8 236.979C426.09 239.831 437.261 246.259 445.903 255.452C450.659 260.406 454.795 265.92 458.218 271.873C458.218 272.53 436.05 287.514 422.544 295.889C422.051 296.217 420.081 294.083 417.905 290.84C415.439 286.585 411.936 283.025 407.722 280.491C403.508 277.957 398.721 276.531 393.807 276.348C378.248 275.281 368.232 283.45 368.314 296.874C368.189 300.216 368.954 303.531 370.531 306.48C373.938 313.583 380.301 317.811 400.252 326.432C436.994 342.237 452.717 352.664 462.488 367.484C473.408 383.905 475.83 410.425 468.44 430.048C460.23 451.395 440.114 465.887 411.665 470.69C398.671 472.179 385.543 472.041 372.583 470.279C352.721 467.005 334.424 457.469 320.365 443.062C315.644 437.848 306.448 424.26 307.023 423.274C308.518 422.158 310.096 421.156 311.744 420.278L330.751 409.768L345.489 401.229L348.568 405.786C353.765 413.218 360.378 419.551 368.026 424.424C384.447 433.045 406.862 431.854 417.946 421.879C421.668 418.223 423.989 413.378 424.507 408.188C425.024 402.997 423.705 397.789 420.779 393.47C416.673 387.764 408.463 382.961 385.515 372.944C359.036 361.532 347.623 354.471 337.196 343.222C330.689 335.798 325.883 327.041 323.115 317.565C321.052 306.737 320.747 295.647 322.212 284.723C327.672 259.147 346.843 241.289 374.841 235.994C387.807 234.392 400.941 234.752 413.8 237.061V236.979ZM293.352 258.49V279.509H226.724V469.294H179.473V279.468H112.681V258.942C112.471 251.863 112.636 244.779 113.173 237.718C113.502 237.348 154.226 237.348 203.489 237.348H293.106L293.352 258.49Z" fill="#007ACC"/>
</svg>
