<svg width="5722" height="500" viewBox="0 0 5722 500" fill="none" xmlns="http://www.w3.org/2000/svg">
<mask id="mask0_793_84" style="mask-type:alpha" maskUnits="userSpaceOnUse" x="0" y="0" width="5722" height="501">
<rect y="0.00610352" width="5721.85" height="500" fill="#D9D9D9"/>
</mask>
<g mask="url(#mask0_793_84)">
<path fill-rule="evenodd" clip-rule="evenodd" d="M-582.781 198.437L-379.718 223.568C-170.502 248.699 235.624 298.96 647.903 248.699C1060.18 198.437 1466.31 47.6527 1878.59 9.95653C2290.87 -27.7396 2696.99 47.6527 3109.27 135.61C3521.55 223.568 3927.68 324.091 4339.96 286.395C4752.24 248.699 5158.36 72.7834 5570.64 35.0873C5982.92 -2.60884 6389.05 97.9142 6598.26 148.176L6801.32 198.437V500.006H6598.26C6389.05 500.006 5982.92 500.006 5570.64 500.006C5158.36 500.006 4752.24 500.006 4339.96 500.006C3927.68 500.006 3521.55 500.006 3109.27 500.006C2696.99 500.006 2290.87 500.006 1878.59 500.006C1466.31 500.006 1060.18 500.006 647.903 500.006C235.624 500.006 -170.502 500.006 -379.718 500.006H-582.781V198.437Z" fill="#59FB97" fill-opacity="0.9"/>
</g>
</svg>
