<svg width="1746" height="143" viewBox="0 0 1746 143" fill="none" xmlns="http://www.w3.org/2000/svg">
<rect x="860" y="79" width="8" height="64" fill="#59FB97"/>
<mask id="mask0_797_122" style="mask-type:alpha" maskUnits="userSpaceOnUse" x="864" y="0" width="882" height="143">
<rect x="864" width="882" height="143" fill="#D9D9D9"/>
</mask>
<g mask="url(#mask0_797_122)">
<mask id="mask1_797_122" style="mask-type:alpha" maskUnits="userSpaceOnUse" x="0" y="-8" width="1746" height="151">
<rect y="-8" width="1746" height="151" fill="#D9D9D9"/>
</mask>
<g mask="url(#mask1_797_122)">
<path fill-rule="evenodd" clip-rule="evenodd" d="M-502 51.9262L-440.675 59.5157C-377.492 67.1051 -254.842 82.2841 -130.333 67.1051C-5.82501 51.9262 116.825 6.38926 241.333 -4.99497C365.842 -16.3792 488.492 6.38926 613 32.9525C737.508 59.5157 860.158 89.8736 984.667 78.4894C1109.17 67.1051 1231.83 13.9787 1356.33 2.59451C1480.84 -8.78971 1655.5 42.4863 1662.5 44.5C1669.5 46.5137 1683.78 50.1335 1697 53C1708.93 55.5873 1732 57 1746 57V143H1666.68C1603.49 143 1480.84 143 1356.33 143C1231.83 143 1109.17 143 984.667 143C860.158 143 737.508 143 613 143C488.492 143 365.842 143 241.333 143C116.825 143 -5.82501 143 -130.333 143C-254.842 143 -377.492 143 -440.675 143H-502V51.9262Z" fill="#59FB97"/>
</g>
</g>
<mask id="mask2_797_122" style="mask-type:alpha" maskUnits="userSpaceOnUse" x="0" y="5" width="864" height="138">
<rect y="5" width="864" height="138" fill="#D9D9D9"/>
</mask>
<g mask="url(#mask2_797_122)">
<mask id="mask3_797_122" style="mask-type:alpha" maskUnits="userSpaceOnUse" x="0" y="-8" width="1728" height="151">
<rect y="-8" width="1728" height="151" fill="#D9D9D9"/>
</mask>
<g mask="url(#mask3_797_122)">
<path fill-rule="evenodd" clip-rule="evenodd" d="M-502 51.9262L-440.675 59.5157C-377.492 67.1052 -254.508 72.179 -130 57C-130 57 -30 57 30 57C61.2913 57 80.2068 56.8185 110 52.5C189.434 40.9861 243.494 16.3792 326 9.5C441.109 -0.0975895 488.492 6.3893 613 32.9525C737.508 59.5157 860.158 89.8736 984.667 78.4894C1109.17 67.1052 1231.83 13.9788 1356.33 2.59455C1480.84 -8.78968 1603.49 21.5683 1666.68 36.7472L1728 51.9262V143H1666.68C1603.49 143 1480.84 143 1356.33 143C1231.83 143 1109.17 143 984.667 143C860.158 143 737.508 143 613 143C488.492 143 365.842 143 241.333 143C116.825 143 -5.82501 143 -130.333 143C-254.842 143 -377.492 143 -440.675 143H-502V51.9262Z" fill="#59FB97"/>
</g>
</g>
</svg>
